<mxfile host="Electron" agent="Mozilla/5.0 (X11; Linux x86_64) AppleWebKit/537.36 (KHTML, like Gecko) draw.io/24.7.17 Chrome/128.0.6613.36 Electron/32.0.1 Safari/537.36" version="24.7.17">
  <diagram name="第 1 页" id="7ovNpU1aT9zR9vmJ4j3K">
    <mxGraphModel dx="1434" dy="875" grid="1" gridSize="10" guides="1" tooltips="1" connect="1" arrows="1" fold="1" page="0" pageScale="1" pageWidth="827" pageHeight="1169" math="0" shadow="0">
      <root>
        <mxCell id="0" />
        <mxCell id="1" parent="0" />
        <mxCell id="R9abFY4tA3LT4os4NEYm-35" value="" style="rounded=0;whiteSpace=wrap;html=1;fontFamily=consolas;fontSize=18;fillColor=none;strokeColor=#666666;dashed=1;strokeWidth=2;fontColor=#333333;" parent="1" vertex="1">
          <mxGeometry x="440" y="2160" width="300" height="250" as="geometry" />
        </mxCell>
        <mxCell id="R9abFY4tA3LT4os4NEYm-24" value="" style="rounded=0;whiteSpace=wrap;html=1;fontFamily=consolas;fontSize=18;fillColor=none;strokeColor=#666666;dashed=1;strokeWidth=2;fontColor=#333333;" parent="1" vertex="1">
          <mxGeometry x="150" y="2160" width="190" height="250" as="geometry" />
        </mxCell>
        <mxCell id="R9abFY4tA3LT4os4NEYm-3" value="PFPINN" style="rounded=0;whiteSpace=wrap;html=1;fontSize=18;fontFamily=Palatino Linotype;verticalAlign=middle;horizontal=1;" parent="1" vertex="1">
          <mxGeometry x="60" y="180" width="400" height="50" as="geometry" />
        </mxCell>
        <mxCell id="R9abFY4tA3LT4os4NEYm-4" value="" style="shape=image;verticalLabelPosition=bottom;labelBackgroundColor=default;verticalAlign=top;aspect=fixed;imageAspect=0;image=data:image/png,iVBORw0KGgoAAAANSUhEUgAAArcAAAK4CAYAAABuy9WiAAAAAXNSR0IArs4c6QAAAERlWElmTU0AKgAAAAgAAYdpAAQAAAABAAAAGgAAAAAAA6ABAAMAAAABAAEAAKACAAQAAAABAAACt6ADAAQAAAABAAACuAAAAACIo+p0AABAAElEQVR4AeydB9gVxdn3RxCJYkERKygWUF+DBhQFlYAKikGsICq2KIgag4AQG2IuscQGgQBR8FXUWIK8sSIoKKgUjcaCJYrKZ8eKIiJIcb77f8fZ7O7Z3bN7ysN5zvOf63qe3Z2d+pvZ2fvM3nPPelacoSMBEiABEiABEiABEiCB2k/g/nq1vw6sAQmQAAmQAAmQAAmQAAn8hwCFW/YEEiABEiABEiABEiCBqiFA4bZqmpIVIQESIAESIAESIAESoHDLPkACJEACJEACJEACJFA1BNavmpr8XJH58+ebkSNHVlu1WB8SIAESIAESIAESIIEQgfvvvz/kY0zVzdx+9NFHZsqUKTkVpQcJkAAJkAAJkAAJkEB1EPj4449j5b2qm7l1TRYlybt7PJIACZAACZAACZAACdReApMnTza9e/eOrEDVzdxG1pKeJEACJEACJEACJEACdYIAhds60cysJAmQAAmQAAmQAAnUDQIUbutGO7OWJEACJEACJEACJFAnCFC4rRPNzEqSAAmQAAmQAAmQQN0gQOG2brQza0kCJFAiAhtvvLFZb731cv7q1atnmjZtao455hjzwgsvBHKLixOVzq233qpx4+JkzefGG280X331VaC8bdq0MStXrgyUERfhcCjfvvvum+OfNX5ORvQgARIggTISoHBbRrhMmgRIoPoIfP/99+bll1/Wih199NHGWqt/33zzjZkwYYKBre0DDzzQzJw506t8XBwX1x07deqUN07WfIYMGWK23HJLLaMTul955RUzcOBALy934sKhDk2aNNE4L774YtHxXfo8kgAJkEBNEKBwWxOUmQcJkEDVE9hss83Mscceq5vIrF69OlJ4LAWEYvNp2LChCq633HKLuffeezMXqdj4mTNkBBIgARLISIDCbUZgDE4CJEACSQQOPvhgvf3GG2+Yb7/9Nilozr3Zs2ebvn375vhHeRSazy9+8Qtz9913G6g39O/f3yxcuDAq+Vi/YuPHJswbJEACJFAiAhRuSwSSyZAACZAACEDFwDnorKZx559/fuaZ3kLycWU5/PDDzbBhw8yyZctMr169IvVvXdioY7Hxo9KkHwmQAAmUigCF21KRZDokQAIkIAQw+wq35557GqgQlMsVm88VV1xhDjvsMLNgwQLz+9//PnMxi42fOUNGIAESIIGUBCjcpgTFYCRAAiSQROC7774zDzzwgBk8eLBp0KCB+fOf/xwZ/KGHHgpYLsDs7rhx4yLDRnmmzScqrt8PaglQT2jevLmBhQacZ3HFxs+SF8OSAAmQQBYCFG6z0GJYEiABEvAR8AuqjRs3Nv369TPt27c3c+fONV26dPGF/O+p38KCs5Lwu9/97r8BIs4KyScimRwvWEfA/uwQxqF/+9Zbb+WESfIoNn5S2rxHAiRAAoUSoHBbKDnGIwESqPME/ILqTz/9pPZgIYi2a9eupGzKmQ+EcdjCXb58uerfrlixIlPZi42fKTMGJgESIIEUBCjcpoDEICRAAiRQTgJjx46NVWMoZ74u7QEDBpjevXub119/3WBxW1ZXbPys+TE8CZAACSQRWD/pJu+RAAmQAAnUDQLQu8XmDrfddpuBua+srtj4WfNjeBIgARKII8CZ2zgy9CcBEiCBOkQA2/3+3//9n2nUqJEZP3585poXGz9zhoxAAiRAAjEEKNzGgKE3CZAACdQ1AjBfhp3LCnXFxi80X8YjARIgAT8BCrd+GjwnARIggTwEMEPZpk0bDeWsGOy+++6JsaLibLPNNpnjFJIPFot99dVXan4MC92WLl2q5/vuu29k/n369DHnnntu4F6x8QOJ8YIESIAEykxgPTFF89/tdMqcWU0kD7M2WBhRZdWqCXTMgwRIgARIgARIgARqBYEEee9+ztzWiiZkIUmABEiABEiABEiABNIQoHCbhhLDkAAJkAAJkAAJkAAJ1AoCFG5rRTOxkCRAAiRAAiRAAiRAAmkIULhNQ4lhSIAESIAESIAESIAEagUBCre1oplYSBIgARIgARIgARIggTQEKNymocQwJEACJEACJEACJEACtYIAhdta0UwsJAmQAAmQAAmQAAmQQBoCFG7TUGIYEiABEiABEiABEiCBWkGAwm2taCYWkgRIgARIgARIgARIIA2B9dMEqo1h1ltvvdpYbJaZBEiABEiABEiABEigCAJVK9z+/e9/LwILo5IACZAACZAACZAACVQqgfnz55s///nPkcWrWuH2hBNOiKwwPUmABEiABEiABEiABGo/gTjhljq3tb9tWQMSIAESIAESIAESIIGfCVC4ZVcgARIgARIgARIgARKoGgIUbqumKVkREiABEiABEiABEiABCrfsAyRAAiRAAiRAAiRAAlVDgMJtmZryxhtvNDBHhr9mzZqVKZfalyy51L42Y4lJgARIgARIoDYRoHCb0Frt27c3Rx55ZEKI+FtDhgwx1lqz9957xweqg3eSuHz//femZcuWBTOvgzhZZRIgARIgARIggRABCrchILxcdwTwY+Cnn37Sv0JLsfHGG5uDDjqo0OiMRwIkQAIkQAIkUMsJVK2d21reLnWy+Jtssol577336mTdWWkSIAESIAESIIHSEODMbWk4MhUSIAESIAESIAESIIEKIEDhdh00wpo1awy2B+7atavZZpttzIYbbmhat25tRo8e7X2S//bbb70FaW5h2lVXXaWlRXznh2PPnj29Wnz55ZdmwIABpkWLFmaDDTYwTZs2Nccdd5x55ZVXvDAPPvhgIP7bb79tsKNbkyZNPP+vvvrK/Pjjj2b48OFm9913NxtttJHZYostTI8ePczDDz9s1q5d66VXipNwmVauXOklm6YcbqHa8uXLzdy5c716rL8+P054IHlCAiRAAiRAAnWAAIXbddDI06dPNyeeeKI55JBDzL///W/z0UcfmbPPPtsMHjzYXHTRRVqixo0b64K0ww8/3NSrV8+8++67ZtiwYXoPAhv0Uzt06GDuvvtuM2XKFPVfvHixadeunZk8ebIZP368WbJkiZk9e7YeERb7MMMdc8wxGv/oo4/W6/79+5vzzjtPy/Hcc8+Z+vXrq//5559vxowZY/7yl7+Yr7/+WssKQRfxnn32WQ3j/qEuEI4RvxAXLpM/jTTlcAvVGjVqZA488ECtHxjhhwAdCZAACZAACZBA3SFA4fbntobA6J8Nxfnzzz9vpk6dmuOP2dZiXefOnc0ll1xiNt98c7Plllua3//+9+bkk0/W2dvvvvvOSx4CLxZZjRw50vPDCWYnP/zwQ9OrVy/PH+l98MEHGvY3v/mNweKqPffc09x3330q7CGPKAeBGuXB7Oz++++vAiHK9OSTT2p8zDBjdnnrrbc2N9xwg2nVqlVOMigjhEn8ldplKUep82Z6JEACJEACJEACtYsAhduf2wszfE44c0cIet27d8/x/+yzz4pqZZgXmzVrVk4aMBu2evVq88Ybb3j3DjvsMFVZmDRpks6euhsQMiGsNmjQwHkZfNrHLG/YfBmEcQi5//rXv8zHH3/shXcn++23nzsNHLt162bmzZuns8qYkXWqCFBjgDDsd/4ZYr9/Kc6zlKMU+TENEiABEiABEiCB2kuAwu06aLulS5eqLiv0bDFz62aMhw4dqqX54YcfAqUaOHCggR9UDeAWLlxonnrqKRU6XUDopSJdzKButtlmXpou7ZdeekmDvvPOOy6Kd8Sn/Cg3btw4c+edd5pFixaZQw891Gy66aYGguYDDzwQFbxsfpVSjrJVkAmTAAmQAAmQAAmUjACF25KhTJ8QFmWNGDHC9OvXTwVV90l/1KhRmkj4036fPn1UJWDs2LG6yOumm24yp59+ugrGLteGDRsa6OlCvQKzv272OXw8+OCDXZS8RwjGp556qpk5c6bBAjfMDCM9LFALq0nkTayIAFnKgbB0JEACJEACJEACdZcAhdsabnt82oe+LFQFYNUA1gycQLZixYrI0kBwxYKvL774wkCwxSKyCy64ICcshE6oVyD9sLvuuuvMDjvskGmBFYTlt956S5OC+gN0b51VA+gi15TLUg7oDa9atcor2m677WYmTJjgXfOEBEiABEiABEiguglQuK3h9oUlAuirQm8XerMwuQWhFjq4N998c2xpINxiURcsJnTp0sXsuuuuOWGvvfZas8suu5gzzzzTTJs2TdUUYDHhlltuMVdeeaWBuaysprHOOeccs2DBAp0xhnB9/fXX6+wtrCP4XbHWEvxpRZ2nLUfbtm11NhwWKGAdAioVHTt2jEqSfiRAAiRAAiRAAtVIQD4zV5UT+7FYrl+SOsmCMisLygpKSwRXLQfK4v4uu+wyTUts0Voxv2WbN29uZUbUihUCe8YZZ9iLL77YC7vPPvvk5CtqDHr/6aefzrnnPMRklxULC3bnnXfWtGVm2MqiNDtjxgwXxIrQ5+XjyhbFTGzjajn32GMPKzOiVuzc2vbt29uJEydaUaXw0sOJCJBW9IetLEAL+Icv4riIHm9OmUQdQ6NnKYfMNGtZRI9Y+Yq+brgIvCYBEiABEiABEqjlBBLkvcnroW4i2FSNg43X3r176+xi1VTq54rcfvvtBourXnzxxWqrGutDAiRAAiRAAiRAAqkJJMh791MtITXGdR8Qaguwe0tHAiRAAiRAAiRAAiQQTYDCbTSXivC99dZbzbHHHmu+//571cf95ptvdJvciigcC0ECJEACJEACJEACFUhg/QosE4vkIwDrBLCF+z//8z+601jWBWG+pHhKAiRAAiRAAiRAAlVPgMJtBTdx3759Df7oSIAESIAESIAESIAE0hGgWkI6TgxFAiRAAiRAAiRAAiRQCwhQuK0FjcQi1gwBMStifvWrX6k9YWysgb/XX3+9ZjJnLiRAAiRAAiRAAiUhQOE2AaPYdDVHHnlkQojKu4XFZy1btqyYcldaeeJaDLu6nXTSSUZsAhuxQ2zeffdd06xZs7jgFedfWzhXHDgWiARIgARIoOoIULithU268cYbm4MOOiiy5DBbLBss6F9kgDJ4Vlp5Cqni/fffr7aRsa0x6oOd3rDL2S9/+ctCkitLnGrgXBYwTJQESIAESIAEfAS4oMwHoxpON9lkE/Pee+9VTFUqrTxxYCDIwjVp0iQuSEX71xbOFQ2RhSMBEiABEqgKApy5rYpmZCWKJbB27dpik2B8EiABEiABEiCBCiBA4baMjbBmzRqDRUpdu3Y122yzjS5Uat26tRk9enSk2sDXX3+tO5Dhk3jDhg1V57NLly5m0qRJZsWKFebGG2/URU7Lly830BF1i56c7VvYxHV+OK5cudJ8++23AT/4X3XVVVprlM8fvmfPnp5/mnIXUh4/bn99N9hgA7Xne8QRR5hZs2Z5wcJ1ev/993V75caNG+ssK3Sii5mpduk/9NBDmueGG26oTKBvDU6Oj18NZPr06Z7/lltuWXRZ/RxK1e5eoeTEn/664uwvD89JgARIgARIoKwEREezqpwIZVaAlaRO+++/v+3evXvBaT3yyCNalmuuucYuWbLEykIlO2bMGFuvXj07ZMiQQLqLFy+2O+20kxUh2CLed999Zz/77DM7YsQITWPUqFFe+EaNGtkDDzzQuw6fHH300RpHBGLvVrdu3TRfWSjl+bmTDh062Hvuucddav5gmKbciFRIeVx9t956a81v6dKl9u2337bHHXecFYHSTpw40SsPTlydcJw3b56VBVR2xowZVoRR265du0BYXBx88MF2iy22sPPnz8+5F+Xh0vczc+Hi6rfPPvtYUWNwwbyjSytNWR2HcrW7S79cnL1K84QESIAESIAEapBAgrw3uTRSYA1WJl9WCZVNjFq/fn0VCCHU5fuDoJDGQUjt3LlzTtBTTjnFNmjQwEKgc+6MM87QfFH+sINgWqxwO3PmTE3/vPPOCyQ/Z84cu8MOO9jVq1d7/lnKjUhxwp9L0Al7fsHR1ffee+91wfQos812u+22U6EVwr1zLg2Uze9ktlnrhR8OftepUycrO7upIOz3jzt36fvL6MLG1S+fcJumrI5DudrdpV8uzo4RjyRAAiRAAiRQkwQS5L3JVEsQSRYOn+ilUQJ/MnNrZOY24IcwInT9J1Ke//hk7v/E7oLvvffeRoRJ88Ybbzgv88ADD+g5PsuH3bRp08zAgQPD3pmuDz30UNOmTRtVccBnauduuOEGTdupNsA/S7ldOlmPrr7g63f4LI+yipBpHn/8cf8tPZdZ2oBf8+bN9frTTz8N+M+ePdvIbLmRWemAf01epCmr41Cudnfpl4tzTfJkXiRAAiRAAiSQhgCF2zSUCgwjM7Nm+PDhBnq2Movo6WkOHTpUU/zhhx/0+OOPPxqE/cUvfmGw6r1c7sILLzTIc/z48ZrFwoULzTPPPJOzxW/achdaznz1lZlxTTrqR8Rmm20WyBY6pHAwf1ZpLl9Z83Eotj750q8WzsVyYnwSIAESIIHqIkDhtozt2aNHDyM6s6Zfv34GgiQEMMz8ioqB5opzOMxWQhDCArBly5apX9I/LHIqxPXu3dtgpnPs2LEGgs9NN92kZQsL1GnL7cqQtTz56vv5559r0liEVwlOdKTNqlWrcoqCxXrFuHwcwmlXO+dwfXlNAiRAAiRAAoUQoHBbCLUUcWBaChYNIKANGDDANG3aVGduERWf3MPu2GOPVa/HHnssfEvVCQYNGuT5b7TRRgFha7fddjMTJkzw7sedQPUAmxR88cUXKtjed999WjZ/+KzlRtxCyuPqO3XqVH/2KnQ/+eSTalni8MMPD9xbVxfbbrut+eSTTwLZY1b5ww8/DPgVcuE4lKvdXfq1gXMh/BiHBEiABEiABMIEKNyGiZToWhaoGVlMpvq50Gv96quvVKiFDu7NN9+ck8u1115rxFqCgRALQQQzuB9//LGRBWBGVryrv4vUtm1bnQnGxgNiDcAsWrTIdOzY0d1OPJ599tk6Szxs2DBzzDHHmO233z4QPmu5EbmQ8rj6Qpf40Ucf1fpidvvkk0/W+sJcmvtsHihgyotDDjlETYU999xzKWPEB8OWvNDpxYw3trmF6TH8SNhqq63iI6W84ziUq91d+uXinLKaDEYCJEACJEACNUdAPo1XlUtYPZe5nsWaAsMK/v79+1tRBVDrCLCygNXrF198sa7wl1a2WHHvnAjAVoQQNQkGawoyY2hPPPFEK0KfC6LHt956y4owq1YKkPa4cePUXxYPeekibfz16dMnEBcXovOr91599dWce/DIWu5CyxOur6hmWJmttTJz65ULprxcXdzxsssu0/vu2h39ZtvAJ421hChmSM9vQkzUD2zfvn21PWB6TGze2hdeeEHbzuV90UUXaRx37Y5pyhrmUOp2D6dfSs5eQ/GEBEiABEiABGqQQIK8N3k9lENexFXjJk+erEb+q6xaVdM+rAgJkAAJkAAJkAAJFEsgQd67n2oJxdJlfBIgARIgARIgARIggYohQOG2YpqCBSEBEiABEiABEiABEiiWAIXbYgkyPgmQAAmQAAmQAAmQQMUQoHBbMU3BgpAACZAACZAACZAACRRLgMJtsQQZnwRIgARIgARIgARIoGIIULit4abAxgnYaQp/2G6XjgRIgARIgARIgARIoHQEKNwmsGzfvr058sgjE0JkvyV2a3UL3kMPPTR75AJjYOOBli1blrwuBRaH0UiABEiABEiABEigbAQo3JYNbeUkDJu/P/30k/5VTqmyl2TjjTc2soFC9oiMQQIkQAIkQAIkUGcIrF9nalqHK7rJJpvolrF1GAGrTgIkQAIkQAIkUEcIcOa2jjQ0q0kCJEACJEACJEACdYEAhdsyt/Jbb71ljjnmGLPZZpuZRo0amY4dO5o5c+bE5vrll1+aAQMGmBYtWpgNNtjANG3a1Bx33HHmlVde0TjffvuttyDNLUy76qqr9N6aNWsC93r27GkefPDBgN/KlSsDeX/99ddm8ODBZpdddjENGzY0zZo1M126dDGTJk0yK1as8MLmK5cXMOPJjz/+aIYPH2523313s9FGG5ktttjC9OjRwzz88MNm7dq1mtqNN96odVi+fLmZO3euV5/11//Ph4dwHd9++21zwgknmCZNmnhhv/rqq4wlY3ASIAESIAESIIFaSUD0MavK/f3vf7fSECWp0/7772+7d+9ecFrvvPOObdy4sd1+++3tE088YZctW2YXLFhgDzvsMCvCqxVhMpD2p59+anfccUe79dZb26lTp2r4119/3Xbq1MmKZQU7b948L3y3bt1svXr17Lvvvuv5uZMOHTrYe+65x13q8eijj1YuIrB6/osXL7Y77bST3Wabbewjjzxiv/vuO/vZZ5/ZESNGaNhRo0Zp2CzlQoSDDz7YipBq58+f7+UVd9K3b18rgr/y+eGHHzT/IUOGaP6zZs0KRJMfB/bAAw8M+PkvXB3BC3FFGLbPPfecrV+/vhXh3B+U5yRAAiRAAiRAArWYQIK8N7k0UmAFwUmobGIpIQBBKE7zB+EzjevVq5emN2XKlEDwTz75RAXbsHB7+umna/i77747EB5CKMLus88+nv/MmTM17Hnnnef54URmhe0OO+xgV69eHfB3gp9fuD3jjDM0DTALOwjPTrjNUi6kA+Fy8803Dwjj4fTdNYTrAw44wF16x1atWqmA6nnISVrh9rHHHvNH4zkJkAAJkAAJkECVEUiQ9yjcJrV1sTO3spBLhUfM2IZd69atc2ZuMYOJ2dilS5eGg9u2bdtqWh999JF3r02bNlY+5Vv55O75QYgdOXKkd+1OooRb5AdhHjO2SS5ruZLSCt8799xztQz9+vXTmV5RrQgH8a7TCrd+Hl5knpAACZAACZAACVQNgSThljq3It2Vw0GXVIRa3agBJqzCbquttgp4IbwItWquS4RJT1fU6dW+9NJLGl5UHbx4F154oZFP+Wb8+PHqt3DhQvPMM88Y+dTvhYk7cflhIwlYU4hzLhxMiaUtV1xaUf7jxo0zd955p1m0aJGB7d9NN93UyKyxeeCBB6KCp/KDbjMdCZAACZAACZBA3SRA4bZM7Y7FWRAasYALmyiE3ZIlSwJeCC/6uQaLpESlQDd6kJ9XOUfRZ/Xi9e7d2zRv3tyMHTvWQAi96aabjMyAJgqrLjLyg7CK8kEIj3OFlCsurSh/CO+nnnqqETULg8VyWByGemMRncxAB6IgLB0JkAAJkAAJkAAJJBGgcJtEp8h7RxxxhKYwffr0QEpYuY8V/WEHgQ4WD2ARIOyuu+46I7q0et/dgyB8wQUXmC+++EIFW2ztC0sLad2xxx6rQUVHNSeKqDyYQYMGqX/WcuUkluABgR4WJeAaNGhgunbt6ll4kEV1gZiwprBq1SrPb7fddjMTJkzwrnlCAiRAAiRAAiRAAhRuy9gHrrnmGjVtNXDgQDNjxgydwX3zzTfNKaecYqJUFa699lo1yXXmmWeaadOmqZoCZnhvueUWc+WVVxqYxHLmr1yxzz77bJ2BHTZsmJocE8sM7lbeI/KTBV0qxEKQxAzuxx9/bGSRmpFFbJ5wm7VchxxyiJrhEksFecuAAOecc44RKxI6+wxB/frrr9fZW6Tjd6J3bKB6IXrHRiwxqCoDTKvRkQAJkAAJkAAJkIBHoGo0i3+uSIKCceaqFrugDBnKDK0VO7dWdEnthhtuaNu1a2cfffRRK/qlupBKGsKeddZZXtnE7qwVu7N25513tjKTacXOrZoOE+HYCxM+GTp0qKb16quvhm9Z0V318kFe+OvTp48XDouvRPhWk2DIb9ttt7UnnniiFSHSC4OTLOUSgTO1tQSx32v79+9v99hjD10cBxNi7du3txMnTrSi5xsog8zwWqSNhWWijmFFX1fvw+SYq5v/GIjMCxIgARIgARIggaohkCDvTV4PtRSBoGrc5MmTDXRRq6xaVdM+rAgJkAAJkAAJkAAJFEsgQd67n2oJxdJlfBIgARIgARIgARIggYohQOG2YpqCBSEBEiABEiABEiABEiiWAIXbYgkyPgmQAAmQAAmQAAmQQMUQoHBbMU3BgpAACZAACZAACZAACRRLgMJtsQQZnwRIgARIgARIgARIoGIIULitmKZgQbISwKYVbntibCNMRwIkQAIkQAIkQAIUbhP6gNhbNUceeWRCCN5alwTEHq+afBObwTnFwJbHLVu2ZPvlkKEHCZAACZAACVQ3AQq31d2+dbZ2sHMsm0DoX6EQsIvcQQcdVGh0xiMBEiABEiABElgHBNZfB3kySxIoO4FNNtnEvPfee2XPhxmQAAmQAAmQAAlUFgHO3FZWe7A0JEACJEACJEACJEACRRCgcFsEvKSoN954o7fYqVmzZuaFF14w0A3FjOJGG21kDj74YDN37txAEmvWrDGyV7Lp2rWr2WabbcyGG25oWrdubUaPHh34vP7ggw96aWNB1dtvv21OOOEE06RJE8//q6++MoWm98EHH+gWxigr0jz11FPNN998Y95//33To0cPrcO2225r+vXrZ5YtWxaow48//miGDx9udt99d63nFltsoXEefvhhs3bt2kDYrBdvvfWWOeaYY8xmm21mGjVqZDp27GjmzJmTk0yYz8qVKwNhvv76azN48GCzyy67mIYNGxq0T5cuXcykSZPMihUrjGu75cuXaxu5RWvrr88PHQGQvCABEiABEiCBSiQguolV5UQ4tMK5JHXaf//9bffu3YtKa++997YiiNkOHTrYefPmWVnoZEXQtXvttZfdYIMN7OzZs730H3nkES37NddcY5csWWK//PJLO2bMGFuvXj07ZMgQL5w7OfroozV8p06d7KxZs6wIY/a5556z9evX17iFpnfcccfZF198Uct65513ah5HHHGERX4vv/yyFYHW3nzzzeo/aNAgVxw99u3b14rwaZ944gn7ww8/2M8++0zLjjZBGf1OBHwrwq+dP3++3zvy/J133rGNGze222+/vaaNMixYsMAedthhtkWLFlaE1Jx4jo8IrN69xYsX25122snKjwcLPt99952WccSIEVqfUaNGeWHRbgceeKB3zRMSIAESIAESIIHKIJAg700ujRRYGfXUUiRUNrGUEAghgKX523rrrRPT8t+EcIs0IRT6HQQz+OO+cxC2Onfu7C694ymnnGIbNGhgly5d6vnhxAlvjz32WMDfXRSa3tSpU10Setxzzz21rE8//XTAH0LibrvtluN3wAEHBPxw0apVqxzhFkL55ptvrkJ/ToSQR69evbQMU6ZMCdz55JNPVLBNK9yeccYZmg76Sdh169bNUrgNU+E1CZAACZAACVQegQR5bzLVEkTChMMnfGm6wJ/M3BqZuQ34IYzMRv4nUsr/+IT+q1/9KhAa6gbbbbedefXVV43MJuo9mB2T2c1AOFyIAGxWr15t3njjjZx78Nhvv/0i/QtNb9999w2kh3LChf1lFtV8+umngbAiIBqZoTZnn322kVlkTxUBqhMiuAfCyqy1kRlqI7PaAf+oi+nTp6v34YcfHriNsongHPBLunjggQf0tsxE5wSbNm2aGThwYI4/PUiABEiABEiABGoPAQq3NdBW8jk9MpetttpK/b/44gs9ysys6qtC8JUZTU9/dujQoXpfPvNHpgPhOcoVmt6mm24aSE7UIozMbKsOrf8G/GBuy+/GjRtnRJXBLFq0SHWMkRYEXidU+sOmPYceL3R7sVEDzHOFneMY9g9fIx0wQTrQJ6YjARIgARIgARKoPgIUbmugTbGACTO+YeeEWiecYbGW6H7qQq2FCxeq4Ih48qlco0alEU7Tf13q9Pxpx51j8RUWoM2cOdN8++23Bou7UG7R4zUjR46Mi5boj0VfEEaxMAybM4QdZn/TOKSDxWhIJ7wQLio+6kJHAiRAAiRAAiRQuwhQuK2B9oIwBWsJfvfaa6/pJ32oHMDyACwJwHoCrCQMGDDANG3aVGduEQcr+LO6UqeXNn/MUsOqAZzoCavlB2e9QHR50yaTE86pETj1BBcAViGg8pDWHXvssRpU9JRzorRp08bIAjnPH1YtVq1a5V2LfrGZMGGCd80TEiABEiABEiCByiNA4bYG2gSzhZdeeqkRqwAG5qXEEoGRRWJGrCWomS8UAZ/4oZMKfd4bbrjBQGiDUAsdXLFMkLmUpU4vSwHOOeccIwvmDNQAMDt9/fXX6+ztIYccEkgG1zA1Bt3cfE4sSBiYFYNO7IwZM3QG980331SOUaoKcelde+21RhbCqRALYRszuB9//LE577zzVPfZL9y2bdvWYAb9o48+0raDqgXMj9GRAAmQAAmQAAlUMAH5ZFxVLmH1XOZ6lsoUGMxXiSBmZTGUlc/rVuzXWlgKEButgTLB9Ff//v1t8+bN1ToCrDJgdf/FF1+sK/ylG9l99tlHTWfhPPwXSEwuiknvsssuU5Nl4TxEOLTPPvtsTt5XXHGFZv/KK69oHfbYYw8rM59q6qt9+/Z24sSJVvRzA0UUQTG1tQRElBlaK3ZurejxKsN27drZRx991Ir9YK88Z511lhX9Xu/alb9Pnz5e3vLDwYqQrCbBYIVCZs7tiSeeaEWQ9cLgRGagLcoIk2BoE9EnDtznBQmQAAmQAAmQwLohkCDvTV4PRRIBoGrc5MmTdQOCSqkWrCRgFhazg3QkQAIkQAIkQAIkQALFE0iQ9+6nWkLxfJkCCZAACZAACZAACZBAhRCgcFshDcFikAAJkAAJkAAJkAAJFE+Awm3xDCNTuPHGG9XaATZpkF209HzYsGGRYelJAiRAAiRAAiRAAiRQGgLrlyYZphImMGTIEIM/OhIgARIgARIgARIggZojwJnbmmPNnEiABEiABEiABEiABMpMgMJtmQEzeRIgARIgARIgARIggZojQOG25lgzJxIgARIgARIgARIggTIToHBbZsBMngRIgARIgARIgARIoOYIVO2CMhj3pSMBEiABEiABEiABEqg+AvPnz4+tVNUKt717946tNG+QAAmQAAmQAAmQAAlUJ4GqFW4rZfvd6uw2rBUJkAAJkAAJkAAJrDsCbvvdqBJQ5zaKCv1IgARIgARIgARIgARqJQEKt7Wy2VhoEiABEiABEiABEiCBKAIUbqOo0I8ESIAESIAESIAESKBWEqBwWyubjYUmARIgARIgARIgARKIIkDhNooK/UiABEiABEiABEiABGolAQq3NdBsf//7382vfvUrs+GGG5r11ltP/15//fUayLmysrjvvvu8+v/iF7+ILdwHH3xgjjrqKPPdd9/FhqnmGxdffLFBnymF23jjjT3mru/FHW+99dZSZFnr0kjbL2tdxVIWmONTEFRd7w9BGrwigdpJgMJtQru1b9/eHHnkkQkh8t+aO3euOemkk8xhhx1mvvzyS/Puu++aZs2a5Y9YhSFOPPFEAxNthx56aGztXnnlFbPvvvsqr0033VTDff/996Zly5ZFt0VsphV2o1+/fuaSSy4xl19+edElA7uXX35Z0zn66KOVP9og/NepU6ei86qtCaTpl7W1bvnKzfEpl1BSfyj3WFTu9HNrSx8SqE4CVWvntlKa6/7771dB4oILLjCYRcPfRx99VCnFq6hyYKa2R48e5vjjjzfnn3++VzYIYj/99JP+eZ4VeoL2xSz9nDlzCi7hLrvsYh544AHTpk0b07p1a3PCCScUnBYjkkASAY5PSXRy75ViLEoaI0qRfm6p6UMCdY8Ahdsyt7kTZJs0aVLmnGp/8tdff7357LPPzPDhwwOV2WSTTcx7770X8Kv2i7333tv07NnTXHjhhea4444z669f3kd19uzZ1Y6U9YsgwPEpAkqCV7nHonKnn1A13iKBqiJAtYQyN+fatWvLnEN1JI8ZC+h87r///ma77barjkoVWYtjjz3WfPzxx2bq1KlFphQfHTPkAwcOjA/AO1VNgONTVTcvK0cCdZYAhdsyNf2DDz6oC3keeughzcEtJoMer3Nff/21GTx4sMFn6A022MBsvvnm5ogjjjCzZs1yQYxLxy0Cevvtt/UzNWaCnd9BBx3kncMP1849+eSTeu+RRx5xXirMuLg4rlmzRv+wsKRr165mm2220cVv+CQ+evTogDpAmvJ89dVXmtdbb71ljjnmGLPZZpuZRo0amY4dO8Z+rn/11VfN559/bjBj6Xfh/FauXKm3w/7vv/++6d27t2ncuLEBG+hK+2d7b7zxRo8RdJ5feOEF1f3FTMlGG21kDj74YAP9Q+euuuoqL7yf5/Tp0z3/Lbfc0gU3Lv3ly5drOo6vf8b1xx9/1Fnp3XffXfPcYostVA3j4YcfNlFCBtQb4B5//HEvn5o4Yb9MpuzaGm2cpi8hNTxjaZ4vhE3bT9KGQ5ph556fmhif3HgQLkNWjq7M7tmKGgtdXljfMGDAANOiRQsdW5s2bapfQKDTH3Zpx6lw/m4scun5n5uGDRtq3+jSpYuZNGmSWbFiRd4xIkv6ad8X+cZFlL2YfuTqziMJVBwBmTGrKicvECuQS1InmUW03bt3LyotWcSj5ZHBLZDO4sWL7U477WS33nprK4KnXbp0qZXB2sonaCuDt504cWIgvEtHFv5YEX6tCFH2ueees/Xr17cykNtx48ZpPnfffXcg3hlnnKH+IvgF/EWn08rCLs8PZQC3a665xi5ZskTTHDNmjK1Xr54dMmSIF86d5CvPO++8Y0XQtNtvv7194okn7LJly+yCBQusLKyz8sKxMvi7pPR41113efkHbvx84fILc3T+OM6bN8/Kggw7Y8YMKz8mbLt27XKSEuHZiqBtO3To4IUXQdfutddeVl4YVj7PB+Ig7IEHHhjww8U+++xjRYjO8Y8Lj4B9+/a1Iugrjx9++MGKCoayBXe0adihT+Ce/CgI3BJB3IpgbOfPnx/wj7uQBWWaDtKK+hN9cC8q+2WwX3pgIk6y9KUsz1fafpI2XETRPS/3/ISfq1L3Ay/DiJMsHBHdlTluLPz000/tjjvuqGOrfPXQsUes01iEFyst+ty7YmQdp/z5+5k5XjIxoOO5rB/Q53vEiBH6zI0aNcplqeNP1JjiArj6RaWf9X2RZlwsRT9yZeeRBGqSQIK8N7k0UmBN1iZPXgmVTYwJITHqxR/lhwEmrYsaqBDXCZ333ntvICmZDbDyWV6FMwg/zrl0HnvsMecVOMqsgQpn3bp18/whQMlssN111101PQy4zsknb3vHHXe4Sx2QO3fu7F27k1NOOcU2aNBAhW/nh2O+8vTq1Ut5TpkyxR/NfvLJJyrYhoVb0bfV8BDSo5zLzz/gI5zzh/Dgd6KvqulB8Pc7vEjRphD4/A6CN/xx3+/ihNVChFv8mDnggAP8yet5q1atIoVb3MQPHbSf3+EljXaFMJ/GOeEWrMLud7/7nfULt+yX2YTbtH0J/TPt85W2n6QNF25z/7V7fsLPVan7gT/P8HnWZ9KVOW4sPP300/VZDv/QhwCKcQfPrnNZxynEc/n7mTleeP+EHcbkYoVbl37W90WacbEU/ShcZ16TQE0QSJD3JlMtQd5OcPhsKI0R+IP+p8zcBvwQBoueinVYDQ+H9P0On7NgKksGzsjP0fvtt58/uHeOT9y/+c1vjMxaeuXDJ0fUQQQYTe8f//iHhpeZWYMFRFio5Bw+48vsobv0jvLiMatXrzZvvPGG5+c/iSsPPt/DHX744f7gqk8rwlzADxfuE58I0jn30njILG0gWPPmzfVaZnEC/rgQgVUtGvhvQAUDur5Qj5CXoP9Wyc7lJWdEIDVnn322kVl3TxUBn1dF8InMB2oN6At+h7ZDG8rss9+7JOfsl9kwpu1LWZ6vtP0kbbhsNfpP6FL3g3xlSMvRn07c2IPP+/LFKcd0INSt9txzT/Ovf/1LddmRVtZxyp+//9zxglpZ2E2bNq1ovXaXftb3RZpxsZz9KMyC1yRQUwQo3NYUaV8+0HGST84GGxlA5zPsZGZYvaKEaLwE4txpp52mAtM999yjQeRTv4Ef7OzKzLSRmQz1l1//OvDDJI1zKA+sFEDIg+6v02sbOnSoBpFZYBc0cIwqD+onaghaP38eLuJWW23lTr2j29QBgnQhDnq9fgedNDiYEAs76OVGOVeuL774Iup20X4yK23uvPNOs2jRIv0BAzu+eLG4F1dUBvjRBX3tcrmxY8eaP//5z5o8+2Vuv8zHPW1fyvJ8pe0nacPlq0P4frn6QTgf/3Vajv44cWMPWOO5x5jgxjF3fOmllzQJUUdQXdOs45Q/f3eej5cLV+gxX/pJ74s042K5+lGh9WU8EigFAQq3paCYMQ3MzmLQwWwlBteww8IqOMw0ZHH4VY8ZXAi1WFCB2UEs6MLgh00knnrqKZ2VFHUEFXr9acO+rOiHGWwgsHDhQn05YJZaPqdpMJyndagfhHbUD0bJww6zjmG37bbbqhdeTOV2WPgRVR8n1DohF+XADNCqVatyivTtt9/m+MEDL9E4h3unnnqqmTlzpkF8zDChHJhBHzlyZE402P3FfccmJ0CJPdgvc/tlPsRp+1KW5yttP0kbLl8dwvfL1Q/C+fiv03L0x4k6R9khKOOLB34o4/mJ+sMC0kLGqbg8k8bzcJykMSIcFtflbo9y9aOoutCPBGqKAIXbmiIdygdmnuDCZp7wKx0WDjBbF/6kH0oi5xKzlbAYgBXBl112mRHdMG/WD0IVVuRfccUVKuAecsghXnz4w1IAhGmsMMbKYjcAhz+Je5HynLjPc+6znwuO1cz4DB92v/zlL9ULpq/K7SB0w1qC37322msGKgxQw/ALkzgXPWF/UFX7+PDDDwN+7gKWF/zC8G677WYmTJigt/HSxcpsOKhfwDKFWyEd7gcI4/J1bOBXbsd+mY1wmr6U9flK20/ShstWo/+ELkc/SCpHGo5J8f338GMRXzz81k/c/euuu87ssMMOeh9+Wccpl0746HiJHnD4lm7GMmjQIM8/aYzwAoVOXPrhcaKY94XLopz9yOXBIwnUOAH5VVtVLkHBOHM9a9JaAhZ7+a0liEAUKG/UIoZAgJ8vsMhIOpH++VfgY3GZzKaq/0UXXZQTVYRdvYeFXViEhfAy02vlRaD+sEDgd/nKI9sM64p+v7UE0du1IrBbmRnNsZYgnxHVP24VcVx+cf6oIziEF45h8YrMsqilCGddIclagtiB1XT+8pe/6Kpr1Et2DFMrEFHWEkTNQNMX4VcXfMkMkn3zzTcVHfLFYjDR67XyMrcyQ2//+Mc/avpiesyPV89FvUTvidpC4F6h1hLAKp9zq76xaBKLUep6v0zilaUvZXm+0vaTtOGS6hD3/JSrH0SVJQtHxI8rs0sbz5WYV7Q777yzxaIz+UpiseD25ptvtiJYWv+ir6zjVFz+jpf8GLaPPvqoPjeyQYY999xz1WrDBx984Ipnk8aIfOkX+1xGjYul6Ede5XhCAjVIIEHeo7WEpHYoRriFQOKETP/Rb75JZjGtGNBXk2CwSIBBBsKfzNx6xUJ4f3x37gWIOGnZsqUKpRAY/c6tuIWQGXYQaPv3729lIZZaR8AgivAXX3yxlz9WGWcpD4R1UYuwolvqmebCwA8TZK4eZ511lleUSy+91EIYhEUF56I49unTJ7IcMlut0Vza7ijqGi45tYYAgRsCJ1hD4IfZMAidsmWuF86d4MUIUzl4aSGc2Ly1EIbBwqXv/7EgM7Nqukv0AZWl6LO5pKzMqCvjPfbYQ1+yMOcldo/V7Fu4rRAJK7lRVpkJ9tLACUyDpbWWgHK4croj2jbJsV8a6++XcawglKXtS2mfL+SVtp+kDRdV/qjnCv2jJsancHnScswy9kCYFRviKuBibJWvUWqGMPwjHWVJO05FMcNY5Fz4ucGYceKJJ1pR83JB9Bg3RmRNP+37It+4WEw/ClSMFyRQwwSShNv1UBYZ1KrGTZ48WT/NV1m1qqZ9kioCfVusZsbKcpllSQpa8D1sjADViJpQfyi4kBIRVhvatGljsDhQXpDFJMW4ZSJQW/pSmapfsmTJsWQomRAJ1CkCCfLe/dS5rVNdobIrKzMRRj6FG7GNa7CCt646WFOA3uAll1xCwbaudgLWmwRIgARIoGACFG4LRseI5SCA2coXX3zRwDYkrAXURXfLLbeYq6++Wv/qYv1ZZxIgARIgARIohgCF22LoMW5ZCGA/eNHNNbADWyrn9rHH535YIYA1iGHDhpUq+ZKmgxXdVEUoKdKSJlab+lJJK17ixMixxECZHAmQgEeAOrceCp6QAAmQAAmQAAmQAAnUBgLUua0NrcQykgAJkAAJkAAJkAAJFE2AaglFI6zbCdx3333eFpduC91iiYhNSHPUUUfVWZ1bMb9mxMRJsRhz4mPjCjHvZnbaaSfd3AO72WGDiOOPP9789a9/Ne+9915OHHpkI4DtpqHyEv7DTnfYHAU7BoY3EImKg/DYBlvMZJnzzjvP/Otf/4osSFTccN7uGrrs1eDKMebk4+JUKMCyWbNm+YLzPgmQwDomQOE2oQHEBqmapUoIUudvQTcUZtfEdm1JWIjNRbPvvvvqdsFO5xZb+Irt3jrTFtgCGZYSLr/88pIwFRu6ZujQoeaAAw4w2FoYi/Ww/e+///1v3V4ZC/cgQO26667ezk0lybgOJoK+KhuHaM1lswFv69dvvvlGd6oTW61GNirRLZgdnqg42DoWu9ldeeWVesQz8dvf/tbI5ioumh6j4uJ5DP/BEkkluyzPeKnHnDRchgwZokzxY4OOBEig8glQuK38NootIWZtZFOB2Pu17QaErB49euhMouwM5hUfL2oIaPirdFeKNpHdlYwYdFdrCdApKtZBSMbM0/jx443sQGd233133a9eNnPQLYCxRbLbhrTYvCo9finap5A6QrjEFqojR440EFxl85bEZOrXr2/QPhCQZadA84c//MFMmjTJnHTSSSpkJUauhTdr0zNeC/GyyCRQ5whQuK1zTV65FYbg9dlnn5nhw4cHCim7iOkn86h92wMBq+gCM0Q9e/Y0F154YVGzqZj9+9Of/mRkRzWDGeEoB0GqVLPEUenT778EZOtkvZBdAnX2/L93ks/QhrJjonn44YcNPstndZipx+xvpbq6+IxXaluwXCRQDQQo3FZDK1ZBHTBzc+utt+oLfLvttquCGhVfBcz0YSe1qVOnFpzYhAkTdMZbtvJNTKNDhw46IyjbHyeG483iCKCfOwf9zbQOYd3XDMzAp3X4soMZXzoSIAESqEsEKNyWqbUffPDBwKKS999/X7cFbty4sWnSpInqj0Yt4JE96M2AAQNMC7H1usEGG+giFOxWBV1U59zihuXLl5u5c+d6+WQRTFwaboEEFrlAbxYzKBtttJHBDBPSDjvMBGJRDD6zNmrUyHTs2NHMmTMnHMy7TlMfBIb92c8//1wX0HiR5STMceXKlXo77J+Pb9b6XnXVVR5Xv+oHPuGDGf623HJLr6gu/aQ2+fHHH3VWGmoBYIwFXVDDwGzc2rVrvbTcCbYlhXv88cedV+bjM888o3H22muvzHG//vprM3jwYAM1CfRFLHCC+sKsWbO8tMLtgMWAvXv31n6Efn7qqaca6JuifVBX9K9tt91WZ5GXLVvmpeP4pe2P5WgfFCZtf/UKnvFk9uzZGgPbTGfVg3X98LnnnlPVhoxZ5w0ebsu3337bnHDCCTpeuT6Pravh0nJK0+fD+bpn3BU47ZiTtU8g/TVr1ujiza5du5ptttlGF1q2bt3ajB49OrUaVJo6urrwSAIkUEMEZCahqpysMsfUSEnqJJ8Bbffu3YtKS3TmtDw4zps3z8rCCTtjxgy74YYb2nbt2gXS/vTTT+2OO+5oRdfOymydlZe/ff31122nTp2sWCLQ+P4IIlxaWZzi98p8Lp+/LdKRmTuvfCLoWhGGrAg0Vl7GXprvvPOOFeHcbr/99vaJJ57Q8i1YsMAedthhVoRx27BhQy8sTrLU56677lJO11xzTSANd+E4rlixwnnp0fmn4YsIWeqL8HGM5TO/FeENQQIuLjwC9e3b14pAo+xkYZAVFQwrC1W03iIwBtLBxdKlS/We/IAI3JMfHlYEYyuLkwL+URciSGoazz//fNTtWL/FixdbsaqgfVG2RNayiLBj5YeWFUHHTpw4MRDXtQPuy6p87ed33nmn5i0CscV9WWilfebmm29W/0GDBgXSwMW6bJ8s/TWn4D4P1BNjEOrsHNryH//4h5UFfbZBgwY6Brh7OEbF8d/HOfo+0sUfyuqci+vuhY+33367C5rq6NoS4w76pfxgsyJQW1FfsSLUZnqus/R5l6//Gc865qCCcc9g1DOLvg1eGHeWLFmi9RszZowVaxX6bIaBoX9i/PO7LHX0x+M5CZBAcQQS5L3JpZECiytfSWMnVDYxHwzc4ZdC3DWEz7TODdgYRP1O9Ck1P7wsnDv99NPV7+6773ZeeoSgAcERg7PfxQ3i/jD5zjFYo554QfodhFb4475z8mlb/aZMmeK89Cg7fmn5wsJtlvqIvq2mPW7cuEDa7sJx9L/4cM/5p+GL8Fnqi/BxjKNelEnhcQ/ColgswGnAtWrVSoWIgOfPFxAkxYpB4BaEDplFzfmxEwj084UTbv/5z39G3Y71E5Nh2h733ntvIIzMqllRG9EfZxDOnXPtgB9lficzlJrO008/7fdWFrvttlvADxfrsn2y9Necgvs8ooRNtCN+DImJOxvVFi4OOMY5/CByY1KUcBsVFz9+CxVuRcc9sihZOGXp864P+Z/xrGMOCpzlmcW40blz55x6nnLKKfojBD9K/A79MyzcZqmjPy2ekwAJFEcgQd6bTLUEeVvA4fOUYA78YQGHzNwG/BAGi56yOpmlDURp3ry5XstLyvPH5znYtzzyyCM9P5zgcxk+Y8LWJXQwS+3kZWDcJ3CXNj7NQfcV6gIiXKs3PsnDHX744Xp0/xBOBDR36R2z1Md9ipRZLS9+lpM0fF16aevrwpfq2K1bNyOz9+bss882+LTsVBHw+VdesJHZQNVEXvaBe/i0LbNMBnqy+ZzTX3afk/OFd/dhrQEO/d/v5AeMqq+gTFHqEuFFSy7/sL8ICMbf9/15rKv2ydJf/eWNOxdhzRs7YOkDbfDQQw+ZcF+Nix/2d88hnhG/Skw4XKmu99tvv8iksnAqpM/7M8065vjjpjnHWCuz0zlBRYhV1Q8s/Mvniq1jvvR5nwRIIDsBCrfZmRUUI6xfBx1GOGfeCnpbMkug1wjrdNzc8aWXXtLw8plOj6X8Bz3gKAebqHBffPGFQfmgI4mNGmBOKexcWOeftT5uAwiYSSrE5ePrTzNNff3hS3Uus9JGPtWbRYsWqYAIO754MTpBMiof/OgSFZaoW6n8ZJZXw8lMfKrwCOTaDm0CHdmwg4kquKgfec42sYuDH2uwxgAdY7+Dn+v7fn+cr4v2cXVGmWr6+QvXP+7a6bbjR03aH4GII7PwcUkm+uNHRthl5VRIn3d5Iq8sY46Ll+WIMRfWWfBjHjrlbryFXWi4sF3hqLSLqWNUevQjARIongCF2+IZliQFzIjhpY6ZOgh44Vlkd+1MCSFTDMSlcFg4hPTDDkItHARXlA+CDmZYYXA97DCT6HdZ64NFRnB42ZTbpamvKwOEs1WrVrlL7wjTSlEuqU1wDwusZs6cqWagMAMG7lgwCPunYQe7v7jv2ITvp7nu37+/9ilRJUkMDjuqqCsW76DtIOChrf2LvlwCWPgHhy8K5XDron2y9tdy1DspTQjdEKLgfve73yUFLeu9rJyy9nl/4ZFXljHHxc3yzGKR44gRI3SB48KFC/UHF565UaNGaXJR46LLxx2LqaNLg0cSIIHSEqBwW1qeRaUGIQczdVFWCq677jqzww47BGyeYjbML3iJDqPugpS1EBBiwluCvvbaa/rZGJ/nnHDlDP27T4UuH3xuxaf1sMtSZMWofwAAQABJREFUH2wDC1cOtYtwudLWF/FQd9EpDiSBGcsPP/ww4OcuktoEP14gPMJh5g0rtCHg4uUYZe7L5evYuDyyHKEucsUVVxhsvXrbbbdFRkXb3XLLLboyHpYc4GCGDC5cLsymPfnkkzqbHFZP0Qgl+Leu2idLfy1BNTMlgR3rRFdX2yWfWbeohKEWUoh93Ki0snDK2ufD+WUdcxA/7TMLtSCMtfiRBgs12B4ZzyJcWBVIPWP+FVvHmGTpTQIkUAQBCrdFwCt11GuvvVbNLp155pm6RSpmMTEjCsED23DCXJLf3Ffbtm0NZhs++ugjg2098bkbprmyOszSXXrppZoGTFlBEJIFFWr+CSZxnJMVxWq+CrsricUHncF98803NWyUqkKW+kCIxgwxdHzL7dLWF+UQSxAq5I8dO1brC/NtF1xwgZY1qpz52uScc84xUBGAkIiZcWxcgdmhQw45JCc5Z/4NZfA7hIWZLejtpnHDhg0zF198sUHeOKLP4EcRhOf//d//VbNvMBWGc+fQdrJQRnfSevTRR3UGF/FOPvlk1cFGv3DqCS5OqY7rqn2y9NdS1TUuHczUon9ARxcm+tBPMC7IYlNPAIuLW27/rJyy9Plw2bOOOYif9pmFakznzp1VveaGG25QnWgItdDBFYse4aIkXhdTx8SEeZMESKAwAvJirSqXsHoucz2LMQUGM03SIoG/yy67TMsQ9vebG5NPslZsi9qdd95ZV+vKbIKa2oL5sLCTWUALM1GiG2dlgZqVz5bhIHmv3epfEVKtzMRZ+QyoK+GxIl/09XLiwxyU2Lm1olvpmTMT4cfKC9ir61lnneXFy1IfEbCtCO8W1hecE31UL13HrU+fPmoGy127Yxq+Wesr6gdqwktmg7S+YmvUwlQarCW4fC+66CJXXJvUJiKsWlETsHvssYeVGV4159W+fXs1qyXCjJeGO8FKcazMFkHUeekRbZ7WWoI/Ilbpi1qE9hWZOda2Rv4iqFoRtv1B9Vxm5K38kFHLBggvQqf2EZm59cLG9XMwcnzcUYQi++yzz+b4y8yyl966bB8UIkt/9QrtO8Gz6OrrjlFWIXxR9Pl1Yd1RZhCVt+iC2nPPPdfKYlJ/FO88Kj+XRvgYtnzhJfLzSVRbIo0ol5ZTmj4f94y7fLOOOVmeWVirwTOJ8RN9HJZwREfZyo9Arx3xrIvw6107rm68SVNHVxceSYAESkcgQd6bvB6ykYe1atzkyZPViHyVVats7QMrCVArqAl1gHyVwEw1rEJgBXPWmZN8abv7lVRfV6aoI2aw27RpY+655x5z4oknRgWpSr/a0j5VCZ+VIgESIIFaRCBB3rufagm1qCGrvaj4HC12Jw0WP7nFM9Ve56j6Qb0Eeo3Qs6xLgm0UC/qRAAmQAAmQQFYCFG6zEmP4shLAbCV0fqdNm2ZgLaAuOuhYX3311fpXF+vPOpMACZAACZBAMQQo3BZDr0LjYsVvvj8sAEMYfP7GwiKcY+FRJbgWLVoYLGIK20wtpmxYjFep9Q3XC5Yx6tqMbW1qn3B78ZoESIAESKCyCFDntrLag6UhARIgARIgARIgARLIQ4A6t3kA8TYJkAAJkAAJkAAJkEB1EKBaQnW0I2tRywi4zRuc+gg2Liil++CDD8xRRx1Vq/SWscmA4+G2Yy4lk6i0nDoE8m3WrFlUkLx+sB0sJmnyhiskALbbRtnEZFum6OuCZaYCMnAmAuUeLzIVpsyB8SzBagq2HXfjweuvv17mXI3akXf5FToWlL2QzCA1AQq3CajwQoFZKjoS8BPA9sMtW7Ysqm+IrWDdvOHoo4/2J12Sc2z+gB2pYMy+lHrLhRQuCyvoGcOEHzYtqCk3ZMgQzRObiBTq+vXrp5YtLr/88kKTiI13++23673nn3/eYMOUtG5dsExTtiz9IU16tSFMKepcjvGiFOUqNX/sGHfSSSfp2CU2iM27775b8I/OrGUrxViQNU+GLx8BCrflY1vnU8aiNdn0oOo4QADDDlL4q2mXjyksTPTo0cMcf/zx5vzzz6/p4uXkty5Z5RSmTB677LKLkY0I1LoFdMBK5dC/7rzzTrV3jDSdoFuq9MuVTlIfrQv9Icx1Xda5trXF/fffrz82sQskyo5nCztwFrMFebg9quk6qX2rqZ6F1GX9QiIxDgnUZQKyi5vBNryV6LBN62effWaGDx9eEcWrZFalBISZ3549e5oLL7xQbRT7t8kuNJ8nnnhCt9ueMGGCadeunbnrrrsMtr4tRdqFlqnYeHWlP/g5VWqdK7FcEGThsL04HQkUQ4Azt8XQY1wSqCACmCG69dZbjWwbbbbbbrsKKlndKMqxxx6rO/1NnTq1JBW+7bbbjGwFqyome+21l/n888/NY489VpK0mQgJVCKBtWvXVmKxWKZaSIDCbZkbTfZgN4MHD9bPKw0bNlT9oS5duphJkyaZFStWeLn7w22wwQZm8803N0cccYSZNWuWFya8qACLhnr37m3wCxy/dE899VTzzTffmPfff18/TcN/2223NdAJXLZsmZdOeBHNCy+8oHqOCL/RRhuZgw8+2ED3ybmrrrrKU+z3qxlMnz7d899yyy1dcE8xf/ny5ZqOU9IPzzhBp2rAgAEGdm1R56ZNm+qsF3RGszjoo7k8cPSX8cknn9R72PnMuYEDBwbCr1mzRm+lKU+4DcILwd566y2D8mC3NbDcb7/91GYv2tyVsW/fvq4o3hGzrWjLxo0ba1tC19s/O+zaLIkpbBZDAArrj4bL/Pbbb5sTTjhB83FlwhbMcGkYINyPP/6os8O777671nOLLbbQPvfwww8b94IK55vEqlGjRqZjx45mzpw5SD7gsvY/REabYmFK165dzTbbbKOLU1q3bm1Gjx6dWp0kTR39BcUiGLjHH3/c713Q+ZIlS3S3vtNPP13j//a3v9UjBN4o5+93SSwRNy0b1+fQR7DAJt844cLH9dGo/vDtt996z4Xri2hvV07nhyNmxp1L209deP+R44UxUW0BRmF/vEuSxiXH1d//sox7Lr7L96GHHlIvt5jMv5CykHdk0ljn8k57TJM/0ko7bqQNF1W+fM+ai5PmOXHs3bMWxQyTJu4+joXKHln4uDoUfJTZnqpy8kKzAqMkdZIZMNu9e/eC01q8eLHdaaedrLxcrQhXVvQhrQgxdsSIEVrGUaNGadou3NZbb63hli5daqWDWdmC1UpHshMnTgyUQRYhaXzcl928rCwMsKKbp34iEFvcf/nll60ItPbmm29W/0GDBgXSwIUIQVZehLZDhw523rx5mo68wKzMElkRNu3s2bMDcRD2wAMPDPjhYp999rEiXOf4x4VHwE8//dTuuOOOFnWWmS4tq6yItZ06dbKyUl7Lk5Nggods16v1vPvuuwOhZOZL/WWADviLjqSVhUueX9byuDaQHyheGrKy3Ypwarfffnsrn5S9Oolga0Vwt/LjxgvrTlw6OLo2EIHcykIwK5+iXTDvmMRUPltrXa+55hovvP/E5QXG8qPJihBin3vuOVu/fn0rg2CmNhEB3YoAr/X84YcftF/LggzNH2n7ncs3H6sFCxZYWQRnW7RoEckqru5R/Q/PG8YBsBBBUes3ZswYW69ePYtyhh2eBbSb32WpI+LhuUWeIqT7k7HyY9GK8G/nz58f8E+6+Mtf/qLxXBi0T4MGDaz8QLTyA8Z56zGq3yWxLIQN2Bc7TrhCR/WHbt26advIAiIXzDsi33vuuce7zvqsehF9Jxwv/gMjqi1wx/nj6MalGTNmWBE6c8alqP6HsTxp3PM1ReDU5esfKxCg0Hdk3FgXyDR0ETUWZMk/7biRNlyoeIHLuDERgbI+J459EjMXphjZoxT1dhAS5L3JpZECXU4VcEyobGLp8ILHiynNHwSyNM4JVihT2GEwd8KtC3fvvfcGgslMl5XPyzqgQCh2znUwCIV+t+eee2r5n376ab+3Cti77bZbwA8XeIhRXwjCfocXI/xx3+/iHqQo4QLx4sLjnsxIaR5hYRSDCIRApJnFya9qFcjB1TkIXTIDbnfddVdliB8XzsknZHvHHXe4y8zlcW3gH4R79eqldZoyZYqXLk6++OILK7MZkQKbSwcCh9+dfPLJmhaEGr9LYir6thoHL+4o5/KST9tRtzMxwI+2Aw44ICedVq1aqeDsv+HyTcNKdstTTlE/BOLqHtX/wLNz587+Yuj5KaecokIiBFG/i3qhZamjSws/RtHf/A4vC/RDCAlpXdu2bfUHqz88+iyeS5m18XvbuH4Xx7IQNqUYJ1yho/rDzJkztW7nnXeeC6ZHmcm3O+ywg129erXnX4qxg+PFf3BGtQXuOP/wuCSz5znjUlz/Sxr3vMYMnbh8/WMFghT6jowb60LZBi6jxoIs+acdN9KGCxQudBE3JiJY1ufEsU9i5sIUI3uUot4OQ4K8R+HWQYo6Fjtzi5ktvBT8QlVUPknhRNVA0/ALYq6DhWdw5BOshsWMnN/JZ3orKgd+Lz3HQ4yHI8pBqEbZ8evPubgHKUq4QJy48LiHOmMWLSxk4B5e7MhbFhfgMrWTz406CwkBGQ4/FtyPCKQnqiDqjxcbhA3MbDuXtTyuDfyDMBgjH3+6Ln3UKUpgc+n4f7wgztChQzUtUTVwSegxiemVV16pcWQBUiCOu3B5iQqC8wocszA499xzNS9RedEZSfnUHUjLf+HyTctK1AciWcXVPa7/+cvgzm+44QYtd1jQjHqhZamjSx+zq+EZYHcv7RFtjr4Ufo5F5UPLjh+xfpfU7+JY+uO78yQ2YB/lsowTLn5Uf8C9Nm3a6I9Af/9E2JEjR7qoeszSTwMRQxd1fbwAjri2cP7hcQlfADHG+celpP4XN+6FmsK7dPn6xwrcRJsj36h3adI70t+XvEzynESNBVnyTztupA2XVNy4MRFxsj4njn0SMxemGNmjFPV2TJKEW+rcyhNTDgd9GhHcDIzRy8Mfm0W+cDJLrHFlkMlJI2zDVIRFIzPQqgPpDwy/OLNV0PGMcltttZV6y6/vqNtF+bk6o0zyAAZ0eaDP89JLL2n6MGCfxZ122mmq7ymfMDUaVpfDD3YTwUBmidVfhF61UQszKnClKA/SgF4z2tulq4n//A861EkOHPwObQkX127+sO7cbXwgs1zOK/IoA2KOf1YGMjusZqoWLVqk+troi/JDQk1i5SQe8sjHyvW9ULRMl3j2YDECerZgj36FP/nRoOnIrH7e9AqpI/RZoS9YjINeLfoS2smVG0dsygH3xhtvmH/+8596XgjLQtjUxDgBSxNol/Hjx2vdFi5caJ555hkjnzH1Gv+y9lMvYsRJXR8vIpDkeIXHJayNgHPjUr7+l2/cy8kwwsO1edy7NOkdGTXWRWSR6JU1/7TjRtpwiYWLuenKXMg7Ng2zYmSPctbbj4PCrZ9GCc9llk4FNyyiwYsqzuULhwVCcFgUUw4HJXn5FZSTtBNq/YIGBK5Vq1blhMWikCiHF3KUQ53xssQCMwhiyD/qDwvbsjjRjzZY2AShFor0ok+qi7sw+GFDg6eeesrIrK6RWXAVel3apSgP0sCPGLQ3jKOHneMZ9s96HccU6WDxIByEl6wuKwOUAwsY5XOyQftjUQLaUHSxjMy0JWafjxUWU0W5LP0Ptn5Ft10XU0JIwiCP8okqkCaN83wuax1lVknzcO2QL/2o+3ge8CMMCzqjngkshoRzNm8LYVkImyzjRFIfjaqz88PCpebNm5uxY8eqEHvTTTdp+/knB7L2U5d21LGujxdRTLL65et/pRj3kAeE7Lh3abnfkVnzTztupA2X1CZxz1opn5Ok/Au5V4p6p8mXwm0aSgWGgWkguCjzPfIJzsgnHr3vwoVNCOHXF1b7Yybo8MMP17Cl/ocBA6ug/e61114zoo6gq+79L2qcix6fP6jaVP3www8Dfu4Cq2b9wrDo/RrY7ISDEIRZLr9VBhfvuuuuM6Jnp/edX5ojZhXwgoS1hcsuu8zIJxRvFg2CGFbxX3HFFSrgHnLIIYEkS1EeWLeAgxUJv8OsOwSsUrgkps7Q+ccff1xQVlkY4McJVkjDyad4tUrgVt2G+3FUYeJYyScxg9W6US5t/0M7o1/hByGsccAKh3sJyOfOqKQj/bLW0T0brh0iE83jKTqOBpZHRJ85MuRZZ52l/vj64OqShWWhbLKME0l9NLJSP3vixy6M90MggmCLLYTRfmGXpZ+G4/qv6/p44WdRzHlc/yvluLcu35FgkyX/tONG2nBJbZP0rJXqOUnKv5B7pah3qnxldqCqXIIORuZ6Fqtz61ZYykvZPvroo6ovBD1S6JxgUZqY09AyuXDwgwI/9Ir81hLCOpRO7yWslyQCsOqchiuKBS3yqSHsrQvG5BexWg1wK2KTrCXIjleq94SV3NArxcpmMSmlOoZR1hKg74r0RfjVxTRY6S1biGo5oLMju8/YnXfe2UKBXWb/LHRhYd1BHlgbtQgvpwIRHqiHdHz986/ax+Iypxt20UUX5cTMWp6oNgAPrIr3W0uQHwqq9wvLEPJrOiffqHQQCGVEPcKL/ZKYyuyklZn2SIsWSDMuL9yDy8IA7Yp+Bd07EXw07h//+Ects5hy+k+CP/+PyjeKlXxut+jDqEMUqyz9T368aFmwyA6L8tD+MnOvi5PAFSu//S5Ozy5tHZEWVvQjbVji8Lss1hLEBJxFmZOcmJfTfP72t79psKwsC2GTZZxI6qMocFR/cPXF2Ie85MeIFbUB5x04ZumngYgRF3V5vACOuLaI848al6L6X75xL6Ip1Csu31K9I+Py9ftHjQVZ8k87NqYN5y9b+DzpWcv6nMSx9+cZFyaL7FGKersyJch7XFDmIEUdixVukSaUs+VToloswGITCLqy77uVmbxAluFw6ADoMDAL5RxMCTnBzR1lhtJCIHXX7ig7Gdlnn302x19mLl1yKtxCEIPAibwg/MHUC17oWKUcdhBAYcYDdUA4LFRD3ljQ4/L1C44ys6dmkSBYy+dGK7o2gSQhzIoNYBVwwQbmsmAKKix4BCKluGjZsqUKMRD2/M6teIUQFeXSlAeCi6urO/bp08dLDj9KsFAFprwgpMOiAKxXYOU+rp2La0vcd+m6o98cXT6ml156qZqLwkp556LyQtpRLg0DxJPZcdu/f3+7xx57aL0g1ItNSjVb57hnYYX+BNNn+BEIE22u7jJT6RUzS/+DQIvyod+hb+GHI9r/4osv9tJGv3WLqFx+OOKZSltHr3ByglXjeJ7ka4XfW58BLGAML2LzB8KPXn8ZMPaE3f/7f/8vEAbhUS84f7/LxzItG5e/e9mnHSfi+mi+/uDyi1tM6e7jmLaf+uPEndfF8SKuLaLGCvc8+Psnzv3jkr//JY17cW0QVR7kgfI4V+g7EumkcUljAeKnyR/h0oyNWcIhbJyLe9Zc+DTPSVSbh5lFhSlU9kjLx9Uh6Zgk3K6HiFKRqnHY2x2fpqusWmVpHxidlwdWd1UqSwZM1COAzQ7wGRnGr8vpoG8rq+l1wZzMgpczK6btIyAz2AaqRljMKD9efXdq/ynHiZpvw5oaL8pds2qpR7k5Mf3CCCTIe/dT57YwpoxFAjkEoGOGBW1hawXvyy4/2G0srOebk0AJPGTGX3e2Elu7BqtS6cpPABYjoN92ySWXVJ1gW356dTeHShgvSkG/WupRChZMo3IIULitnLZgSaqAALY/ls/hRj4zq1kjmGzClwSYTrn88strpIaYQZSd68y0adMMVvDTlZfALbfcYq6++mr9K29OTL3aCFTCeFEKptVSj1KwYBqVQYDCbWW0Q42Wwu1LjU+pWOGNleTDhg2r0TKkzQxly/cnC5nSJlfWcFid70xj/frXv1b7qrBNKjp9apdUFs+VNX9/4i1atDCiv6pCtd+f56UnAOse1aaKAEq1aZwofauWP8VKGi+KqW211KMYBoxbeQSoc1t5bcISkQAJkAAJkAAJkAAJJBCgzm0CHN4iARIgARIgARIgARKoHgJUS6jgtoQRc/dJ3m2tWsHFZdFKQMB9Cka7N2vWrAQpljYJWHuAqkVd1OUVM2JGTM+UBCi2aHbPdviIZ32vvfbSBYG0+vJf9YhKfSZK0iEqMBG+f0rfKHHje5x/6UtQd1KkcJvQ1mK3U00qJQQp6y3o8eHlJnY/y5pP1sSxvSz0SMXgfNaoDJ+HwJAhQ7TNxbZoTsh1zR07v+277766lXF4b/GcwpbAY13XN1yFfv36qUWEUiwMRN1kgw7NQgyja5vjWceuhNg2Gnxl0wojdqPDxahz10nPRKXDqLQ+nIVXpb5/stQhbdiaaqe4vhznn7b8DJdLgMJtLhP6CAHMLMkmDZEs8BIWQ/36FxmAnmUhsC65Y6a2R48e5vjjj1ehqywVDCVayvom9edQtrGXsqOeEWPzahUBul7lcNgSFnZlsb1uvXr1zKhRo8ySJUvKkRXTrAECldaHa6DKtTKLUrZTrQRQhYVevwrrxCqVmYDsZKZ2W8ucDZMPEViX3GVLWAN7lsOHDw+VqnyX67K+cbXCjHrPnj3NhRdeqLZtZUvpuKBF+cvOakZ2AlRrJrBqIlv4FpUeI68bApXYh9cNicrOle1U2e1TSOk4c1sINcYhgTpEALMat956q5EtYc12221Xh2oeXdVjjz1Wd/WbOnVqdIAS+YI7HPXtSwSUyZAACdQZAhRuy9jUa9as0QUoXbt2NbAFKHu+m9atW5vRo0dHftKXfaLNMcccY7DLVKNGjUzHjh3NnDlzIkuYNu2wovoLL7ygOrz4pSp7gOuM0Ny5c708XPjly5cb+LvFLm6G6sEHH/T8cG/lypXm22+/DfjB/6qrrtI0UU6XBo6Y9XJO9rg3AwYMMC3EJis+xzZt2lRnw6DbmdVBVxGzitjuEfXCTmH4jP7www+btWvXesml5RauJxZSYTMGcGvSpIk59dRTDQyXY/cx5AN/zLRBL3PZsmVefo4n6o4FYvn4exFDJ+HygDtc2B/lQTkbN26s5YReNHZHCzt/XwOv/fbbT+3idunSxWuvvn37ajTMHH7++ecmrAdcaN1kv3MzePBgg8/8aPfNN9/cHHHEEWbWrFleMcP1KrS+roxx/RkZpu07rnBQG4B7/PHHnVfJjx9++KFZvHix6t5iO2W/S/vcpK1XbX0mHJO0PFx4/9H1j6zPZ23vw34G7tw/JsS9f7KO9eHnOM34VNP9MVxGN9Y4Lv62btiwoY7jGCcnTZqkW6ojXNoyuzTTHLOyTpNmnQojswNV5WQ1M6Y7SlInmamy3bt3LzitRx55RMtyzTXXWNGbszII2zFjxljRpbOiQB5I95133rEikNjtt9/ePvHEE1YEJLtgwQJ72GGHWRH+rDxUgfBZ0kZEEUysDFi2Q4cOdt68eVYU6K0IWlZWZVsRMOzs2bMD6SPsgQceGPDzX8giGK3bihUrPO9u3bpp3d59913Pz50g33vuucdd2k8//dTuuOOOduutt7YyA6b1ff31122nTp2szFRpGb3AKU5EELPyo0DZ/fDDD1Y+oStj9AURmrwUsnJz9ZTtVa3s+qXc7rzzTq27CGQW92VhkJb/5ptvVv9BgwZ5+bmTrPwRHn0h7Fx5/NwRxvnj6Np3xowZVn5Q2Xbt2gWSieprYC8DtpUfGDl97a677vL6cSChny+y1E0ENrvTTjtpu6Mtli5dat9++20LviJg2IkTJwaycPUqpr5IMKk/p+07rmAoM/qV/Ph0XnoU1QErP6rs/PnzA/5xF+g3SAd1dG7VqlXan/Ds4blEX/O7LM9N2nrV5mciCw8/x/B5XevD4fpHjQlJ75/DDz88cay/++67A1m45zjN+LSu+qMro3+sceOVTE5ZlEvWHui7ZcSIEfrsik681jNrmePG9yj/rKwD4Kv8IkHem1waKbCCACZUNrGU9evX186Kl02+PwhkaRw6fOfOnXOCnnLKKbZBgwb6Ync3e/XqpflOmTLFeelRdhBTYSNKuE2bNhLCQ4N64YXqdxjA4I/7fpckDCBc1EAgu3NpWuedd54/KSuzz3aHHXawq1ev9vxPP/10DRseBDGYoK777LOPFzbNCQSmAw44ICdoq1atcoTbLNxcPSGA+53Mpmn5n376ab+3Cm677bZbwA8XWflHDXJIx5XHPwD7/dHn/E5myrWc+GHlXFxf++KLL6zM4uYIt6Jvq2mMGzfOJRE4ZqnbGWecoWnJgqlAGjJbYkXlQYVx/DBxrhT1RVpJ/Tlt33FlwhGC+K677ur30h9mMgud+oeZE26jxhtRfbBRPxKzPDdp65VlnEKFXZtUwjORhUegsUIXdbEP+xHEjQlx7x/5aqHPcdRYjx/l+JHmd67PpBmf1lV/dGX0j61uvIJcEXaYzPELt1neK3Hje5R/VtbhclbzdYK8R+E2qeGLnbmNS/uGG27QgQEzbM7JZ231w4xt2IkqQ47AEQ7jrqPSxj08NHjBRzkIFXjBYhbEuSRhAGGiBgL4t2nTRgWkr776CpfqEHbkyJHuUo+YZcUMNmbBwq5t27Zano8++ih8K/b63HPP1TiiFqAzZ/KZKDZs1I04bq6e8lk+EE1UTTQ/+dwd8BcLExZtGXZZ+UcNckjTlcc/APv9/YIh/DGLjLYV1QJcqkvqa2Af/iF15ZVXahoTJkxwSQSOWeqGdkd5MAMSdqLqoffuuOMO71Yp6ovEkvpzIX0HP06jZta9gqc4ccIt6ujcxx9/bEWtRDn84Q9/cN7eMctzU0i9vIzkpDY8E1l4+OsWPq+LfdjPIGlMiHv/wB8/hsNj/Z/+9Cd/0nrunuM041NO5J89yt0fXRn9Y2vSeBVXTr9/XJnjxvc4/yys/flX+3mScEudW3nTlsuJ4KZ6oNIxVa8Qel34Gzp0qGYpn8/1CN046Gli4QhMFoXdVlttFfYyadP2R4QeZpRz6cvMXdTtTH5YRY56jR8/XuMtXLjQPPPMM8bpb8IT9UX5YU5MBg9Px9PxeemllzSufCrTY5p/Mqto5BOuWbRokeoUw06o/LJW003++IVwQ/ywXVeYaZLZftXv9acPP9QrytUEf/D0O+i0wrky5etr0H8NO7egSWbew7e86zR1c+2O9ORl6sV1J/JFRE/lBei88h7z1TdvAhIgbd/xpwUdO+jQl9qJwKy6fNBHlhejEVUYLwvHL+1zk7ZetfWZyMrDAxlzUtf6sMOQb0xw7wcX3h0HDhyYM9Y/9dRT5uyzz3ZBco5pntd12R/9BXb9K2688octtMz+NJLOC2GdlF5duEfhtoytjIVGopuji4wg5OGlJL+k1HYlssU5nMyU6cseiuwwJh12UXYu06btTwuK8S5Pv78Tav2DGATNQhwWM8GM0dixY1WIvemmm7T+fmEG9cWLBIvUIDChTFF/WcwfobxY5CWqEbrADYsEkKbochqZNfaqUgg3L3KRJ1n4F5lVbPR8fc31BX8CWCgHhwE8zqWpG/LGyw393L/ozqWJRWtwWHxZapfUn9P2HVcm2PxF33JcnH+pjniZip6+5oFd0ZzL+tykrVdtfSay8nAc4451qQ/7GeQbE6LeP4jfp08fgx+k/rFe1ER0Isefftbzddkf/WXNN175w5a7zOVi7a9DtZ1TuC1Ti2KFPqwN4EUNiwCwBOBesPLZIydXrBaHmz59euCefPIxsuAm4Jc1bRcZQgVW6/vda6+9ZkQdQVfC+1/WWEEvelNeUNEjNfJZ2ruOO4HAesEFFxgISRBssYUj6h92EDox++W31ODCXHfddUZ0dPW+88t3hLCM1b5w8snYwEKFWwXrTDYVyi1f3mnvZ+GfNs1CwsX1NcyY4kdY2P3yl79UL/lkHr7lXaetG8xowbk2cQlgluTJJ5/U2VBZQOG8S3ZM6s9p+o6/IKKHqJeOi/9eqc5FB9KIio8ykYWBXrJZnps09artz0QWHh7EmJO61IfDCOLGhKj3j4sL4U90br2xXtZP6Njv7hdyXNf9MVxmN1499thj4Vv6fIral1rjyfKuz0kohUc5WKfItnYHkRmIqnIJOhiZ61mszu0hhxyiunNYkIMFPVjFL59tdHGV9BqL1ezOYfEIVlpDj89ZS3jjjTcsVkrKjGqOHmSWtJEHdHlk1szKVr7eavokawlQlkd4MUmk4UVotW+++aYrbqzuJwJAnxJxRZi3p512mhfHfwIdVvn0anfeeWcrA4cVsydWZk4sLA5AjytKgd8fP3yO/GBpAbql8pKySP+Pf/yj8hezZF7wrNyi9LCQGNoFixDDDmWI0m3Oyj9O9yquPHH+sn2rMvAvJIzqa/Ijx6LNYcFCBtJAteSLg/bBOOsZWermVh9jUSYWjqCv+K0lhPV64+oV5x9VX1QmqT+n7TsOCqx+4PmV3cqclx5LYS3BnyAWbCEf6EGjDeCyPDdp61Wbn4ksPPxsw+d1rQ+H6x81JiS9f1x8vNdgkQVjPZ7JOJfleV1X/TGqjG68kokf++ijj+p4hbUg0GfHGCYmIrXKWcscN77H+SOTtKzj2qAa/RPkPS4oS2rwYoVbdMb+/ftb+Uyv1hHwMGD1pXxq1JcWXlx+qwB4yYudWyv6nZ4JJzxQEEgRFn9nnXWWFjlr2u6hgYAKwQwLCDAoQRiDNYOwk1lQNXUEQQ3ldyvl8UJ3ZXFH+WQSjm5Fr1jD+RcyhQNBmBV7pyrgYoEOzFDB9Jlf6A/HibsW27jKeo899lDhGD8U2rdvr6alnGCAuGm5wZyTq587XnbZZWo+zV2747XXXmufffbZnPBXXHGFV9y0/N0CBJc2jsg3jntcOZGxPw2c+83a+fsafkzA0gQsP2DFL67D7tJLL7X4gYPV02GXtm4uHhagiA6ZWpZAu0MIQ5+UmVsXpOT1jevPyDBt33GFw8ryqBXhMA2W1loCnqtw+2AhWdhhgaIL535cpH1u0tartj4TjlVaHi581LGu9eEoBv4xwZkQjHv/+ONjES/6aNhyDMIUMj7VdH+MG1tdHcPjFQTdE0880cpXLhck9XslbnyP8/cy+PkkiXU4bF24ThJu1wMA6ZhV47DnO/Q+q6xaRbcPDM/jE1PSp+WiM2ECsQRqC39sggG1GWxa4XfQt8VmAtgUQmbX/bdMbalboNAFXmBDC6gLyOytkRdcgakwGghUUr+ppLLUtt5x++2366JM/+LH2laH2lJesg62VIK8dz91boOseEUCVU8AurXYwS1s/eB92d0Mu5nJJ7YcBjK7akSNwIgdZn2R5QSoAx6wxAEdz0suuYSCbR1ob1YxHQH82MWOg3TlJ0DW6RlTuE3PiiFJoGoIYOtgUZkxoj+m5nz++c9/6hcPmDy7/PLLI+uJGUvMzkybNs3AYkBdc7fccou5+uqr9a+u1Z31JQFH4NZbbzVYaAXLPhC2MJaccMIJ7jaPJSRA1oXDpHBbOLtaEdPtnY7PqVjlDYsNw4YNqxVlRyFR3nx/snCsYutTifxhwcOZTPv1r3+tpnuOOuoo07JlSwMhVxb5xfJs0aKFET08tftbiXWLLXgJbsCKB1URigdZSf2mkspSPNmaSwGWaGAT+69//ataxIGVHLryECDrwrhS57YwboxFAiRAAiRAAiRAAiSwjghQ53YdgWe2JEACJEACJEACJEACNUuAagk1yzs2N/d5DJ/gmzVrFhuurt7AZhBOPcFtB7suWMCKAD7hO51T7CAl5kiKKoqYbPLq5uq466675qQptoBzwuUEqhAP9ufsDVEpfTx7yRmDBEiABCqLAIXbhPYQO6lq+ighSMluDRkyRM2Xib3FkqVZTQlB1xHm3cTmb061sLAB+qIwU1VOByF03333NWKLV3VOkZfYHdTV83GLsNKUB2aIUDexYazBxa6tEaPqOVGx4xTCQbiG/ifOa6ruOYXJ45HUnyu1zHmqVPbb67KPs03K3rzMgARIoAYJULitQdg1ldXGG29sxPh7TWW3zvOBkCcbNehfoYXJxwwztdg//Pjjjzfnn3++l43ssmbECLiuoIf+TzHut7/9rUa/8847Y+uCbY1lBztz6qmnathS1L2YMhcStzaWuZB6ljJOKZgl9fFSpF/K+jItEiABEiiGAJc4FkOPcSuCgOy2pvZZy1kY2ULZwD7s8OHDc7LBbHvPnj3NhRdeqHZQC105LDtQ6Qz0O++8o9YMMEMcdhB8u3TpYmSXHL1VE3UPl6HY69pY5mLrXGz8cjMrd/rF1p/xSYAESCALAc7cZqHFsHWSAGa1YG9QtmM22223XSQD2H3E7m9Tp06NvJ/WU7Zn1qDYiSbKwd/N8Ebdpx8JkAAJkAAJ1HUCFG7L1APCC2peeOEF1RfFDMlGG21kDj74YDN37tzUucv+6boLDD6Db7DBBmpj8IgjjjCzZs3y0nB5Ll++XNN2i5OyzCS6NNzCtnzlhg0+lw+Osj+5GvRu0qSJ549tf+Fkz3AzYMAAA1upqEPTpk11phO6rGH31ltvmWOOOcZgZ6xGjRqZjh07mjlz5oSDmXD+K1euDITxc2vYsKEu1sPM56RJk3SbWVffJGawEfz555+bJH1o6M3CPf7444H8s16cdtpppl69elovLCDzu+eff95ALQHqEXBJdf/xxx91lhnb6aK/YUcyxHv44YfN2rVrNf5VV13ltZFfjWX69Ome/5Zbbqlh3b81a9boArquXbsa2MuVPehN69atzejRo2NVKVxcHJPKDJ1if1/yn4OJf+voLH3Jnz/OXZsjfSzerOt9PKlNwMv/DMWNPeE0sNsdtkFHm2IsgD48dr/zuzR91B+e5yRAAiSQmoDMSlWVk5XrVipfkjrJTJ3t3r17UWmJQGRFOLMdOnSw8+bNs7Jww8rL1O61115WXhR29uzZgfQRfvvttw/4LV682O6000526623trIFql26dKkVIdLKVqBWXtB24sSJgfDITz5xB/yyXmQt99FHH63cO3XqZEXgtiIs2ueee87Wr1/fiiBiP/30U7vjjjtqHWR20y5btsy+/vrrFuHF+oGycWWUz/JWXorKQfRLNeyCBQusfKa3IhhbEVJdUO/o8l+xYoXn57iJEKbcRG/WimqBHTFihJZ11KhRXtgkZnfddZeGv+aaa7zw4RO0CfqdCOGBW/IjxopgaefPnx/wT7pAPZHW+PHjA8FkRzE7cODAgB8uouret29fKz8MLPj98MMPWm9Z5KXpon38Lq7u++yzjxXBxB9UOaJsYLFkyRJt2zFjxlgRPi3SD7uo/owwUWVGedEv/O7KK6/MYZ+lL/nTCp+zjweJRLWJe4bSjj0uDRzdeDdjxgwrP4Jsu3btAhlm6aOBiLwgARIgASGQIO9NLo0UWEGYEyqbWEoIYXhpp/nDQJ/W4QWKNF9++eVAFAhr8Md9v4sSBuRTtYa99957/UGtzFJa+UyuLw4Ibc7FCSvufppj1nK7l9pjjz0Wmfzpp5+udbj77rsD9/HyhLAKQcq5Xr16adgpU6Y4Lz3KDmsaNq1w67ihT4Rdt27dbFrhVvRttTzjxo0LJxO4xg8NMeEV8IPwLjv5BIT3QICIC7Qz+oZfGICACuEP/SbsHHu/YI8fQwcccEA4qG3VqpX++PDfiOsvccJt586d/dH1/JRTTrENGjTQH17+m1H9GfejyhwWbtFuYIp29LssfckfL3zOPh4kEtUm7hlKO/a4NPAj3O9EJ137NH7oOpelj7o4PJIACZCAI5Ag71G4dZCijqWcuY1KH4IphBjMRDkXJQzgpY9wmHkMO1k1r/fuuOMO71acsOIFSHGCciCdKBdVbvdSExWEqCgqmGF2DzOcYde2bVutw0cffaS3RHVDr8OzeLgpn8BTz9wmcQuXIYmZmz2cMGFCOFrgGsJdeNY9ECDlBYRUzFyjzTG7Dfe3v/0t8APAn5Rj7xduzz33XI0vpsp01ljUCfxRAudxdY8SbgMRfRc33HCD5ofZOr+L6s+4H1VmfzzM+mNGHz8O5PO1/1amvhSIGLpgHw8CiWqTpGcoauxxafh/bCOXQYMGaf8QFR8v0yx91IvEExIgARL4mUCScEudW5Egyu2gdxblttpqK/WGHmWcg16aCIQGGxdAXzfsZBZZvbCSv9SukHKLoJRTDFcHmOuSl2WOXuVLL72kcWAlAGFFqNX6wnRR2DlmYf/wtcszjls4fNI10oBbvXp1UjADfVTooBbrkB9snsLddttt3vHMM8/U8zT/ZJbZwLLCokWLVNd70003NTJbrWbL0sSPC4O+CIsR0LPF3vLQW8Xf0KFDNYrMMMdFTe3/4YcfGhGSTPPmzc0//vEP1c92kV27pulLLk7SkX08no5jHfcMJY09eM79Drq6cGg358rVR136PJIACdRdAhRua6DtsSBDfmjk5OSE2iSBDYug8KLAQikIfWGHhU5wWNzjHISNUrhiyu3PH3WAEIGFbRAQwSLqD4vsEBZCPOoLw/JhJ3qeYa/I63zcwpGSmDmzWxDs4hzs4KJOLmxcuLT+ziKCzNjqhg6is2tOOumktNFV4IQt3JkzZxosTMOCH5RP9LTNyJEjA+lgsdaqVasCfrgIL2iDHxalic6ybl6xcOFCFVaQrqh44LbmoScF/kMfx+Ij9JNHH31UF8L5k8rSl/zx4s7Zx+PIGH0W/z975wEuRZG9/SMgiGBAVAwIGAARYU0giK4EEVERMS8YUcJ/TYgiCoj7mFjFNaCuBHdVdhW9uKuLICKy6CcSRAwgKEYMqIAgLqIEtb7z1lq9PT3h9sz0zJ3w1vPc293V1VWnftXTc+b0qVPpPnuS1xZ/Bp+5sPdo/NXMIQESIIHkBKjcJmcT2RkoapiR7U9LliwRdUewM/ArU4gQZgopGGYKlpVZs2ZZa2G3bt286jE73q+sNG/eXPSVunc+7E62cvvbgVIFy2aiCBFYbatRo0b2PK5BFAgkzNr3J0RdQDSGsMlxUz/guEsOPfRQ0VelXn4qZgcffLAt55+t71346476A9s9VzZ4Pt3jtm3bykEHHWSjI/Tp08daMmEpDZvwYwIRJ5DUXUIQ3cDNaA/eR7j/nPyufrwJgAXVnxBlAeOHH1KIeoFoF+5HgbpE+ItmtI/6YbGG3P/4xz9E/YO9ehBHGPIjpXMveRUk2eE9nvq54D5DwXsm2bMnCeaE2encowkrYCYJkAAJJCOgVpeSSil8MNLuZ1Q+t2r9MLpsrDd7ONtoCfC99UdLCPqCYrIU2lTlxLapFlOzbNmytPoPf8R05Ha+dn6/T3+DamE2GsbM7LfffgaTztQqaNRqZsaOHWtUsbSzHl15XXrWRhiA/6qLlrB06VKjCrxRK3don1s301uVN6NWQOuzDL9e+PphUuCnn37qmjSpmOmrVNtuqggUjz/+uPUp1NXKvDqxk0m0BFeBm8imn12jIcZcdtw2EXuMHfxV4eOoCpwB/z/84Q9WRg0BFlOHrrhm8++77z4brQD8zzrrLOs/HIyW0LlzZ1sWsmFyECa6/fvf/zb648TmY2a8P6Xjc3v55ZfbOjSWr78Ku68rwxnHNp17Ka4iXwbv8djnQqL7yH2G8HnBJLHKnj2J6gDyoUOH2rH1T6xN5x71DRt3SYAESMASSKHvcUJZqnskKuUWShqUSyhnmCyFsDhQPDRuq9e8m5ADRcb9DR8+3DuPiVoIA4UZxpi4hC8G1KeWW6+M21HLlw1JhYlC6rdoKpvl767zb51SUpncCHHl5PVv/XW5fSizgwcPtgou+qCWPxveK6gQoTyUd41za9RX1AsjBAUVPxJcOxdffLFVeNyx26ql0zVpgtyg6Kp10Ogrda8MdipjNmzYMIMfCYjYkCghwgPGWS3mMacRGizdaAmuAigWaBNjqFZNl+1toey5Prut67vGDjYIHdaiRQv74wHhyNq1a2fDxkFZ9yf80EBYJrDBvakxb224Okwoc/VCOUGCQot6IRPGEEoPZtRfd911Xllcl+x+Tibz66+/7l3v2gxunXILOdK5l1A+UeI9/t/oH8nGxDELfoYSPXsSPQfc8ys4ji68Yjr3qJOFWxIgARJwBFIpt9ugkD58SiZVVFTY4OGF0i0E98fr9FSvtAsRfrHKnSuW8Ldt2bKl9QdVa3NMM1jkAW4Oar31JoLFFOBBQRLgPV6Qw0KhSIAESCAUgRT63mT63IZCyELlTkCtVaKvZUVj7wpmebuEaATwAb3++uup2Doo3JIACZAACZBAFRKgcluF8Nl0cRGAdVZfn8v06dMF0RGQxo0bJ7feeqv9K67eUFoSIAESIAESKE0CVG5zNK5u/Xq8ssZMdMwqHzFiRI5aC1ctZKjsD7FlUaaQ5A7Xu/yUatKkiQ1RhbixSIj04GLS5kcCtpItgUL8bGbbJ15PAiRAAiTwPwL0uf0fC+6RAAmQAAmQAAmQAAkUAQH63BbBIFFEEiABEiABEiABEiCB7AnQLSF7hpHU4F6VwiWgYcOGkdRZ7pWUClONxyunnHKK5+erYbdEQ6BkNbwahinOReWAAw6IqxOrlAVdWeIKFUhGqYx3geBMKgY5J0XDEyRAAgVCgMptioHQuKA29FOKIpGduuaaa+zSpRp7M7I6y72iVEyxtG/Tpk3zNr6ZjgWU0COOOEKOP/54cX6+/fr1s9EZbrjhhkyrFYTBQrg8jRVs69CYpHaZ32CFWEUK5aBcw78Y+4XKrhTGO8i/EI/J+b+jUqifg0K8ZygTCeSbAJXbfBPPQ3uYFKaB+PPQUvE2ASVNFzOwf4XaC0Rk6NGjh+jqXKKriHli6kpvooH3bYQG+Bxlky666CJ7+cSJE5OyWL16tehKcXLeeefZssXALsikGGUO9qEYjsuJc5R95TO7GO5uylhMBGoUk7CUlQSiIqArxclHH30UVXU5qUeXuJWvv/5aRo4cGVc/LPxnnHGGXH311TbOrq5kFlcmTIYuKWwt2B988IG8+OKL1kIcvA6K73HHHSe6gpk9VQzsgn0oRpmDfSiG43LiXE59LYZ7jzKSgJ8ALbd+GtwngQIhAKvQQw89JLoEtOy1114JperVq5dd+W7atGkJz4fN1OVzbdGHH3444SXIdxbehAWYSQIkQAIkQAIFRIDKbY4GIzjpYuHChdKlSxfBr/3tt99eOnXqJK+++mro1teuXSuDBw8WvJKuWbOm1KtXT7p37y6zZ8/26nBtbty40dbtJgKla9XbvHmztRYeeOCBVtZddtnFvh6fMmWK/Pzzz157P/30k53Y1LVrV9ljjz2kdu3a0qpVK7n33ntjXnE/88wzMZOSMEHq7LPPtizq169vX3d/++23smLFCtsOGMFKCN/SDRs2eO25/rlJd5kyDcqzadMm20YwH/JATvidQs6TTz45obX3vffek1NPPVWwihnGtm3btjYWLqydbgwuueQS20ZYtogzvGrVKknlgw2/WaQZM2bYbab/zj//fKlWrZqg/5hA5k8LFiwQuCXAPQIpyMixw7kwfbvllls8Jn7Xmeeff97L33XXXVGdl8LeZ94FgZ1UMmNs3RgFt2DiXzZ7zZo1csUVVwhiHeMzuNtuu1mrOfyiw6QwfFBP2P4G+1XOn6tE/DN9XoR51gbZu89BML+yZ4iTMdUzO+x9k4gB80igbAmohaikks4iNzqYkfRJrWbmpJNOyqouVU5MnTp1TPv27c3cuXONTkIwqpSZ1q1bG/2CNC+99FJM/Si/9957x+R99dVXZt999zUNGjQwugSs+e6778zy5cuNLvtq9AvZTJgwIaY82tPXzTF56RyoImZUUTPqZ2l++OEHo6/GjU4isVxVmfaqgixgfdttt5l169YZ/fI3Y8aMMaoU2PJewV93evbsactDbl3py7LQV942TxV1g/NvvvmmUYXWjB071uZfddVVwWpMFExRqZPnxx9/jGnD5WPrxmzmzJlGlXfTpk2bmLL6Ot+ogmTHDLwg+zvvvGNUsTWq/JhatWrFlA/L9m9/+5vHNqYC3wHuA/A/5phjfLnG6A8noz9IzLx582LyUx3ohDVb15///OeYYgMGDDCDBg2KycOBY+RnF7ZvuD7ZPXr44Ycb/SGBIl5K9z5L9BlCZYlkxn2OMfOnm266KY79l19+aRo3bmw/g2op98b52GOPNdttt529T/x1JNoPyyfd/rp+lfPnKhFvl5fO8yLdZ61j7/8coF2Xj21lzxCUT/Z5wLmw9w3KMpFAORFIoe9VRKMFFhDNFJ1NKWX16tXtFxqUhcr+oGSGTXiwoj4obf60ePFim4/z/pToi1lfG9uykyZN8hc1ai0w+sraKl1QQF1K9aB0ZVJtoUgfddRRcUWaNWtmgsptx44d48qde+65Ztttt7VKuP+ke+BDOfCnli1b2v69/PLL/myr0Ddv3jwmDwdRMEU9Tp5kX0xQMvxJfVytnFDiXTrzzDNt3lNPPeWy7FatnUatuHHKbVi26m9r633ggQdi6g0e4MeNhvCKyYbCpZb9UAqXuxD3Fu5Tv/KOHzZQ/nCvBlMidmH7hrqS3aPJlNt07rNEnyG0mUjmoHKL5weY4jPnTxdccIHl89hjj/mzDZQh/ICB3JWlsHxw36XTX9evcv5cpWKfzvMi3WetY5/NMwSyJ/s84FzY+wZlmUignAik0Pcq6Jag3+hIeBWoN0XMH/wd1XIbk4cymOSTTtIHlw295L8Gr+/hS4nXz/oF6T8Vt4+Z8UiQxZ/0S9W6OuiDNetX0/56TzjhBFFrg/Tv31/mz5/vuSKotVj0S9critf0frcId0K/TGTr1q2ydOlSlxWzRWgrf3I+pcF8tWCLWsz8Rb39bJl6FaXYUUUv5uw+++xjj/0y4XU6Urdu3ezW/cMra7h1BFNYtu41p/5ICFYRcwyXE4y/P+nbAFFLuujbAn92yn24VeAVPVw93Lj985//FMS+xb0aJoXtW5i6/GUyvc/8dSTbhxsGZqojwQVDlVj57W9/K+PGjYu5BK+b4aYAWfwJ7jj640wWLVoU48LgL+P2w/LJtL/Bz085fa4c42TbsM+LqJ+1YZ4hyWR2+WHvG1eeWxIgAREqt3m4C6A0JEq77767zYZPY7IEfyt9/Sz66tP6qAbLqRXZZqWrcAfr8R+rtVAwQ/7jjz+2yjPiq+IB6x78rizkwkx+KD/wAXY+i0OGDLFF1PLnisZsXbxWlwmlQS3n1l/V5WGLPITrSpSyYZqovkR5atWLyYafJZKTCWMDn2CMjVOQ/BeASTCFZYs6kfAjIVXCjzL4Omeb0N4555xjq/nrX//qbfv27Ru66rB9C13hrwUzvc/Saeezzz4TtcIJfsBAqXdjjTrcZxDjjnvC3edu+8Ybb9imEHEiVQrLJ9P+lvPnKhV3nAvzvHDjHOWztrJnSGVy43zY+yZMXSxDAuVCgMptHkYaExRg8Q0mp9Q6JTd4HsewzuIBCUseFKlgwqQjJFiQXMKXbjYJ1yOmKUJDwbIFqxXkV58+ueuuu7yqMcno5ptvthO/3n//fav0odzdd99tyyTqs3dxljvZMM2yae9yjA0mv2FsENA9mNz4+vPDsnVht6DoJEuIgwvGrmyycmHzXUSEv//973ZBB/XZld/97ndhL7dKX5j7BhXiB82WLVvi6g5OaEOBXN9n+FzBWoofElOnThVMoPQnjDOUI1jJUQbME/1hkmiqFHbsc93fVDIW6+cqVZ9wLky/MnnWVtZu2POpntlh75uwbbEcCZQDASq3eRhlKD943etPS5Yssa/c8Qq/MuUEIZ+QgiGfYGmYNWuWtdz5X4tjxr5fcVC/VRk/fry/+ZT7+CJHBAAkvBZHNAQ3C9jJgKgJiPYApRozyPEa3j2gg6/JUzaW4clsmWbYbNxliFiB5NwTXAFY0qHwB1MYtrjm4IMPtpf6Z+sH61q5cqXNcmWD59M9RpSHgw46yEZH6NOnj/CteDAAAEAASURBVLVkJrI+J6s3bN9wPe55J7+rD8xgQfWnXN9nqB8Wa9zv//jHP0T9yr3mEUcY9z0SftjBSp4owglWbmvUqJE9712cYCcMn1z3N4FYMVnF+rmK6USCg7D9SvdZm6CpjLJSPbPD3DcZNcqLSKCECVC5zcPgwvI6bNgwgSUMIV80UoDopCv76hNhsypLo0aNEp1UIDpr3VqWYGmC4tS7d2/rr4s6nHsC6jrssMPs+c8//9y2CfcCnVFfWTMx5wcOHCg6kci+koUFEgsKwFrVuXNnWw4uAx07drT+x6NHj5ZvvvnG+n7CB1cjHcTUlYuDbJlGJZNGirCWPoyNRlSwFlyNlmDjwvqt6f72KmOLsvjRA4s+fLKTJReCCkvz+hPGCKHL4C+dbtIJNfaS1157LaPYtmH6hgYgM3yX77//fssMC2pceeWVts9WgF//5fo+02gc8txzz9kff7ifkyV8BhGGD24a06dPt65C8GuGb65GVxCEdAoTcq8yPrnub7L+ufxi/ly5PiTahu1Xus/aRG1lklfZM7uy+yaTNnkNCZQ0AVVYSiqlmD2Xdj+jCgWG0F7Lli0zal01+hrbRjfAjPY5c+Z4MqmCaGdj683mbYcPH+6dV+XRhmTCzFlEItCHta1PLbdeGbejVigbHgozcNWH0KjPljsVaqtKk0EIqBYtWtgZ/wgr1a5dOxtyTP0OvToQNQDl0AZkQhQJVY7Mdddd5/UBs8gRksrfL+yjbwiJFszXLxfzyiuvxOXfeOONXruY/ZwNU/UdjqtfLZVJ5UTDQTn9IeIQlk0nZBn1ebS8EGkCkR9UWbLHnuC6E5YtrtEfREYVJqMWTn8V3j4iNYCDWum9POwgNFi60RJcBZj9jzYxpmpFdNneNhk7FEinb+p+YEMcqQXXfh405q29H3C/ONZDhw617Ya9z5J9hpLJjHB0rq1kW1zrkr7aNhpr2uy33372fkeoN4RQQ5i4MCksn7D95ecqDPX/RlcJ87xwtYV51ia7p5KNCeoO3mP+Z0iqZ3bY+8bJzy0JlAuBFPpexTaAoB+6kkkVFRU28H6hdAuB9mHVTPV6uWTg56kjxcIU0RLgooHg+pkk+NtiJj78QYPWcFh0Dz30UHn88ce9iWCZtMFrSMARKNXPVbH0y40DtyRAAuEIpND3JtMtIRxDliKBhATgJ4oJSMGoBit0dTO8anduHAkvriQTr1I15qloDF07Y9oVh5sJfECvv/56KrYOCrclRSCXn6uSAsXOkAAJJCRA5TYhFmaSQHgCWDpY3TMEPs4IfwZ/VSzbi9BMN9xwQ/iKEpSEdRY+2vDzRHQEJPh53nrrrfYvwSXMIoGSIJDLz1VJAGInSIAEkhKgcpsUTXYn3JrheH2MWeGIJDBixIjsKs3yashQ2d8f/vCHLFvJ3eWFyBSTxlzINAT/R3SBU045RZo2bWqVXPXPzBpIkyZN7ERCF8cUs/NdTNqsK2cFZU+gVD9Xhdivsr/ZCIAE8kSAPrd5As1mSIAESIAESIAESIAEoiFAn9toOLIWEiABEiABEiABEiCBAidAt4QCHyCKRwIkQAIkQAIkQAIkEJ4AldvwrFiSBEiABEiABEiABEigwAlQuS3wAaJ4JEACJEACJEACJEAC4QnUCF+0uErq6k3FJTClJQESIAESIAESIAESCEUg1eJYJWe51WVD5YwzzggFhoVIgARKk8DSpUsFYfiYSCARgU8++UR0SfREp5hHAiRQJAQaNmyYVN8ruVBgRTImFJMESCBHBLBscePGje0KbkOHDs1RK6y2mAncc889Mnz4cPnss8+kfv36xdwVyk4CJBBPgMvvxjNhDgmQQDETuPfee634AwcOLOZuUPYcErj44oulZs2a8tBDD+WwFVZNAiRQVQRKzi2hqkCyXRIggaonsHHjRrnvvvvkyiuvlJ122qnqBaIEBUlghx12kH79+smYMWNky5YtBSkjhSIBEsicAJXbzNnxShIggQIj8OCDD8qPP/4ol19+eYFJRnEKjQB+AK1Zs0aefPLJQhON8pAACWRJgD63WQLk5SRAAoVBYPPmzbLffvtJ7969ZfTo0YUhFKUoaAJ9+vSRd955R9566y3ZZpttClpWCkcCJBCaAH1uQ6NiQRIggYIm8Je//EXWrl0rV111VUHLSeEKh8DVV18tixcvltmzZxeOUJSEBEggawK03GaNkBWQAAlUNYGtW7dKs2bN5MQTT5QHHnigqsVh+0VEoFOnTlKnTh2ZOnVqEUlNUUmABFIQoOU2BRyeIgESKBICjz32mKxcuVKGDBlSJBJTzEIhMHjwYHnuuefkvffeKxSRKAcJkECWBGi5zRIgLycBEqhaAr/88ou0atVK2rZtKw8//HDVCsPWi46AMUYOPPBA6dq1q9x///1FJz8FJgESiCNAy20cEmaQAAkUFYGnnnrKWt1otS2qYSsYYTGR7P/+7//k0UcfFSwAwkQCJFD8BBgKrPjHkD0ggbImcPvtt9slGA866KCy5sDOZ04AizpUq1ZNHnnkkcwr4ZUkQAIFQ4DKbcEMBQUhARJIlwAmAb3xxhvCZXbTJcfyfgJY1OHcc8+1bglwc2EiARIobgL0uS3u8aP0JFDWBI4++mipV6+ePPvss2XNgZ3PnsC7774rLVu2tFETEHWDiQRIoGgJTKZyW7RjR8FJoLwJ/Pvf/5YuXbrInDlzpEOHDuUNg72PhAAmldWoUUOmT58eSX2shARIoEoIULmtEuxslARIIGsCUGyRZs2alXVdrIAEQGDKlCly6qmnCqy4zZs3JxQSIIHiJMBoCcU5bpSaBMqbwIIFCwSW2+HDh5c3CPY+UgInnXSSNGnShAuBREqVlZFA/glwQln+mbNFEiCBLAnccsstcuSRR0rnzp2zrImXk8D/CFSvXt2GBZs4caJs3Ljxfye4RwIkUFQEqNwW1XBRWBIggbffflumTZtGqy1vhZwQuOiii2TTpk3y5JNP5qR+VkoCJJB7ApxQlnvGbIEESCBCAmeffbZdtOGtt94SBOBnIoGoCfzud7+TTz75RObPnx911ayPBEgg9wToc5t7xmyBBEggKgIffvih/OMf/5Bhw4ZRsY0KKuuJIzBgwACBX/ebb74Zd44ZJEAChU+AltvCHyNKSAIk8CsBvDJ+5ZVXZPny5QL/SCYSyBUBxLw99thj5c9//nOummC9JEACuSFAy21uuLJWEiCBqAl8/vnn8vjjj1tfWyq2UdNlfUECWJL373//u2zYsCF4isckQAIFToATygp8gCgeCZDAfwn88Y9/lAYNGkifPn2IhARyTuCCCy6QrVu3cmJZzkmzARKIngCV2+iZskYSIIGICaxatUoefvhhGTp0qNSsWTPi2lkdCcQTqF+/vpx++ukybty4+JPMIQESKGgCVG4LengoHAmQAAj86U9/kh133FH69u1LICSQNwIDBw6U119/Xd544428tcmGSIAEsidA5TZ7hqyBBEgghwTWrVsnY8eOlauvvlpq166dw5ZYNQnEEjj66KPlwAMPlEceeST2BI9IgAQKmgCV24IeHgpHAiQwZswY2XbbbQVWNCYSyDeB888/Xx577DHZvHlzvptmeyRAAhkSoHKbITheRgIkkHsCWAL1gQcekCuuuEJ22GGH3DfIFkggQADK7XfffSfPPvts4AwPSYAECpUAldtCHRnKRQIkYBXbH3/8US699FLSIIEqIbD33ntL165d6ZpQJfTZKAlkRoDKbWbceBUJkECOCWzatEnuueceq9juuuuuOW6N1ZNAcgIXXnihzJgxQ7788svkhXiGBEigYAhQuS2YoaAgJEACfgIPPfSQfPvttzJo0CC55ZZb7HK722yzjWCSj0vPP/+8lx9UgOEjOXLkSDshaPvtt5dddtlFevToIVOmTJGff/7ZVWG3a9assa4PTZo0saHGdtttNznttNPkrbfeiimXTp0xF/KgqAn06tVLdtppJ7uoQ1F3hMKTQJkQoHJbJgPNbpJAMRFA8Pw777xTLrnkEtlzzz1lxIgRYoyROnXqxHTjhBNOsPmHH354TD4OLrvsMsFktPvuu0/Wrl0r7777rlV0e/bsaZfwdRd89dVX0qZNG6moqLBLrSI6w0svvSTYtm/fXubNm+eKhq7Tu4A7JUEAsZXPPvts+etf/1oS/WEnSKDUCVC5LfURZv9IoAgJ/O1vf7OvgK+55pqMpZ81a5a0bNnS+ksihBhWNxs9erQ0a9Ysps7rr79ePv30U7nrrrvkxBNPlLp169rrnnjiCas4X3755V75sHV6F3CnZAhcdNFFsnz5clmwYEHJ9IkdIYFSJUDltlRHlv0igSIlAJeB22+/Xc477zxp3Lhxxr2AVXfu3LnSv39/mT9/vueKAAWlY8eOXr3PPPOMVKtWTU4++WQvDzt77LGHVXIXLVokX3zxhT0Xts6YinhQEgSOOOIIez/ghxcTCZBAYROgclvY40PpSKDsCEyePFk++ugju9RuNp1HCLGJEyfKxx9/LF26dLErnEE5ffrpp71q4UOLME+//PKL9amET6//z61M9cEHH9hrwtTpVc6dkiPQu3dv677y008/lVzf2CESKCUCVG5LaTTZFxIocgLwqx01apSceeaZce4D6BosrFu2bInr5fr16+PyoKTC+vviiy8KzsNCi/oxUQwuCEi1atWSnXfeWWrUqCHw88X5RH+dOnWy5cPUaQvyX0kS6NOnj3zzzTf2nirJDrJTJFAiBKjclshAshskUAoEECh/yZIlAj/YRAmTy1auXBlz6uuvv5bPPvssJg8HUFrfe+89m48VzhCrFAouFNRp06Z55aHswhL36quvenluB+4RjRo1sueRF7ZOdz23pUUAbjJHHnmkTJo0qbQ6xt6QQIkRoHJbYgPK7pBAMROAMolwXa1bt07YjeOPP95ONLv//vvl+++/t+4LV155pey+++4Jy2PJ3sWLF9ulU1evXi133HGHtcx27tzZKw9L8f777y99+/aV6dOnWzcFREoYN26c3HTTTTZqAyy7LoWp05XltvQI/O53v7OuLVhchIkESKBACegrOCYSIAESqHICM2fONPqYNGpBTSqLuhcYDQ9m1IJrNAKC0Zi3ZuHChUZDgdlrcf3QoUPt9Rqj1gwYMMC0aNHCaJxbo3FuTbt27cyECROM+tjGtKGhwszgwYPNfvvtZ9TKazTOrVFF2kAmf0qnTv913C8dAqtWrTL6Y8do6LjS6RR7QgKlRaBiG/SnQPVuikUCJFBGBODXCgupKpRl1Gt2tRgJwMVlhx12kH/+85/FKD5lJoFSJzD5f+/aSr2r7B8JkEDBEkCoLiycMHv27IKVkYKRgCMA14Tf//73dqIi/LCZSIAECosAfW4LazwoDQmUJYGbb75Z1GUgJv5sWYJgp4uCACYhIvnDyhWF4BSSBMqEAJXbMhlodpMECpXA22+/bSdy3XDDDYUqIuUigRgCsNZicuM//vGPmHwekAAJFAYBKreFMQ6UggTKlsAtt9xioyN07969bBmw48VH4PTTT7fxbrEICBMJkEBhEaByW1jjQWlIoKwIIA4tJuWMGDHCxp8tq86zs0VNoGfPnjasnD9mclF3iMKTQAkRYLSEEhpMdoUEio3ABRdcIK+99posXbrUrj5WbPJT3vIm0K1bNxs14amnnipvEOw9CRQWgcm03BbWgFAaEigbAlhVDCs9YTUyLKvLRALFRgATy7Dwx8aNG4tNdMpLAiVNgN8oJT287BwJFC4BrAyG5XQRVomJBIqRwKmnnmpXv5sxY0Yxik+ZSaBkCVC5LdmhZcdIoHAJfP311/Loo49aq62uCFa4glIyEkhBoEGDBtKhQwcu5pCCEU+RQFUQoHJbFdTZJgmUOIF33303ZQ9Hjx4tO+20k8DnlokEipkAXBOmTJkimzZtKuZuUHYSKCkCVG5LajjZGRIoDAKpgtuvXbtWxo8fL0OGDJHatWsXhsCUggQyJADl9vvvv5eXX345wxp4GQmQQNQEqNxGTZT1kQAJpHxNe88990itWrWkf//+JEUCRU9gn332kVatWglDghX9ULIDJUSAym0JDSa7QgKFQuDDDz+Ud955J06c//znP/LAAw/IoEGDpG7dunHnmUECxUjgpJNOkqlTpxaj6JSZBEqSAJXbkhxWdooEqpbA5s2bE37ZQ7H9+eef5dJLL61aAdk6CURIAMrtJ598IsuXL4+wVlZFAiSQKQEqt5mS43UkQAJJCWzZskX+9a9/xZz/4YcfBC4JUGzr1asXc44HJFDMBNq1ayf169ena0IxDyJlLykCVG5LajjZGRKoegKwzP7yyy+ycOFCWbdunSfQsmXL5KqrrrIuCV4md0igBAhUr15dsFoZ/W5LYDDZhZIgQOW2JIaRnSCBwiEAqy0SlFwX3B55vXr1ku+++0523333hMJ+8803MnPmTHtdwgLMJIECJgDXhFdeecXe4wUsJkUjgbIgQOW2LIaZnSSB/BGAv61LzpI1ceJEWb16dUJf23nz5sl5550nl112mRx11FECKxgTCRQbgRNOOEGMMfLiiy8Wm+iUlwRKjgCV25IbUnaIBKqWgLPcQgrMIMfx7bffLueff740bNjQCoe4oOPGjZOWLVtahRbL8D7++ONSp06dqhWerZNAhgR22WUXge+t+0GXYTW8jARIIAICNSKog1WQAAmQgEfAr9zCDWHw4MF2Jvn06dNl6dKl8uCDD8ojjzwiGzdulBo1ashf/vIX6du3r3c9d0igWAnAejt27NhiFZ9yk0DJENhGX6OYkukNO0ICJFDlBD766CM54IADrBw1a9a0ltt9991XYJ2dO3euVKtWzU4423HHHe2ypccee2yVy0wBSCAKAnCxgWsNQoI1a9YsiipZBwmQQPoEJtMtIX1ovIIESCAFAb/l1u2vWLFCFixYYK+CT+1+++0nixYtEiq2KUDyVNERaNOmjeBH26xZs4pOdgpMAqVEgMptKY0m+0ICBUDAKbR+UfCCCNEToNjCsvX666971l1/Oe6TQDETgJvNMcccI//+97+LuRuUnQSKngCV26IfQnaABAqLgD9agl+ybbbZxvrWItwXF3Hwk+F+KRHo0qWLzJ4927relFK/2BcSKCYCVG6LabQoKwkUAYGg5RY+tvgbNWqUjB8/Xrbddtsi6AVFJIHMCHTu3FnWrl0rb7/9dmYV8CoSIIGsCVC5zRohKyABEvAT8Ftu4YZQq1Ytefrpp2Xo0KH+YtwngZIk0Lp1a2nQoAH9bktydNmpYiFA5bZYRopykkCREHCWW/gf4kseE8lOOeWUIpGeYpJAdgTgfoOJkvS7zY4jryaBbAjExbn94osvbLiebCrltSRAAuVLAJPFkBo1aiTXXXedvPvuu/avfImw56VCYJ999pH27dtX2h343SK+89atW+mGUyktFiCB6AnExbmtqKiQs88+O/qWWCMJkAAJkAAJFDGBM844QyZPnlxpDxDn9sADDxTEvcWqZUwkQAJ5JTA5znLrmufaDo4EtyRAAukQ+Oabb6R+/fqC17NMJFAqBM4888zQXWnevLldtOT//b//R+U2NDUWJIHoCNDnNjqWrIkESEAJ7LrrrlRseSeUPYGjjz5aoNwykQAJ5J8Aldv8M2eLJEACJEACJU4AiznMmTPHLl5S4l1l90ig4AhQuS24IaFAJEACJEACxU4AERO+++47Wbx4cbF3hfKTQNERoHJbdENGgUmABEiABAqdQKtWrazvOV0TCn2kKF8pEqByW4qjyj6RAAmQAAlUKQFMqOzQoYO88sorVSoHGyeBciRA5bYcR70K+vzWW29J//79BbOI69ata/+aNWsmxx9/vPzxj3+UN998U3IdoeOQQw6xE53wpRPm75ZbbqkCUqmb/Pnnn2Xs2LFy1FFHyU477WRjaO61115y4oknyv333y8rVqxIXUGBnb3zzju9sWjYsGGBSUdxSCA7AvC7heU218+27KTk1SRQegSo3JbemBZUj3755Re77OoRRxxhl2F98sknZc2aNYLFQh577DFBUPTrr79eDjvsMFm0aFHOZUeMSnzRuL8BAwbYNqdPn+7l4ZyL9fz9999L06ZN5eSTT865bGEaOO+88+TSSy+VU089VZYuXSobNmywlqFDDz1UrrjiCgHnYkrXXHON5f6b3/ymmMSmrCQQisBvf/tb+7zDQiZMJEAC+SOQNM5t/kRgS6VM4IYbbpA77rhDHnzwQRk4cKDX1dq1a0ubNm3s32677Sa33367d66QdqDoQkHHX1WnhQsXyqRJk6Rfv35y7bXXeuLsv//+cuutt8r69esFPx6YSIAECoMAfrTvsMMO1np70EEHFYZQlIIEyoAAldsyGOSq6iKsFXA5OPzww2MU26A8WKL13nvvDWZHfgzXiLDpiSee8Ip+9NFH3n5V7sBSiwTXjkTprLPOonKbCAzzSKCKCNSoUcO6EMHv1v/jvorEYbMkUDYE6JZQNkOd/46OHz/eWjwrW9ln5513lh9//LHoXqnnm2iDBg1skzNnzkzYNEIPYXUwJhIggcIhAL/bl19+uXAEoiQkUAYEqNyWwSBXVRddCJxM/Snhmws/0iZNmkjNmjUF7gunnXaaJLLArl27VgYPHix4RY+y9erVk+7du8vs2bMz7v4zzzzjTXbCBLRNmzbZuoL5n376qfXRxetHLDsLv9hvv/3WTu7q0aOHfS255557WncC+MgGU9h+4ktyjz32kBkzZti+vfTSS5W6S/z000/Wmtu1a1d7LdxBEKIIlnK/q0VUfQpOEIMrRZcuXSyD7bffXjp16iSvvvpqEEHS4zBsgrIvX75cYMV2SwBj7Kj0J0XMEzkmAL/blStXyscff5zjllg9CZCAR0B9CmOS+uwZPRmTxwMSyISAKnT2XlqwYEHal3/55ZemcePGRq2VZtq0aUaVQvPOO+8YtU6a7bbbzsydO9er86uvvjL77ruvLfvss88aDZxuVMExqggbVWzMhAkTvLLBHZ1QZmXUCWXBU95xz549bRm1Lnt52HH5aOf11183OvnMTJw40ZZVxdqe1ygQVnaNcGDzr7rqqpg60uknLtTXm0Yn4dm68DndfffdTZ8+fczjjz9uNm7cGFM3DsAD5W677Tazbt06o8qiGTNmjKlWrZrRyVxx5aPoEyrVHzSmTp06pn379naswEYVXdO6dWujPz6MKuYxbaP83nvvHZOXLhsnO+4R/VFjecyfP99Ur17d9jumch6QQJoEzjjjDIO/dJP+KLbPrL/+9a/pXsryJEACmRGoiNNiqdxmRpJXxRNQK6NVrJIpt1BooHi5PygnLl1wwQU2XyMquCy7hSJbq1Yto368Xv6FF15oy+pkKy8PO/hS0TBZRq2V5uuvv4455w6iUG6hfPtTy5YtrTz6KtKfbRVw9ZeNyUunn+5C9OvRRx+1yrNaiz1+aqk0QQZQbjt27Ogu9bbnnnuu2Xbbbe0PAS9Td5yCmE2fUJ8bWyj3/qSrNVl5cd6fEim36bJxsj/33HP+qrlPApEQyFS5ReP4wXXRRRdFIgcrIQESqJRABd0SVLNiyg0BtcTZipO9EoZ7gd6iglfXwYRXzWpdjAvBhdfyqjzasGEIJ4b09NNP2+1JJ51kt+6fKsH2lTj8efEqP1cpGH4LcWeRgvngodbIGDHS6ae7EP06//zzBdeqNVZmzZol55xzjsA1Q5VWGzPYlUUIs0SuGapMytatW204MVfWvw3Knk6fXD1quRXEFvYnuESgrrffflv0h4r/VNx+JmxQSdu2bePqYgYJVCUBVW5txISqlIFtk0A5EaByW06jnee+wtcM6Y033kir5c2bN9s12eETioUKggsuuPo++OADcWXVVcH6dQYbcpOw1HIbPBXZ8Y477hhTF5RyfRUu8DH1J+T5/Vyd7GH66a/Hv4/Z2J07d7YhwoYOHSpY5OGpp57yimBt+5EjR1o/W/ghO5ZDhgyxZX744QevrH8n0z7568BEwURJXSls9urVqxOdtnnZsIFSzUQChUQA/vKIuvL5558XkliUhQRKlgCV25Id2qrvGOKxQtFDWC1YaMMmWCahGEFxg3UR1yb6w+QklIUCjMleiSZrrVq1yjYLi2+hpXT6CdkxEcsp64n6Ah5ImMzmEia03XzzzXYy2/vvv2+Va7C8++67bZF0xsXVGXYLS3Ki+p1S65TcRPWlyyZRHcwjgUIhgBUFMdGVS/EWyohQjlInQOW21Ee4CvvXokULQQxbxGfFQg7JEqyNwYSoCJjpn2hmPRZ8aNSokT2P63r16mUvVz/RmGpg/cMre0QI6NatW8y5QjlIp59QFKEY6iSphOLrpDabj9XKkMAV/KDYI+oEok3AcosEV41cJ/zgCLqcLFmyxLpmwC0CESRSpXTYpKqH50igqgngLQ4WdKByW9UjwfbLhQCV23IZ6SrqJ6yGeAWOJXYvvvhi6yuLV+FQrqDo6Cx+0YlA9jW+389z1KhRNqxX3759BUvj4vU6/EvHjRsnN910kyDkFCy7SCir0RJk0KBBMnXqVGvBhZWyd+/e1q8TYa9SWTyrCI0nO8KXhemnkxNhrjQ6glUSocCvWLHC8gAXLJgBf1wkuEF07NhR4JIxevRoGw4L3OGDq9EbXHU528KiPmzYMJk3b55oJAeB8g2fYFiwwizakc49kLNOsGISiIgA3LRceMSIqmQ1JEACyQioNSgmMVpCDA4eRERg0aJFRhU4o4qcjV6AcFBqUTTqL2puueUWozEg41rS19pGY9ea/fbbz87sV8ujOf74440uYhBXVietGVVubUQCRAFQxcqotdao5TauLDIefvhhL8qAfja8fYQcc0knqnn5rgzCbqmyFpc/fPhwG+rKlXNbVdBs+C537LY33nija8aE7adaYs2cOXNsCK8jjzzSRoJQBd8gYoL+MLDhvoLhwBD6CxEhED4MXBBaDdEl1KLu9QGRJ6Luk4t+sGzZMjsOkBFRKzBrHH1wSZVuTw7HBixdCsMmkeyoi4kEoiSQTbQEyKE/vG1oQnWVilIs1kUCJBBPoGIb5OkXgZcqKipsQPpAtneeOyRAAiRQGQFESUCUDBfRorLyPE8ChU7ArbQ4efLkjETF2ycsLILvWLjcMJEACeSMwGS6JeSMLSsmARIgARIggf8SgJuOLmJC1wTeECSQBwJUbvMAmU2QAAmQAAmQAP1ueQ+QQH4IULnND2e2QgJlQQAT/RCRAYs0rFy50u6PGDGiLPrOTpJAZQSg3OKzsX79+sqK8jwJkEAWBKjcZgGPl5IACcQSuOaaa+JiEuuEwdhCPCKBMiUA5RbzWRKFOCxTJOw2CeSEAJXbnGBlpSRAAiRAAiQQS2DXXXcVxP9mSLBYLjwigagJULmNmijrIwESIAESIIEkBOh3mwQMs0kgQgJUbiOEyapIgARIgARIIBUBKLca99subJKqHM+RAAlkToDKbebseCUJkAAJkAAJpEUAyu3WrVtlwYIFaV3HwiRAAuEJ/Hf90gTlXcDqBKeYRQIkQAIkQAJlRWD+/PnSrl27rPu89957S+PGjUVX6hNdoTHr+lgBCZBAPAFabuOZMIcESIAESIAEckbg6KOPZsSEnNFlxSQgktRym+kSg4RKAiRAAiRAAqVGIMq3mR06dJBrr71WfvrpJ6lRI+nXcKkhZH9IIG8EaLnNG2o2RAIkQAIkQAIisNx+//33snjxYuIgARLIAQEqtzmAyipJgARIgARIIBmBgw8+WHbZZRe6JiQDxHwSyJIAldssAfJyEiABEiABEkiHAJaobt++PZXbdKCxLAmkQYDKbRqwWJQESIAESIAEoiAAv9tXXnkliqpYBwmQQIAAldsAkEI+vPPOOwW/+PHXsGHDQhaVspEACZAACaQgAL/bL7/8Uj755JMUpXiKBEggEwI5VW4RE/Dkk0/ORC57DRzumzZtmlUdGTdegBdec801YoyR3/zmNwUnXbGPVbHLX3A3BAUiARJISaBt27ay3Xbb2Xi3KQvyJAmQQNoEcqrcpi1N4AIocr/88ov9C5xK+7Bu3bp2hmraF/KCUASKfayKXf5Qg8RCJEACBUOgVq1acvjhh9PvtmBGhIKUEoGCDrC3ww47yEcffVRKvEu2L8U+VsUuf8neWOwYCZQwAbgmTJ06tYR7yK6RQNUQKGjLbdUgYaskQAIkQAIkkHsCmFT27rvvyrfffpv7xtgCCZQRgYJVbp955hlv8hQmUG3atMkOSzB/xYoVcvbZZ8vOO+8s9evXt/65fmuvm4S1ceNG+/rHTcgKrgqzZs0aueKKK6RJkyZSs2ZN2W233eS0006Tt956y7sdgm0vX75czjrrLNuuq/ehhx6Kkbsy+VA5Vql58sknpWvXrrLHHntI7dq1pVWrVnLvvfdG4pKBNhwHNxlt4cKF0qVLF4HFcvvtt5dOnTolfD22du1aGTx4sOy///6WS7169aR79+4ye/ZsVGtTkEsux2rz5s0ycuRIOfDAA63ciBXZo0cPmTJlivz8889OpLS2+ZQ/LcFYmARIoKQJIBwYXKIWLFhQ0v1k50gg7wT0gxWTVMkyKkRMXqYHRx55pDnppJMyvdxe17NnTyvPjz/+GFOPy8d27ty5RicEmZkzZxpVDE2bNm1iyuKgTp06Rn8lx+UjQ2esmsaNG5sGDRqYadOmmQ0bNph33nnHHHvssUYd/m39/gtd2zivSp5RxdnMnz/fVK9e3aiSbIu6MmHke/bZZ20fb7vtNrNu3Tpbx5gxY0y1atWMTiLzN233dUKZ2XvvvePyw2TgWrDQh6rHTRVd07p1a6NKvXnppZe8ar766iuz7777Wi6Q8bvvvjOq0BtV+o0qyWbChAleWey4PudyrC655BKz0047mRdeeMH88MMP5uuvv7aMcM9iLPxJFXajyq+ZN2+ePzvpfj7kT9o4T5AACRQ0gTPOOMPgL+qkhgNz4403Rl0t6yOBciZQEafFZqrcQrGDghHmD0pk2FSZwgGly5/w8IEMTsl051IptxdccIG95rHHHnPF7RbKnTr9G3X6j8l3Mj333HMx+f4DVyaMfCjTsWNH/+V2/9xzzzXbbrutVSr9J7NVbsHnzTff9FdpdBlIywB1u3ThhRfavEmTJrksu1XLrNlrr73sDwkoly65PidTbsOwQF2pxgrK9lFHHeWa9LbNmjWLU27x40MtzXE/TryLAjv5kD/QJA9JgASKhECulNs+ffqYE044oUgoUEwSKAoCFZG5JeDVunY55k8tt6KW25g8lFGFSPWraJJaaWMq2meffewx4geGTXgtrVbSuJBjcBFo2bKlLFq0SL744ou46hDKpbIURj6ES1OrY1xVqmjK1q1bZenSpXHnsslQ5VEOOeSQmCrgBqEKq7z99tuiSr099/TTT9stxtCfMMsXLg2qxMqMGTP8p1Luh2GRsgI9qV8CopZ66d+/v6i13HNFgIuI/kCIuVyt0KKWcLsSUMyJDA+ikD/DpnkZCZBAiRLA9ySeZYgMxEQCJBANgciU22jESb8WfUUdcxH8ZZHCPijgw6mv22151OV8Z932jTfesPV98MEHduv/ByWxshRGPrQPP1IomPBpdW0PGTLEVq+v3ytrJq3z8E9OlHbffXebvXr1anFcEIcRfrnBpNZ3m5XOD5UwLILtBI8feOABmThxonz88cdWwd5xxx2twusU8WD5KI+jkD9KeVgXCZBA8RNAPPj169fL+++/X/ydYQ9IoEAIFL1yG5YjFMZECVZIKHuYYAYradD67I4x4SpXCROibr75ZunXr599wEExR7t33323bRL7USZMEktUJ5RaJCi54AJlDpPD1Ac5rvlVq1bZPFi3o07Jxgrt4Nx5550nL774ov1CgNUdfcHkv7vuuitqUTKqL5X8GVXIi0iABEqWAN6iYRIxrLdMJEAC0RAoG+UWEQG2bNniUWvevLmMHz/eHkMxglvFq6++6p13O7fffrs0atTInnd5UW4xwx/tQklEtAZEaXDKEV775yJBYUW0BH9asmSJXQoSrhB77rmnPdWrVy+71Ul2/qLWqjtr1iz7QO7WrVvMuSgOUo0Vfoi89957thn1R7YRJly0g6CcUciSSR2p5M+kPl5DAiRQugTwHDvssMMYMaF0h5g9qwICZaPc4uGB1z6ff/656Ox5+1r7mGOOschHjRplQ1317dtXpk+fbt0U4Ks5btw4uemmm2wYrWDosKjGSifiWV9RvN4fPXq0fPPNN9aXFT64Y8eOjaqZmHpgkR02bJjlgBBpr7/+uujkNRvqC+HHXAIXncAlgwYNsoHGYcEFw969e1u/XJR17gnumii2qcYK9Q8cOFB0ApxVsmFtvuOOO6z1tnPnzjHN4xjh4fJtEalM/hgheUACJFD2BOCakO/nVNlDJ4DSJqCvdGNSptESYir59SCbUGDqQ2ln6it9b4tZpQjr5M/D/vDhw22LwXx/GDK19hlVZu1MfJ10ZtR3M0ZkfVVvNJ6r2W+//WyEArWgmuOPP96GF3MFE7WNNv0pUZnK5ENkhwEDBhjIhegIiCaBSAXXXXed11dEbFDl1zt2fXV1+2VIte8iLSxbtsyo1dWoP62NeoDIAnPmzIm7VJVto8qtDQkG2VQxttep5dYrm8+x0rjDllWLFi2MWkhtqC/9YrBhydSdw5MJOxjvMNES8il/jIA8IAESKBoCuYqWAAAVFRU2lCTCUDKRAAlkTaBiG1ShipKX9ENmF0UIZHvnuVPcBODfBetwougPxd0zSk8CJEACuSNw5pln2sonT54ceSN4owj3N7yxC0Z9ibwxVkgCpU9gctm4JZT+WLKHJEACJEACxUgAISx1YR66JhTj4FHmgiRA5bYgh4VCkQAJkAAJlBMBxLvlMrzlNOLsay4JULnNJd081Y3oCpX91a1b15bBIg0rV660+yNGjMiThGyGBEiABEggFYEjjjhCXFz1VOV4jgRIoHICNSovwhKFToD+0YU+QpSPBEiABFITOPTQQ+Wzzz6zcyJ23XXX1IV5lgRIICUBWm5T4uFJEiABEiABEsg9AYQQRHrzzTdz3xhbIIESJ1Cwyu2dd97pvWpv2LBhSQzDE0884fUJy9oykQAJkAAJkAAIYGVITCqjawLvBxLInkBOlVsEpj755JMzkvKaa66xgfmxYlappHPOOcf2qUuXLqXSpUj68f3330vTpk0zvlciESKLSopd/iy6zktJgAQiJADrLS23EQJlVWVLIKfKbdlSZcfTIgCfYV2Awf6ldWGCwpg4d/TRRyc4k7usYpc/d2RYMwmQQDoE4HdL5TYdYixLAokJcEJZYi7MzSMBXSVNPvroozy2GG1TxS5/tDRYGwmQQKYEoNzefPPN8p///Ed23HHHTKvhdSRQ9gRouS37W4AASIAESIAECoEA3BLwJgghG5lIgAQyJ1A0yu17770nJ510kuy0006y/fbbS6dOneTVV1+N6/natWtl8ODBsv/++0vNmjWlXr160r17d7usoSt8yy23eBO7/K+wn3/+eS/fH4rlmWee8fIRT3bFihV2ieKdd95Z6tevb31FE1keIfOpp55qZa5Tp44cc8wxMmfOHCdGzPann36SJ598Urp27Sp77LGH1K5dW1q1aiX33ntvzOv6oCzLly+Xs846y8qRLNYt+ouENvxldK30GBmSHQQn9y1cuFDgNwyLZbZjEezPpk2brBjB/MqYOxk3btxo7wvXzxo1/vdyYvPmzTJy5Eg58MADrdy77LKL9OjRQ6ZMmSI///xzsu6nzA/KmUv5UwrCkyRAAkVPAEvw4ruHrglFP5TsQFUT0F+JMUkVLKMyxeRleqArrhhVSDO93F6nE8qMKrRGlVmjiqHZsGGDUeXKtG7d2qjyal566SWv/q+++srsu+++pkGDBubZZ5813333nVHlz5x22mlGlR0zYcIEryx2VOE0HTp0iMnDweGHH25UaY3L79mzp2WD7dy5c41OJDIzZ840qoiaNm3axJT/4IMPjCq/Rme/mhdeeMHKvXjxYnP88cebJk2amFq1asWUh7zgftttt5l169aZNWvWmDFjxphq1aoZnVwXUxYHTpZjjz3W6HrkRpU6M3/+fFO9enV7bbdu3ey1H374Ydy17du3N4899lhcfmUZGAsww/Wu/1GNhevPjz/+GCOGyw/DHBcmG1Ocu+SSS+y9hPH44YcfzNdff23ZgjsY+hPuN1V+zbx58/zZSfednLmUP2njPEECJJBzAmoMMPjLdTruuOPMhRdemOtmWD8JlDKBijgtNlPlFkoVlIQwf1A+wyYoVKgzqGRAUUQ+zruEBwLyJk2a5LLsVq1pZq+99rJKKBQal5IpQpUpt1BE/QkPPLQLhdSlM8880+Y99dRTLstudXUwq9gmUm47duwYUxYH5557rtl2222tou4/6ZSp5557zp/t7c+YMcO2//vf/97Lww5+IEDh3rJlS0x+mAM3FmpViCkexVi4/iRTDsMwh1DJxhTn8MPnqKOOwm5MatasWZxyix8NavW3SnxM4SQH+ZA/SdPMJgESyAOBfCm31157rTXe5KFLbIIESpVARWRuCXjlrZRi/rBWNlwJgvmqYKouGD4hJizq8ie8sleF1fomqcXWnnr66aftFm36kyqS9jW6Kk6iSp//VEb7aqWNuW6fffaxx19++aWXDxcHJLWgennYgcyqTMXk4QAh09R6GJevCqVs3bpVli5dGncOGW3btk2YrxZi69bwyCOPCFw1XBo9erRcfvnlogqzy0prq8qjHHLIITHX5GMswjCPESrBwQknnCBqcZb+/fuLWrk9VwS4dugPi5gr9I2AqAVd1Eodk5/pQRTyZ9o2ryMBEigeAnjmv/vuu/a5XzxSU1ISKCwCkSm3uewW/FrhQxlMCHqNtHr1aoE/pbohCBRh+IIGk1qLbVa6inWwHhzD79ef4NuLhHBWSJBF3SesLAhNFUxObn8+ZIc/KBRF+Ak7n9EhQ4bYYvoa3V/c24eymSwNGjRIcN2f//xnW+T999+Xf//731a5S3ZNZfnwM06UXJ9yNRaVMU8kUzDvgQcekIkTJ8rHH39sf+xgNjIUXvejKFg+yuMo5I9SHtZFAiRQmAQOOuggq9iqS1lhCkipSKAICBSFcgvFL1GCIoUExQrWWSgQmNADxTKYVq1aZbMwWcsl9WcVfT3vDr3t+vXrvf1MdiALFGzIggD/wQSLYDBhYhNCwPTr10+ghEJRhsX77rvvtkWxn27q06ePQKm///77rcL9pz/9SS644AKrPKdblysPK3AiWbIdC1d/tttEP4JcnTh33nnnyYsvvigYY0wGQ1/UJ1vuuusuV6xKt6nkr1LB2DgJkEBeCDRv3lzw3QTrLRMJkEBmBIpCuYWCGAyNsmTJEoEbAF7h7Lnnnrb3vXr1sttp06bF0IAlddasWTYCgd9NANepD2xMWVh2P/vss5i8TA4QoQHJuSe4Or755hvBa3B/wkx9RH6A4n3FFVfIbrvt5lmq4UqRaYKSrT631rINxVYnkcmVV16ZaXX2OijsiJbgT1GMhb++bPYRvcH/gwVfFOPHj7dVwuqMCBZIcMtAZAoX7SB4z9hCVfAvlfxVIA6bJAESyDMBRMpp3Lgxlds8c2dzpUWgKJRbvHq/7LLLZMGCBYJQT6+//rroRCsb6guhslwaNWqU6KQhwev4qVOnWgsurKC9e/cW+OWirHNPwDXwS4WCDMsmFGiE84Ly516xu3oz2WrUA0GoKciiERVs/cuWLbNyB10VdDKe9fmEYg2fWCjAUGrhgzt27NhMmveugXKLh+WIESNEZ+HKAQcc4J3LZAfW8WHDholO8It0LDKRJdE1iBOJMf/888+tjHBBQAg2lwYOHCg6Ac5asmFtvuOOO6z1tnPnzq6I3eIY7jDwzc1nqkz+fMrCtkiABKqGQIsWLajcVg16tloqBPS1bEzKNFpCTCW/HmQTCkyVPDvbXznb2f2vvfaaDQemiqGNeoDZ7Jj5H0yqGBpVKO3MeEQZUGXMICyWWm6DRY2+mrbhodSCa+vUmLc2zBiiJaBd/A0dOtRGanDHbjt8+HBbnzt2W3/oM4Qh0zi3Rn07vXBhqnQbjRHr1X/xxRfbehBpYcCAAUYnp9noCIgogegP1113nVcWciFqhGvLv43rnC9DXR3sNS+//LIvN/1dREtApAVV0i1Tdb3IeizU3zWuP+pOkbCfYZirZdaoMmujJoCl+tl6HX3rrbcsY/3iMGohtaG+2rVrZ0PEqRuIVw47qCNMtIR8yh8jIA9IgATySiBf0RLQKYR/1B+6ee0fGyOBEiJQsQ06o0qSlyoqKuwCBYFs7zx3io/Aww8/LJhMBYt3NglREmBV/uKLL7KphteSAAmQQNER0PCOVubJkyfnXPa//vWvNqoN5o/A/5aJBEggLQKT+alJi1dxFoZrA1ZtYyIBEiABEih8AnBLQKSbKOZ/FH5vKSEJRE+Aym30TKu8xoceekgwuQ5+xFBsv/32W7tEb5ULRgFIgARIgAQqJQDlFokREypFxQIkkJAAlduEWIo/E1EAEC/3wQcflCeeeEJq1KiRsFMunm6qLSbA4TwiViC6BPYxQY2JBEiABEggegKI7ILoOVRuo2fLGsuDQGKNpzz6XrK9vOSSSwR/YRJ9q8NQYhkSIAESyC8BRkzIL2+2VloEaLktrfFkb0iABEiABEqAwIEHHigffPBBCfSEXSCB/BOgcptD5nfeeae3jG7Dhg1z2BKrJgESIAESKCUCjRo14oSyUhpQ9iWvBHKq3GoMUTn55JMz7hAmRDVt2jSrOtB4pvVkep3rsMYqtAsEYBW1QkvZ9q2q+1Ps8lc1P7ZPAiRQ2ASg3CLsIlawZCIBEkiPQE6V2/REiS8Nf1ANrm//4s+Gz0lVDyZL6eINCStLdV3CC4ooM8q+pWKYKyTFLn+uuLBeEiCB0iAA5Xbr1q12dc3S6BF7QQL5I1DQE8p0BSy7JG62ODKtJ9PrspU3H9cXe9+KXf58jDHbIAESKF4CjRs3tsIj1i3d2op3HCl51RAoaMtt1SBhqyRAAiRAAiRQtQT22msv0SXk6XdbtcPA1ouUQMEqt4jT6o+9umnTJos4mL9ixQq7XDDiAtavX9/653700UfecATLu3rcZK+NGzfKq6++6rXl4sEmuw4V//TTT/Lkk09K165dbSzC2rVrS6tWreTee+/N2oXCCe7kAwP8al+4cKF06dJFYLHcfvvtpVOnTlZuV95t165da1cj23///aVmzZo21m337t1l9uzZrogk61swvzK2TsZkDNHg5s2bZeTIkYKZv5B7l112kR49esiUKVMy9iULyunGNJgfhfweNO6QAAmQQB4JVK9eXaDgfvrpp3lslU2RQIkQUN/FmKRKm9GuxeRlenDkkUeak046KdPL7XU9e/a08vz4448x9bh8bOfOnWt0gpGZOXOmUUXTtGnTJqYsDlz5YD116tQxHTp0iCvvMhJd9+yzz1qZbrvtNrNu3TqzZs0aM2bMGKNrgBudROYu9bY6oczsvffe3nE6O7gWMrZv397rpyq6pnXr1kaVV/PSSy951X311Vdm3333NQ0aNDCQ8bvvvjPLly83p512mlEl2UyYMMEri51EffPnh2WbiqHG2zU77bSTeeGFF4wuJ2m+/vprywj3mCrcaM5LqrAbVX7NvHnzvLxUO/mQP1X7PEcCJFA+BM444wyDv3ymY445xlx66aX5bJJtkUApEKiIzHILi6ff0or9BQsWyLRp0+LysfJKVAmLFajiJ6pgyXHHHSeqTFsr5zfffBNVEwnr6dixo1x//fXWMrrrrrvK5ZdfLr1797bW2//85z8Jr8k0E5bRP//5z14/jzjiCPn73/8uW7ZskSuvvNKrFvJ88skncs8991gL9o477ijNmjWTxx9/XPbcc0+54oorZNWqVV75ynaiYDtr1ixp2bKltXLDwq2Kt4wePdrKFWwfkwf1U2X/gucyOY5C/kza5TUkQAIkEAUBTCqj5TYKkqyj3AhEptziVb1TTNxWLbdW2XTHbqvWu8g4q5U2pq599tnHHn/55Zcx+VEeILyZ/zW/qxshvzC7denSpS4rki0U90MOOSSmLrhB4JUVlsRVi6099/TTT9stFHx/qlWrlnVpUKu1zJgxw38q5X4UbE844QRRy7r0799f5s+f77kiqEVZ8APBn9QKLWoJt0q8Pz/T/Sjkz7RtXkcCJEAC2RLApDJMKGMiARJIj0Bkym16zUZXWl95x1QGP1MkWAFzlfR1v/UjhYJZr149zzI9ZMgQ26S+fo+0afgTJ0q77767zV69erX1bYVc2223nfXLDZaHxRQpnR8WUbB94IEHZOLEifLxxx9bBRvWZCi8ThEPyhnlcRTyRykP6yIBEiCBdAhwIYd0aLEsCfyPQNErt//rSmZ7cJ9IN2FC1M033yz9+vWT999/3yrSsErffffdtirsR5kwSSxRnVBqkaDkwjoLZQ6TqzZs2BDXvHNHiNIlxDWSiiHOnXfeefLiiy/K+vXr7WQ29EX9gOWuu+5yVVTpNpX8VSoYGycBEihrAjBK4LmJibm5SG5SMJ6B/nBjyfJzIQPrJIFcECh75RYz+OG76lLz5s1l/Pjx7jBui9ViEF0BSiJ8WHfbbTdruUVBvPbPRYLCimgJ/rRkyRKB6wVcIeBPi9SrVy+7hZ+zP+HBCN9X+Lx269bNfyqS/VQMYXV+7733bDsIa4MIEy6qQVDOSITJoJJU8mdQHS8hARIggUgIILoM0rfffhtJfcFKkq2imSw/eD2PSaBQCZS9cnvYYYdZ6+vnn38uOkvfvj7XGapJxwvhWeAritf7mBiFiWtQauGDO3bs2KTXZXMCFtlhw4ZZ+TC57PXXX5dzzz3XhvpC+DGXRo0aJRotQQYNGiRTp061FlxYljHRDX65KOvcE9w1UWwrYzhw4EBZvHixtT7A2nzHHXdYS3Tnzp1jmscxwrnBNzefqTL58ykL2yIBEiABR8Apt5iLwEQCJJAGAX1FHJMKJRSY+mTacFvaFW/bp08fGybKn4f94cOH2z4E8xGGLFk9rtNqVTQIt4JwVjoZzaiPqD2V6jqE/howYIAtr9ZIG3rrwgsvNNddd50n6+GHH25U+fWOnWxOVtd+ZVsXRmzZsmVGra5G49zacGfHHnusmTNnTtzlqmwbVW5tSDDIpoqxvU4tt17ZZH1DCC4np9s6ed2x2/pDvCVjiAbfeusty6pFixZGLaQ21Fe7du1sWDL1i/Zkwg7GQX2YbcizmBOBg3zKH2iahyRAAmVKoCpCga1cudI+k1955ZWcUnffM8FGkuUHy/GYBAqMQMU2EEgVFi9VVFTYRREC2d557uSXAKIkwDr8xRdf5LdhtkYCJEACJOAROPPMM+3+5MmTvbxc78AlDe5k//rXv+SUU07JWXPJvmeS5edMEFZMAtEQmFz2bgnRcGQtJEACJEACJBAtAUS/gXLr97n1r0KJicSYCIYY74888og37yOXq2jmYtXJaKmxNhIQoXLLu4AESIAESIAECpQA/G6dzy3meiB+96RJk+wcCrzVW7RokZ0HctFFF8m4ceNsL55//nk555xzBPMY3n33XcGcEsQaHzx4sAwdOjSrnl522WWiK3LKfffdJ1C0UT+WV9cVI0XdJ7KqmxeTQFQEqNxGRTKNehB2pbK/unXr2jJYpEH9ruz+iBEj0miFRUmABEiABIqdAGKpO8utW4USk4OxmJDOwbCThPHdgPjh/oSJz7lYRTOdVSf98nCfBPJJoEY+G2Nb/yVAf2beCSRAAiRAAmEI+C23OpnWXtK9e/e4S6dPn+7lQfHFXzAXrtA6AABAAElEQVQhdCSWbscqmli2PpMEJfrBBx+0luC+fftaSzKiCGHVSSYSKBQCtNwWykhQDhIgARIgARIIEHDKLXxdU61C6b8sl6toVuWqk/4+cp8EUhGgcpuKDs+RAAmQAAmQQBUSQJxzrFJW2SqUfhFzuYomXOoKfdVJPwvulycBKrflOe7sNQmQAAmQQBEQQMQEt/yuW4Xyueeei5P80EMPlauuukpyvYpmMaw6GQeHGWVHgMpt2Q05O0wCJEACJFAsBGrWrOkpt24VSiixWL58w4YNNgb673//e7sKJfLzsYpm2FUni4Ux5Sw9AlRuS29M2SMSIAESIIESIQB3BGe53WOPPWThwoV2oaXLL7/cLlfetm1bG00BYbgaNWpke60rjYquomnDde211152WfaJEyfapdhRoGvXrnLEEUfInXfemTAqT7J8XPvyyy/b0F8INQZ/YF19UhB6bMKECXaZeJRhIoGqJpB0hbKqFoztkwAJkAAJkEAhEdAleCWfK5Sh7wjz9eyzzwrCQjKRAAmEIjA5aSgw/PJjIgESIAESIAESELn77rurBIPfclslArBREihCAkmV27POOqsIu0ORSYAESIAESCB6Avm22EbfA9ZIAuVDgD635TPW7CkJkAAJkAAJkAAJlDwBKrclP8TsIAmQAAmQAAmQAAmUDwEqt+Uz1uwpCZAACZBAkRHAcu1YOIGJBEggPAEqt+FZsSQJkAAJkAAJkAAJkECBE6ByW+ADlEg8F4MQv+YbNmyYqEjaeZ9++qmccsop8p///Mdee91110lUETPq1q1rLQ+QN/iH1Xdat24tWK8cFgomEsgXgVx8jvIlO9spHwJbt24VLOTARAIkEJ5ATpXbdu3aycknnxxeGpYMReCaa66xiuBvfvObUOUrK/TWW2/ZgN7HH3+87LjjjrZ4v3795Prrr5cbbrihsssrPf/999/Lm2++acv17NnTyg5FFoHJ58+fb9u87LLLZOjQoZXWxQIkEBWBVJ8j3LNNmzYti+dXOfU1qnsnn/Vs2rRJYARgIgESCE8gp8pteDFYsqoIwFLbo0cPOf300wUKpkv777+/PP3003LrrbdKRUWFy450C2vEIYccIpMmTZJq1arZOJLr1q2LtI1yrAyW8qOPProcux5Zn/Hj65dffrF/kVVaoBVF2Vfee9EPMpTb2rVrR18xaySBEiZA5baEBzdM1+644w75+uuvZeTIkXHFYRnGijxXX321/PTTT3Hno8rYZ599ZM8997RtcBWeqKiynmwI7LDDDvLRRx/Jc889l001RXFtOfW1KAYkICQttwEgPCSBEASo3IaAVKpFYLF56KGH5MgjjxSsP54o9erVS7744guZNm1aotOR5UEWJL5+iwwpKyIBEigBAlRuS2AQ2YW8EyhY5faZZ56JmXy0fPlywapp9evX9/K/+eYbC2zNmjVyxRVXSJMmTazj/W677SannXaawJfUn+DjCQvlgQceKNtvv73ssssu9pX8lClT5Oeff/aKwkqJyVRdu3aVPfbYw74SatWqldx7770xrymDMmJS1tlnny2whEDO8847T7799ltZsWKFbQf5sFDCn3XDhg1ee8GJLQsXLpQuXbrYeiBnp06d5NVXX/XKV7YTlgespKtWrZJUvrtwG0CaMWNGZc1mfP6zzz6Tr776yvretmzZMqaesH3BRe+9956ceuqpstNOO9nxbdu2rUydOlWOO+4475655JJLvPrD1B0cY4wlxnjnnXe2Ywyfclj4gimTupPd42HvR3cfbdy40d4vbvJejRqxCxGGkS3YH/9xqX+OgmMO5QIpmB/2Xkj3vvSzxr4bVzeBNOzzYe3atTJ48GCBixFcgOrVqyfdu3eX2bNne00E+5RpX52Mqe69sPeNJxx3LAEwrVOnDmmQAAmkQ0AtZjFJlTqY0GLyMj1Qi6A56aSTMr3cXqcTkKw8xx57rNGHstEPutFJSKZ69epGv6TNl19+aRo3bmwaNGhg1LpoVGk077zzjkF5tQKauXPneu2rYmNU8TEvvPCC+eGHH4y+jjc6qcTWj7pdevbZZ23ebbfdZtQH1LYzZswYo36htrwr57ZORlWozeuvv250goaZOHGirUO/TAzO64QqK9vYsWNt/lVXXeUu97aqZBp9iJn27dtbuVGPfpEZjSZg9MvJvPTSS15Z7KD83nvvHZOXDo+//e1vXj9jKvEdfPfdd7bMMccc48s1RhVuoz8OzLx582Lykx2g/7ivwMKlLVu2WC4dOnSw/QMzf0qnLx988IFRhdPywPi6+0AVW6M/doyuz+6vOq37Bhe6McYW9xTGZubMmUZ94UybNm0iqTvZPZ7u/Yh7CEwTpXSYJroeeeXwOUI/3Zj/+OOPOPSSyw9zL6R7X3qNJNhJ5/mgPxbNvvvua5+LuH/wOdYfTwbPKFWSzYQJE2JacH3Kpq+oMNW9F/a+iRGsgA7URcvgL9+pY8eO5ve//32+m2V7JFDMBCritNhMlVsom1BewvxBEQ2b3ENXfd8SXnLBBRfYNh977LGY83i4Q6E5/PDDvXw87I866ijv2O00a9bMKs7uGF8GeKAE07nnnmu23XZb+0XhP+dkhHLtT2qFtLK9/PLL/mz7pdO8efOYPBzgywv8oAj60+LFi20+zvtTIuU2HR7qb2vr1TBc/mrj9vFleMABB8TkQxFTS1DMj4eYAoEDp9wmuj/U9cF8+OGHgSuMSacvZ555pu3LU089FVPP6tWrjVq/45TbdOpGhW6McW/4E77s0Cf80HIp07qT3ePp3o+pFIx0ZXN98m/L4XOE/roxT6bwhbkX0r0v/ZyD++k8Hy688EJ7X+pkzZhq1DJr1AXJ/ijDj3uXougr6kp174W9b5xMhbatKuVW356ZYcOGFRoOykMChUygIjK3BLw61Z7G/MGXUy23MXkogwlM6Sa8Yk6U8FoNM+2DIcfgToBX3IsWLbI+o7j2hBNOELW6Sf/+/W0IKueKgNfBqsx61aMuteR6x25Hv1wEMQeXLl3qsmK2RxxxRMyx82MN5qu1VdSCFlPWHeiXg40g4I6xhUsE6oIbAV7fp0rp8HCvIFVhT1Wl4LW2fsHHlFErsiCygVqZY/IrO9AvUe9+gC8vXvEjKsP48ePjLk2nL88//7y9vlu3bjH1wEUFbijBlE7d/mvVSus/FEyGQ/KPZ6Z1J7vHM70fYwT99SBT2fx1lcPnyN/fZPth7oV078tkbbn8sM8HfKaQ8Pz1J/3Bb12e8HlOx9UoTF/97STaD3vfJLq2nPPU6m5drcqZAftOAukSiEy5TbfhdMvjoR5M8OHCBx8he+Bn6XwM3faNN96wl+irQbvFQgH66ls+/vhj+4BHTFc8cN0XgasfdcI3F0ol/NRcfUOGDLFF1KXBFY3ZuhixLhNKt1q0rf+ny8MWeZA5UYIvZ6K0++6722y1RCY6bfPS5eEmb0FhT5XwwyUXoWig5D/yyCPWJ3D06NGiLh2eGOn0BWXhw4z+IBRRMGEM/Smduv3XYR/3mT+54OpuPLOpO9E9jrYyvR/9cmI/G9n8dZX658jf11T7Ye6FdO7LVG25c2GeD26c8XmAn38w6Zszm5WOkaGyvgbbSHQc9r5JdG05561fv976+JczA/adBNIlUDTKbaKOwQqBhz0si1DQgpZjd4wJWUhQUjHJ68UXXxQ8MGDFQhlMPrvrrru8JhD39eabb7YTv95//32riKLc3XffbctgP1cJk0AS1e+UWqfkJmo/XR6Y3IYE5SlZQhxcyOPKJiuXaT6+gNW32baBVdFcSqcvKIsvcViiEZA+mBw7l59O3e6asNtc1J3u/Yj7PFGKSrZS/xwlYpdJXrr3ZZg2wjwf0C6UUXweoFwHEyaRIuHtVtQp2b2HdsLeN1HLVMz14UcznsHJftQUc98oOwnkkkBRK7cAA8UUlsVE0QRuv/12adSokRejFQ8IzFxGwqt4REOAgouHrgt1BVcF1IUHPyIw4LW2e2AHX83biiL+hy8kzIb2pyVLltjX3nCLqEzJTIfHwQcfbJuBe0CytHLlSnvKlU1WLpt89UuUQw89VGbNmiU6ScurKp2+YBY4knsN7CqBdQo/UIIpnbqD11Z2HGXdmdyPiLChk/U8MdW/23P7iEK2cvgcefCy3En3vqysubDPB4TwQ3LPNVcvrLr4nOFNTNCFx5XJZpvq3gtz32TTdilei8gmeAY4a3sp9pF9IoFcECh65XbUqFH2tXbfvn1l+vTp1goJX9Bx48bJTTfdZMPo+EMhDRw4UHSCln1FC4seFjGAZbJz586WL1wG4H8LpQivyhFuDEotfHA10kEuxiCmTlhcdPKAaBQCQQgYvKrXiWw2lA9CkVWW0uEBZRmW4FQLJ7hwalia15/AC+HOsHxutgk/Hm655RZbDay3znKdTl9g/UVot0GDBlkFGRZcjZohF110UUILVTp1p9u/KOvO5H487LDDrEL/+eef2/sIbjga7cJ2IyrZSv1zlO6YJyuf7n2ZrB6XH/b5gHHWCVz284BweLDg4kde7969rd8+niW5UJhS3XvoQ2X3jesnt/8l4FxHcmFlJ2MSKGkCqkjEpEyjJcRU8utBNqHAEGJKwcf9JWpHX9UZjedo9ttvPxvNAKGfVBmzoZr85VVRMwMGDDAtWrSwM+gRyqpdu3Y2LI6+/vGKYuY7yulkIVsfojtg9rEqXp48iMKQSMbhw4fb8F1B2fXLxrzyyive9e78jTfe6LWL2dAI7bVs2TKjVhWjr9rtrGZEJpgzZ45XTpXuuHrQrktheaA8ZuGq8m/UQusuj9litjdkQtguf0JosLDREtSXNE5enUjmr87u65KxXjkXyiqdviDUkca5Ner7bMcXkTEQqUJ/rNjjYINh6k42xqjLjaHb+sPeZVo36gqmsPeju07fThiMD7jjHg5Gwwgjm6sr0bbUP0fqgx83tn369En6eQcjdw+4rf9eSPe+TMQceWGfD+56/WFu9Meejc6CKC+qGNvnilpuXRETdV9T3Xth7xtPuALbqYpoCfomyt5bGi+9wGhQHBIoaAIV20A8fSB7qaKiws5gD2R757mTOwJYMAGW4lRuAlG3Dn9bRJXAjPygZRoWXbgLPP7443LOOedE3XTe6kO0BFjfscgGU+kTqIrPUSZU070vi6VfmbAohmvgPoU0efLkvIn76KOPWmt3Plzi8tYpNkQCuScwuejdEnLPqLRbwGtOjdcpGh9WMJvZJbzKhn/m9ddfXxSKLV7fwS0hGPlhha4ohhXEnNuJ6x+3JJAPArwv80G5dNuA61yqScSl23P2jASyI0DlNjt+JXE1rLPw7YXPMmbmIsFn+dZbb7V/xdJJLHWs7iQCX1OEa3vttdfsWwiEaLvhhhuKpRuUs8QI8L4ssQHNY3ewNLmLpZ3HZtkUCRQ9ASq3BTCEbl12uAEgOgEmWI0YMSKvkjVp0kQw8cTF6kWkiWJyRcCECxfi7be//a2NT3zKKadI06ZNrZKr/th55cnG8k+gED5HwV5HcV8WYr+C/eRxbgjAlUqXl89N5ayVBEqYAH1uS3hw2TUSIAESIIFoCFSFzy0i2mCVOUTdYCIBEghNgD63oVGxIAmQAAmQAAnkkQAtt3mEzaZKigDdEkpqOMXG9YVbA/4aNmwYSe/wgMUrfuePi1i0GjIukrpRCYKUI1KDhu6yKythgY299tpLTjzxRLn//vsFk8KKKbnXyFGOQTH1n7KSAAlkTwDPW0SzoVtC9ixZQ/kRyKlyqzFkbYipTLEiED98JhGmiikcgWuuucYugoDXWVEkLOJwxBFHCBZxcP64/fr1s1EUopqkhSWRL730UtEYtbJ06VIbcF5jAtswZFglDu0XU4p6DIJ9L9bPRbHKHeSf6LiU+5aov8zLPQFErEHCfAgmEiCB9AjkVLlNT5T40oi1i7W18ceUfwKwHPTo0UNOP/10ueyyyzwB9t9/f9Hg7zaSAuIiZ5Ow1PCkSZPk4osvlmuvvdZam7fbbju76hyiNfzf//1fNtWX5LVRfi7q1q0runhGXjhFKXdeBE6jkSj7ls8xSaOLLJpnArr4h2B1TU6GzTN4NlcSBGoUci90hS4bo7SQZSxl2bA0MeJ0jhw5Mq6bsAzrij1y9dVX23i4/iWO4wqnyIClFql58+YJS5111lmRukAkbKTIMov1c1Gscoe5PUq5b2H6zzLRE8ByyVhCuWbNmtFXzhpJoMQJFLTltsTZF3T3YIl66KGHRJdQtv6viYTt1auXXU1t2rRpiU6HynPr28+cOTNheV162K7alvAkM0mABEigRAnActusWbMS7R27RQK5JVCwyu0zzzxjJ0W5yVGbNm2yJIL5mGx09tlny8477yz169e3/rlYkSrdtHnzZmuhxJKY22+/vV3tCq/kp0yZYic8ufp++ukna0ns2rWrIIZl7dq1pVWrVnLvvffGuE8E5cSkLMgJCw/khJ8pgrtDfrSD/D333FPgz7phwwbXXNwEMbzG79Kliy0POTt16iSvvvqqV76ynTVr1gj8WOHHBYvAbrvtZi2v8K31J8TcXbVqlaTy3cVyoEgzZszwX5rW/jHHHGM5oo7u3bvLSy+9FMMxUWXlMgaJ+h68rzL9XLhJbxs3brT3j/ucBS3wYe6XoEz4UobFHfe5qxc/lNw+tk5u18e1a9fK4MGDrTsK7st69erZ+2H27NmuiIRpB8tXJ0quv2gbEy3Dfo4ykcv1LShvZc8qJ2OqMQn7nErEgHnFRQCW22RvtIqrJ5SWBKqAgFroYpLOgjcqRkxepgdq9TMaoy/Ty+11PXv2tPLo2tox9bh8bOfOnWt0QodR659RZdO0adMmpmyYg0suucToUrTmhRdeMLq6ldHX8UYnBtm29QvWq0KXqrV5GnfQrFu3zuiXvxkzZoypVq2aLe8V/HXHyalL2RpdBczKOXHiRFuHKnMG5998802jCq3RiAE2/6qrrgpWY1TJNHXq1DHt27f3+qtf0KZ169ZGlQGjSmHMNSi/9957x+R9+eWXRmfeGrWWGrW22jbfeecdo9ZRo36utl53wd/+9jevny4vuNWZvLaMKqgxp1ThNroUrpk3b15MfrIDnTxmdBUeWxfuPV1u0vTp08c8/vjjRr/o4y4rlzGI67gvw91X2X4ucE916NDBV/P/dtO5X3CVkwn3Ez4zGLv58+eb6tWr28+Jv4xf7q+++sro61d7X2JscV+pgmzwmVFl1EyYMOF/QoVsJ+YC30E6n6NM5fL3DU07LtiGeValGpOwzylfl7kbEQF1wzL4y1fC9xG+E5hIgATSJlARp8VmqtziCwyKSZg/KFdhk/tiSPaFgS9Df8LDBzJA6Uwn4ctVQ1HFXaKvhewXtTuB9jp27OgOve25555rNISV/WL2MnXHyQ9l0p9atmxp5Xz55Zf92fZLXn+tx+ThAF/K6BcUYX9avHixzcd5f0qk3F5wwQW27GOPPeYvavAlXqtWLXP44Yd7+epva8s+8MADXl6iHSgfBxxwQMwpKDdqeYtRlmMKJDhQa5d59NFHLS+1Ytu20V+1/hmdcBZzRbmMQUynAwfuvsr2c5FKkUrnfoF4TqbnnnsuIO3/Dl0Zv9wXXnihHe/gOOOe0JBw9gcrfmy65OpI1Y4rG9ym8znKVC5/39C+kzfssyrVmIR9TgX7zePsCeRTudU3ffYzgR/+TCRAAmkTqIjMLQGvirX5mD/4a2J1lWA+JilFldRKG1OVW4dbrU4x+ZUdnHDCCaJWFenfv7+otclzRcArVlVmvcsRlkytUt6x29EvTdm6dasNZeXy/NtgOCvEcUUK5qu1VZLJrl964lwBXN1wiUBdcCNQJdVlJ9ziNalamONCq8G9QpVtWbRokfWhxcXu1SpizqZKeI2tX+YxReBaoFZtUStzTH6qA1Wu5fzzz7evnnHtrFmz7PK/eC2sPxxElXrv8nIZA6/DGexE8blI537xi9i2bVv/YaX7iLyBhGeFP+GegAsO7q9Eri/ptuPqDvs5ylQu105wG8WYhH1OBdvmcXERUKOFdeM5+OCDi0twSksCBUIgMuW2qvqjr25imnYzS9MNH6YWSlF3AUFsQXyhIqYrvkjcF5xrBEG1ET0ASiX8AuHDh78hQ4bYIurS4IrGbF2MWJcJJVOt3da/1+Vhi7xkssOvOFHS1/g2e/Xq1YlO2zz46kF21A1mTm63feONN2y5Dz74wG4RjgsJCnuqhB818DuOMkFh7ty5sw0RNnToUPtD46mnnvKaKJcx8DqcwU62n4t07xe/iFAewybXDu43+J0Hk5twmOgHcTrt+OsN8znKRi5/W/79bMcEdYV9Tvnb5X7xEYBy26hRIzuXpPikp8QkUPUEil65jQohlDxM8nrxxRdl/fr11oIIi7P6/cldd93lNYPJXzfffLOd+AWHfyiLKHf33XfbMtjPVYIVM1H9Tql1Sm6i9mEFw5c6FEcorKgn0R8mqCFhchsSFMlkCXFwUYcrm6xcqnxMhnMKTKJyTh5MvnOpXMbA9TeXW9z3iVK690uiOsLkoR0ofXhT4J9I6a7FpEYkvF2IKoX5HFWFXK5/ycYE58M+p1xd3BYngSVLlojOpyhO4Sk1CRQAASq3vw4CFL/33nvPHuFVPKIhuNnOLtQVlomFMoYvWkQcQKQB90UUfDWfi7GFAoBZ3v6EhyDcGOAWUZmSCUUdltZE0RVuv/12aynAeST3OuyLL77wNxezv3LlSnvsysacDHkA5RjKOVxBEiWdhGezDz30ULstpzFIxCPqPETc2LJli1ctZmePHz/eHqdzv3gVZLCDkHJI7nPmqoD1FO4peDPQrVs3l531NuznKN9yuY6lGpMwzylXD7fFSwCWW7wdZCIBEsiMAJVbH7eBAwcKHir4UoXChUUMoHzhFTkSXAbgf4tXpKNHj7bxV6HUwgdXZ7X6asrNLixcw4YNE41CIAgXBMUP/qhwxUAossrSqFGjbKilvn37yvTp061VFv6t48aNk5tuusmGHXOhoKAswxIMX95kyYUPw9K8/gReCAOVTGH1l3X7CB2l0RGsog7+KzREGkIjQS6d6Gb9cVG2nMbAscnl9rDDDhO8gfj888/tfQW3HIRnQ0rnfslGRrSjE6Vk0KBBMnXqVGvBhUy9e/e2fuS4t1NZ99NtO+znKN9yuX6kGhOUqew55erhtjgJ4DsF9z+V2+IcP0pdIARUeYtJmUZLiKnk14NsQoGpr6udLaqYvC3CQyG8lD8P+8OHD7ctBvPTCUOmipoZMGCAadGihVHLiQ1l1a5dOxuGSF0PvO4hCgPKIXQVoiMg8gNmVV933XWeXIg6kExOhO8KyqlfogazYoP5N954o9cuZnkjtNeyZcuMWrEMIgog7BkiE8yZM8crp0p3XD2ODwrpK1mj8USNLulo5Vfrs1Hl1IZR8yr5dUcVaaPKrlELbfCUPT7zzDOtTGr5izmP0GBhoyWoJdbKj7BruF8wOx5ton862c4g5FowHFg5jUEMWD2I+nOhbysMxkv9V+09HYyOEeZ+SXSv4172p2RyuzIan9aocmujheBzpQqovc/VcuuKJPxMBdvxCifZCfs5cpeHkStZ3xJxcZ/F4Gfd/6xKNSZhn1NOfm6jI5CvaAn6Zs0+wz/88MPohGdNJFBeBCq2QX/1QeuliooKu9hAINs7z52qIYAoCQhQn8pNIGrJ4G+LKAqIThC0TMOiC1cBWFvPOeecqJsuyPqqYgwKEkQRC8UxLOLBq2LR9ce8lWDy5Mk5lQRvKvDGCs975/aW0wZZOQmUHoHJdEsovUGNrEd4fauxOQWRCjBL2yW8uoY/5vXXX182iq3rO7ckQAIkkEsCmFeBsHFUbHNJmXWXOgEqt6U+wln2D9ZZ+PbCRxfREZDgo3vrrbfavyyr5+UkQAIkQAI+Ak659WVxlwRIIE0CJa/c4tdvZX9/+MMf0sSWv+JuvXm4ASA6AfoyYsSI/AmgLTVp0sRO9HGxehFZoVxcEQC6EMYgrwNego1xDEtwUEuwS3AFQ6zx4IIfJdhVdokEckqAPrc5xcvKSYAESIAESoFAPnxuZ86cKYg+g/COlYV2LAWm7AMJ5IgAfW5zBJbVkgAJkAAJkEBaBDTyjQ3XSMU2LWwsTAJxBArWLcG9RsRr+IYNG8YJzoxwBHLB8dNPP5VTTjnF88HVMGiiIeTCCRSiFBZqQHSGo446yq5ehUU1NESYnHjiiXL//ffbGLghqimYIrkYA9e5XNbt2sj39oknnvBcidwy0PmWge2RQFUQgHLboUOHqmiabZJASRHIqXKrcWJtGKlMiGncU7uAAhYTYMqcQNQcsXCDxp+1r86cD26/fv1s5IQbbrghc0F9V2IZ5EsvvVROPfVUWbp0qQ3qr3GAbegxrAyH9ospRT0G/r7nsm5/O/nchz83QhF26dIln80WZFvff/+9NG3aNOPnaEF2ikIlJIDVIV977TUqtwnpMJME0iNQI73iLF3OBBAtoUePHnL66afLZZdd5qHYf//9RQPZW+UTq+pgtbFME2YKT5o0SaAwX3vttV41aAMRGtavXx+pldhrgDskUIAEoOTrIjL2L1vx6tatK4jzC+sgU+ERgOEAP2aOPvrowhOOEpFAkRHIqeW2yFhQ3EoIYDliLD08cuTIuJKwsOsKPnL11VcLLBCZpv/f3rfAbzVl72/327jLMKRyif5hFIbGpZBR7oaRIXdTbuOSS1IuPyFkRCYUZghFmUFTRCXXihk1E7mEXGpELiNEF+z/ehb7dc55z3nfc8573u97e9bn8/2+5+yzz9prP3uffdbZe621MVML2nrrrUNZlKI4hzJkIhGoYgRkpz7z9ttvm0cffbSKpaRoWSCAjw7Z2dFss802WbAjDyLQ0AhQuW3o5o9fecwg3XHHHUa2yFX717A7DzvsMN1Bbdy4cWGXY6XJdsaaD17DYSTbDevOPWHXmEYEiAARqFUEYHqFWdvll+druVbbkHJXDwI18xTJfutG9l9XB6PVV1/d7LXXXkb24M5D8tNPPzW9evVSj9NVVllFndE6d+5s7rrrLvPNN9/k5Y9KWLJkic5Q4isa5a233nq6JD9mzBgDhydHmKWEM9W+++5rNtpoI7PaaqsZLM1jC0UsJzp6+OGHc04ycJKDU1a3bt0MZmbWX399AzvT//3vf+oshaV/pMNjFsvzX375pWOTi7nqHO2wjA/bROQvhEuOQeDg448/NrBjRSzblVde2TRr1kx3H8MSmZcQZ/ejjz4yhWygseQJevzxx723JjreY489FEfw6Nq1q3nqqad8OIYxa5Q2CKt7MC3Nc4J2x4wR8J48eXKO5ZVXXpnrs96l0vHjx+fSN9hgg1z+YB9/9913tY+vs8462sexjTNmIYMEmWFfjR3x1lhjDYM+ELV0nrat33jjDTWXwbOGZyfsD/UFoQzvdaxIRFHQoS/u8+gdp6LwD+K5ePFiFSOYXgxnJ+OiRYt0zHR1W3HFn6zS4o53UTgwvTQE8E7Bs0c789Jw5N1EIIeAzMj5SBQ1Kxd9aWlPZJbPikKa9na9T5QpKy89K8qslReeFUXPygvEbr/99lZeClaUnxz/+fPn21atWllRMq1sG2vFRtTKMrrt37+/1mnQoEG5vMUOTjnlFC33iSeesF9//bXyEecd5SODUO52lAO8rr76avvZZ59ZURbt4MGDrXx9W+QP0iGHHKL5ZftaKzt/WbGxssOHD9c0US4srs+YMUPrKREDNP3cc88NsrHARRQB26FDBztlyhTlE4ULbkb+TTbZxMdHYinaFi1aWJkttTLbqmW+8sorVmZHrXipK193wz333JOrp0sL/koAcs0jyonvEtpOPg7s1KlTfelRJzKDYZs3b668gO2GG25ojznmGDtixAgrL+i82xqlDfIq7klI85yg3YEd2k2UP4s+KYqPvf322z2crfYz8eD2peFkxx13tKIs5qW7Po5f1zdlJt7Kh5+V4PS+/BKw3oryq30Tzxqe75kzZ1qJ9Wnlg8vKB6ovf9q2Rp/Gc4v+M23aNLvCCivos7rffvvps/rWW2/5ysEJnq377rsvLz0sIcnz6MapuPg7POXj3Fe0S4+DM27EeBHWjrgWd7xD3kYl+cix+CsHYWzEWPfqq6+Wgz15EoFGQ2BUnhabVrnFywIPZ5w/DOpxCS8N8AwqRngBIh3XHZ1wwgmahjoEqUuXLjaJcgslWUJRBdnY1q1b60vSXcDLtlOnTu4099u9e3crIaxUccglyoF7IUGZ9FLbtm1V9qefftqbrMq62J/60nDicIEi7KUwXFz+oHJ7/PHHa5nBFzhevlAqoLw4EntbzTtkyBCXFPoL5WjLLbf0XYNiITODPmXZlyHkRGap7N133614yay0lo32hjIlDme+OxqlDXyVDpy4/pDkOQniCMwl5JoqofgodBSlFBVTbtEuXoJigDbEB6AjCYyvaQ8++KBL0l/ZjU/7YJhym+Z5E5tVH393IisEWv7pp5/ukvQXH9J4XpYuXepLjzpx+Md5Ht04FRd/N2ZEKbdxcIbcUe2Ia3HHO+RtVCqncnvFFVfkTT40Ks6sNxHIAIHslNswYbKaucUsoizx5xWBFzFelpiBBGGGF+eYsS2VTjvtNOUlZgGqWMtSZSKWAwcO1Psxc+Ul96KSJX5vshWzBs0fnJmU5WAL5S5IeJniZRVGQVyQB/mDyi3wwgwzZu6C1L59e5Vn7ty5egmDL7AdNmxYMKvvHAp9sBxfhhQny5Yts5MmTbISIkplwIfU9OnTi3KqtzYoVGG0bxbPiZjHKMb4sHAUpRQVU269CjJ4YQUCfUhMXBxr7dtIw4xtkMS8J2/mNpjHnRdr608++cRlzftFOWLSY7158Jxec801eXmjEpI8j4XGqTD83ZgRpdzGwRlyR7UjrpU63oFHvVM5lVusduGjh0QEiEAmCIyqCZtbZycnL0EfyXK1ni9YsMDAZgz7ciPoO+xPSyWZoTRiLmDmzJmjdlCI6SqzvxryyssbZSJ6AOxsYbfo7NkuuOACzSYmDd7suWMXI9YlwIlAlDa1m3Vp+EWa13bXew22jGHkxSXsOtIcXuAtL9uc3E5+UR71VuxzDgKuIFE09TfqH+wVYXecJcE2cO+999YQYb1791abZ5npyxXRKG2Qq3DEQRbPiayqKHdRmCJKiZ+MfuUl2JaCXH9GH4Q9OfoWwlQFyfVjb3rathbFzsvGd3zOOecYPKe33HKLps+ePds8+eSTpkePHr58xU7iPI/uuYsap9LgXwznYnLjetzxLg4v5kmGAGyhX3jhBfXbSHYncxMBIhCFQE0ot3ihhRGUWhBegnAewyAPpwu8MEslKHlw8po4caLGVoUTh3xPqLPVDTfckGMP5y+x6VXHL7wU8eJGPjGB0Dw4LhfBKSWMvxeXqLKBF17GUByhsIJP2B8c90BuO8iotkAexMEFD5cXaUkJToLuBR92r5MHzneOGqUNXH2jfqPaxtsfij0ncBoEwTnSET68ZHneneZ+EXO4FIIs+BDFM4v4nkESG/Zgkjp1Zv28iT239jnsfgfl809/+pMRkx39WM0ToEBCnOcxDf4Fikx0CWNaFMUd76LuZ3p6BMQWXMdgfMCTiAARyAaBmlBu8eKDt76XXn75ZSPmCOq975QphKIChcWEbNeunZFlUS+LgsdQ/ODFDcL2r4iG4LyUXagreLhCGYMigIgDiDTgXiBJIjMUFKTARSgF8M72Uhgu3uveY3EgUs/wsKgT1157rdlss81yMWu33XZbvXXevHleFr5jsZPUc5fXdzHmCZRjKGPi9BN6hzjhaTraE9RIbaAVLvAv6XPi+rFjCcVOzD905l0crVyyfqy4tnWJmNl9//333WnqX0RoACECg5fERMAgwoGXytXWUDjF5lb7HRRbsUE3Z599trfoWMdxn0c3TsXFP1bhMTIhmor3IwWxpMXMSO+MM97FKIJZUiCAsIfiIO37oEzBhrcQASLgRUCUCR+ldSjzMfnxJCubW9iKwfYUXs6ILhAVFcB5IYuya8eOHau2t7AZhT0ZnNgk/FaYmKFpMgusUQNgHygvLQsb2csvv1xtBiVkUO4e+drWNDhcwVEGkRVkSdOKYqjp8BL3UpT9HLy2YUsaJDhjof5Bgo0fZJTQMTmP9ChccG+YzS3qJDt/2c0339zC4UZm4qzMPllEaYANotcxT2akNWpBlLc1ykA0A+lbVnYrw2mOkkRLQKQE8EC0BDi6wbEI+L/zzjsWdpWIkAFbT6Q5apQ2cPUN+3U2n0meEzwTcEaCjbo3WkLQrlp2o9M2ufnmm9U2FpEFZDMNta0uFC0haCMqJiXKx+t0BV6IpAE7bRctQTbysHgeZEUmz+Y2q7YOYohnF9Ec5ONUnRiD14udJ3ke3TgVF/+oMSMqPQxnyA+nWowZ8lGiY4as2uS88+OOd8VwqOfr5bK5bdOmTWhknXrGknUjAmVGoHodypyDCBQdvPhkz20NBya2efoSgtIHj+YgwSlEbOjU+xfOTVB04YgkJgPBrAXPJc6r7dmzp8XAA0UPL+Bdd91VwyRB0XOElyLyQRlDeXhhwTHgoosu0hc55Icy5kK94Nz99e3bVxV1d+5+BwwYYJ2S59Lwe9lll7lic8oqQsdAEYDTGV7OQVy8ODpeKNcRlFmJC6wKLuSX2WcNwxRUypH/4osvtnghQuEMI3i+o62CHuZwlogbLUFm57RdEUYNH0dwjkOZqN9OO+2kIdeCTneN1AZB3L3tW8pzAuUG/QiOe0HCRw9CReFZQh+DAo0PKfRr16egUEX1cfBz+dyvN0QgFGuJc2vFDl35I1wYPk7x4ebyn3zyySpWKW0NXoUIzqPIE4xYUuged819PBZ7Hl3+4DgVhj8+El393S9C4qXFWVaiLJ5FfCxjvPJGPok73jn5G/G3HMqtrIRpGyNqB4kIEIHMEBi1HFjJwJmjUaNGaeD1QHLuOg+qAwFsmICl20JmAllLCptOCVlmEIxfZnd97GE2AlMBmb018jHhu1avJ5Vog3rFshrq9de//lUdq5zpSxKZ2BeSoFWbeeXjXQUfPXp0ZhXA5kKysmhgrw2zERIRIAKZIDC6JmxuM6kqmZSMgMwuGVnGNohUAO9qR4goAfvdPn36NIxi6+rO3/pBAB9s2N2QRASaCgHY24qpFxXbpgKc5TQMAlRuG6aps6koZmcxs/XYY49pdARwHTp0qLnqqqv0L5tSyIUIlB+BO+64w8C5C454UGwRgUNsictfMEsgAoIAVkfhwInt4UlEgAhki0DDKbeIZlDsTxzHskU5Q25un3iYAcCDHXXp169fhiUUZ9WyZUsjNpHGxepFZIVGMUUAOtXQBsVbiTniIIAIKIhPfeutt5r7779fQ+PFuc/lYV9wSPA3KQLiR2IQes9FDEl6P/MTASIQjQBtbqOx4RUiQASIABEgAopA1ja34nRsJCKNkUgwRJgIEIFsEaDNbbZ4khsRIAJEgAgQgeIIYNXg8MMPL56ROYgAEUiMQMOZJSRGqEZucMujMFPYdNNNM5Fa4gKbgw8+OGdb62YaMmEuTBCUH7aOv/71r3V3OWyWIaG/zP7772+wW9S7776bVVFNwqccbdAkgjdRIfWED0wYnHmT25q6iWBkMXWAwGuvvaablEis4jqoDatABKoPgbIqtxIXVsNGpa02HD222mqrknikLbvW7pO4sOqgIPE2MxFd4l4aiStrfvOb3+RsayUOqEZEuOSSSzIpA9sbn3HGGUZinBoJ3K/bJkt8Xw0phh3fUH4tUdZtEKx7Vs9DWj5p73P1KDc+rpym+IWNORyCJBZvXnFpcUp7X54AVZ7QKPUs1AyYtd1ggw30w75QPl4jAkQgHQJlVW7TifTTXXh5yIYJ+vdTKo/KjYDsWGUOOuggXTKT3alyxcluZkYCy2tUBMRDLoWwbfDIkSONBOc3F154oc42YwYMZSDyAmI/kvwIZPU8FOIjm6QY2aTBX/CPZ4XuC72hQRML4UR8f4gSkNW4XgjPau5+UG4xayu7UlazmJSNCNQsAitWs+SyK5V5++23q1nEupRNthI2H374obn00kvz6oeZYdmpx5x33nka21Z2D8vLEycBM7Ug7G8fRgjJBGcL0k8IZPU8pOWT9r6fatAYR2lxSntfraHaKPWMapcPPvjA4OM+qxWwqHKYTgQaGYGqnrlt5IapVN0x64T4n7L1rdq/hsmB2KDYGW3cuHFhl2OlyTbFmg9BzMNIthHWHdjCrjGNCBABIlCrCGDWVrZAZnzbWm1Ayl0TCFStcosBwDls4Hfx4sU+QLFdIXYTwjL2KqusosvaCIaN7Qy/+eYbX95CJ0uWLNEZym222UZ3iVlvvfV0SX7MmDHq8OTu/fbbb3Umcd999zUbbbSRWW211cx2221nbrrpJp/ZRFBuOGV169bNYLZi/fXXN7AzRbB4OEth6R/pG2+8sYE965dffumKy8VSdQ5i+NKHfR/yY5vGvfbayzz//PO5/MUOPv74YwM7VsSoXXnllU2zZs105hW2tV5C/FzEXixku4utRkGyH7r31kTHsse94ggeiPP41FNP+XAMY9YobRBW92C/cs9DMB39Cv1tnXXW0f6GrZK9qx/B/I6Pc/ZatGiR9iv37LmZ+aj7IGvcdgmrV5y0uM+6Nx/6OOLXom9Nnjw5V0ywHsXwcje+/vrrahuOXfqgmKD/Pvfcc+5y7jfIPwt8wbycdcsJ/+OB6wtJx540Mjp8grgVaxcnY1R/RVXiju3B+pf7/JFHHjFdunQxdEQsN9Lk39AIyEydj2Qp2AogvrS0JzL7Zw844IC0t+t9Ypek8ojCmuMzf/5826pVKytKppXtYK3YiFpZRrf9+/fXvIMGDcrlLXZwyimnWHlh2SeeeMJ+/fXXykccX5SPvBRzt6Mc4HL11Vfbzz77zIqyaAcPHmyXX355i/xBcnLLtrRWdvSy4kRhhw8frjzkhWtxfcaMGVYUWisRAzT93HPPDbKxomRaeZnaDh062ClTpigfUXTt9ttvb+UFbkUp9N2D/JtssokvTZbBbIsWLazMllqZbdUyX3nlFSuzo1YGWOXrbrjnnnty9XRpwd+FCxdqHnnB+y6Jwm3l48BOnTrVlx51Is5jtnnz5soL2G644Yb2mGOOsSNGjLDy0sq7rVHaIK/ingTXr7zPAy67dPy6fiKz4lY+wuzOO+/s4fDDocsf5IO+JtuB5uV3CWH3JW2XsD7q+Ad/4z7rLh/6OORBH33jjTcsnj9R0uztt9/uY+3qEQevN99808rHgj5XGCfwzM6cOdOKs6WVj0UrH9c+3jhx/LPAt5x1yxPck5Bk7EkrYxAfh1ucdoGohfpr3LHdU+WCh2KOZfFXCn3++ec6bt97772lsOG9RIAIFEZgVJ4Wm1a5FcP4nJICRaXQH15AcckNdt5B8IQTTlD+kDVI8kVskyi3UJIlFFWQjW3durUNKredOnXKy9e9e3crIaz0Zeq96OSGMumltm3bquxPP/20N1mVdbE/9aXhBC8YYAlF2Et4uSId170Upjgcf/zxmve+++7zZrV4IeHFvOOOO+bSxd5W8w4ZMiSXFnYAhWHLLbf0XYKyLLNlPmXZlyHkRGZu7N13363KgMxKa9mol8xyW3E4890BpaUR2sBX6cCJ61fe5wFZXDow8hJexsATH2NecvmDfAopC7g/7L6k7RLWR72yeY/jPusuX7DPoH9JeDlV8vEB7MjVIw5eErxfMXzwwQfd7forOwTq81Nu5bacdfNVKHCSZOxJK2Ow/yVpF4hbqL/GHdsD1Y48zUK5xRiM9wUmSEhEgAiUDYFRmZklYGlSxPT9wW5TZm59acgDZ6VSCB77oLBtCx977DFzzjnnxGaP5SGZ6TI9evQw06ZNy5kiyKyPEUUqxwfLu97lTXdBXgBm2bJlGsrKpXl/g+GsEMcVFEyX2VYDR4MwkgHcOFMAdx0mEeAFMwJRUl1y6C+W/GSGOS+kGswrRNk2L730ktrQ4ma3TIiYs4UIy9XyYvJlgWmBDNpGZpl96YVOYFJy3HHHGciIe7HXOsIsYYlTPhyMKPW52xulDXIVTnEgs7S+u2RmXM+j+pYvc8qTtO0Sp7i4z7rLh/HGS+hfMOdBXw0zo4mD1/jx45Xlfvvt52Wtz598BPvSynFSzroVkzfu2JNWxqjy47RL1L0uPe7Y7vI3xS/GObxXYDJDIgJEoHwIZKbclk9EP2fYUcmSo9orwf60VJIZSiPmAmbOnDn6ElxrrbXUHsoN1o4/ykT0ACiVGJicTeIFF1ygWcSkwWX1/YKfl6BkIvwL7Ga9hDSExwkj2E+GkSzja/KCBQvCLmuawwu8YS/o5Ha/06dP13yy9Kq/zg4MCnshwscM7I6zJCjMe++9t4YI6927t35oyGxZrohGaYNchVMcoI29BNtTUFTf8uZNe5y2XYqV5/ou+mShZ71YPue8GPZRXQwv8IYtPGRA2KkguWcwmJ7VeTnrFkfGOGNPKTJGyVCsXaLu86bHHdu995TzGDjhQ0lmp8tZDHkTASIgCNSccouZGAx8mGH0OmClbU0oeXDymjhxohF7KJ1BxOyy2OqZG264IccWzl9i06uOX7Nnz1ZlAfnEBELz4LhchFnMMP5OqS30ggVeeEFBcYTCCj5hf3BQA8G5DQSFJYoQBxc8XN6ofIXS4QznlI6wfE4eON85apQ2cPWtxC+eh6RUrnaJ+6wXywcHSRBWKpISeEOxxniDzQeChNWGJJQU33LWLY7cccaeSspYCM+4Y3scHLLII/ba2oeo3GaBJnkQgcII1Jxyi+ogFBXo0Ucf1V/vv3bt2hlxzPImFTyG4gdPaBCW4hENwXnuulBX2CYWyhhejog4gEgDblANLs0XLCzlRbxYES3BSy+//LKaMcAsopiSCUUdM61h0RWuvfZas9lmm+l18N922221GIT6iiKxNdRLLm9UvkLpUI6hnMMUJIzECU+T0Z6gRmoDrXCF/mFFYenSpbnSEYd42LBhufPgQbnbJe6z7vK5Z9bJidkymLpglSFoVuDyFPt15k/OPMHl/+STT3QLVXce5zcpvuBZzroVkznu2FMpGQvhGWdsL1b/LK+Lo6xukJLV9uhZykZeRKDeEKhJ5XbAgAFGnAVUicXLDDO4UMZOP/10tT9NotyiQU899VQjDloaOgYKFzYxgPKFJXIQTAZgJ4VlzYEDB2r8VSi1sMGVSAeap5z/MFN98cUXG4lCYBD6Boof7FGx5IxQZMUIeCFk2kknnWRgk4xZWcw4DR061FxxxRUadsyFfIKyjJlg2PJGkQsfhq15vQS8EO4sSmH15nXH2KwBgz5sQqGIvCuhrBDmB3KJo5va4yJvI7WBw6YSv+3btzdYmZg7d672N5jrIOxVFJW7XeI+6y4f7O3Hjh2rYwLqcfTRR+uYgOek0EpBVP2QLhFSDEIEgjfiMmMG99VXX9VnMMxUoRCvpPiCVznrVkhWXIs79lRKxmJ4Fhvbi9U/q+sYt9Evf//732fFknyIABEohIAocT5KGy3Bx+THk1JCgYnNa85zXuTXY4SJciSzJlZeNhplAN6nMntpxRHJygvNZYn1K4qa7dmzp23Tpo2VWQANZbXrrrtq6CCxU8zxgLc58iF0FcpDxAd4CF900UU5ORF1AGGwnLzut2/fvhbhu9y5+5UXgkU4LHfufi+77LJcufBYRmgveZlamXmyiCiA8E6ITCBxNnP5ROnO44NyHcnyopW4wHbzzTdX+WX2WUMZIVxUkESRtqLsWniDhxG8xyGTzPD5LiM0WNxoCTLjp/IjjBr6CTzaUSbqJ852GnItGA6skdrAB6ycRD0PUf0N97v+5H4Rli+KjytPVjEs2hFe6OjrLmpGofvitkuxPupkCP7GfdaD+UQx02dGZm5zLJPi5W5EWLFDDz3Uig19LryaKCtWnNVyOMtW0mXBFzKUs26ujsHfuGOPuy+OjFH9KG27RPVXyBR3bHfyF/stJVoCoiRgfBMTmWLF8DoRIAKlIzBqOfCQl1+ORo0apUHgA8m56zxoWgQQJUFeGrloBk1ROmZ2EUUBXvDBmWnM6MJUALOtiGrQCFSJNmgEXFnH6kaA/d7fPvJRrwmjR4/2X4hxBrt0OHUGzWZi3MosRIAIJEdgdE2aJSSvJ+9IggCWIiX+p0GkAngcO8ISNex3+/Tp0zCKras7f4kAESACaRCAUyycyWiSkAY93kME0iFA5TYdbnV/F2ZnYdsLG11ERwDBRveqq67Sv7oHgBUkAkSACGSAAFZD4dMgZi0ZcCMLIkAE4iBQt8otohkU+7v88svjYFSRPG7vdJgBIDoB6tKvX78mlaVly5bqBOFi9SKyQqOYIgDoamiDJm1wFkYE2O8z7wOya56BWUJS58PMBSFDItBACNDmtoEam1UlAkSACBCBdAiksblFFBjsEvj3v/+dmzekg513EYE0CNDmNg1qvIcIEAEiQASIQDEE4Hjrdr0slpfXiQARyA6BujVLyA4iciICRIAIEAEikBwBmCRICDGDXdxIRIAINB0CVG6bDmuWRASIABEgAg2CwFtvvWWmT5/OKAkN0t6sZnUhQOW2utqD0hABIkAEiEAdIHDvvffq1uiy4U4d1IZVIAK1hcCKUeIifAmJCBABIkAEiAARMLqRzqabbhobivvvv1+jy2CLahIRIAJNi0CkctutW7emlYSlEQEiQASIABGoYgRgPxuHXnrpJSNbNpvhw4fHyc48RIAIZIxAXiiwjPmTHREgAkQgEQLffvut2WWXXcyaa65pJk+erDGeEzFgZiJQYQROP/108+STT5rXXnuN/bfCbcHiGxIBhgJryGZnpYlAFSOA3ZzuvPNOM2XKFDNs2LAqlpSiEYF8BBYtWmTuu+8+07NnTyq2+fAwhQg0CQJ0KGsSmFkIESACSRDYYYcdTK9evcyFF15o5s6dm+RW5iUCFUUAsW2XLFliunfvXlE5WDgRaGQEaJbQyK3PuhOBKkYACkK7du1Mq1atzLhx46pYUopGBH5CYKeddjJt2rQx99xzz0+JPCICRKApEaBZQlOizbKIABGIjwAC38M8Yfz48QazYSQiUO0I/Pvf/zZwJoNJAokIEIHKIcCZ28phz5KJABGIgcAZZ5xhHnjgAfPqq6+aDTfcMMYdzEIEKoNAjx49zHPPPWdmzZpFe9vKNAFLJQJAgDO37AdEgAhUNwLXXXedWWuttczZZ59d3YJSuoZG4KuvvjKIbXvaaadRsW3onsDKVwMCdCirhlagDESACEQisMYaa5ghQ4ao4vDwww9H5uMFIlBJBGBj+91335ljjz22kmKwbCJABAQBmiWwGxABIlATCBx33HFm4sSJuuS77rrr1oTMFLIxEIBSu80225h99tnH3HbbbY1RadaSCFQvAjRLqN62oWREgAh4EbjxxhvN999/b3r37u1N5jERqDgCDz74oHnnnXfMeeedV3FZKAARIAKcuWUfIAJEoIYQGDVqlDnqqKPM448/bvbdd98akpyi1jMCO+64o2ndurUZOXJkPVeTdSMCtYLAaJol1EpTUU4iQAQUgcMPP9xMnz7dvPzyy+ZnP/sZUSECFUUAoeq6du2qIcDat29fUVlYOBEgAooAlVt2BCJABGoLgQ8//ND8v//3/8yJJ55o/vSnP9WW8JS27hDYa6+9zKqrrmoee+yxuqsbK0QEahQB2tzWaMNRbCLQsAhstNFGZuDAgQY2uFOmTGlYHFjxyiPw4osvmqeeeop24JVvCkpABHwI0CzBBwdPiAARqAUErLWmS5cu5v333zczZszQmbNakJsy1hcChx56qJk/f755vObueQAAQABJREFU4YUX6qtirA0RqG0EOHNb2+1H6YlAYyKw3HLLmWHDhpl58+aZa665pjFBYK0risDMmTPNP/7xD9OnT5+KysHCiQARyEeAM7f5mDCFCBCBGkHgpptuMueff77B8nC7du1qRGqKWQ8I7L///ubjjz/WvoePLRIRIAJVgwAdyqqmKSgIESACiRFA3NuOHTuaRYsWqZKx4oorJubBG4hAUgSeffZZs+eee5oJEyaYzp07J72d+YkAESgvAlRuy4svuRMBIlBuBN544w2zww47mP79++ssbrnLI38isNtuuxlsC/3EE08QDCJABKoPAdrcVl+bUCIiQASSILD11lubvn37mksvvdS8+eabSW5lXiKQGIGHHnrITJ061QwYMCDxvbyBCBCBpkGANrdNgzNLIQJEoIwIfPvtt2aXXXYxa665ppk8ebKhDWQZwW5g1t99953ZfvvtzXbbbWfuv//+BkaCVScCVY0AZ26runkoHBEgArEQgK3tnXfeqXFvEUWBRATKgcBf//pXM3v2bHP55ZeXgz15EgEikBECnLnNCEiyIQJEoPIIXHTRRebWW281r7zyimnevHnlBaIEdYPAN998Y1q3bm0OPPBA7WN1UzFWhAjUHwJ0KKu/NmWNiEDjIrBkyRINCdaqVSszbty4xgWCNc8cgf/7v//T7Z7hwLjxxhtnzp8MiQARyAwBmiVkBiUZEQEiUHEEVlllFTVPGD9+vBkxYkTF5aEA9YEAdsK77rrrzCWXXELFtj6alLWocwSWr/P6sXpEgAg0GAIdOnQwp556qjnrrLPMggULKlr766+/Xp3b4OC26aab5mSJSs9l4EFVIYC+tMkmm2ifqirBKAwRIAKhCNDmNhQWJhIBIlDLCGBTB3i077rrrlUxg4s4vJ988oluF+zFNSrdm4fHlUUAsWz3228/89hjj5kuXbpUVhiWTgSIQBwEaJYQByXmIQJEoLYQQID9IUOGmJEjR5qHH364toSntFWDwNKlS3W29ogjjqBiWzWtQkGIQHEEaJZQHCPmIAJEoAYR6Nq1qzn22GPN6aefbv73v//VYA0ocqURgPkI7G0HDhxYaVFYPhEgAgkQoHKbACxmJQJEoLYQGDRokPn+++9N7969a0twSltxBObNm2euvvpq3f2uZcuWFZeHAhABIhAfASq38bFiTiJABGoMgfXXX98MHjzY3HHHHWbChAmxpP/0009Nr169zBZbbGEQfQGOYJ07dzZ33XWXQaxTEHZEe+CBB8y+++5rNtpoI7Paaqupje9NN92kynSsgiIyIZwZthLeZpttzOqrr27WW289c9BBB5kxY8YY7JBFahoE/vjHP2pkhPPPP79pCmQpRIAIZIYAldvMoCQjIkAEqhGBI4880hx22GGmR48e5quvvioo4ocffmh23nlntdWFogonsJdeesl06tTJnHjiiWbo0KF6P0KNHXXUUWbvvfc2r732mpk7d67yh1Jc6izxmWeeqQr5zTffbKBogz8U3UMOOcQ8++yzBeXnxWwQwNa6jzzyiLnlllv0AycbruRCBIhAUyFA5bapkGY5RIAIVAwBOJctXLjQXHbZZQVl6NOnj3nnnXcMFFvsRLXmmmuan//856Zfv355DkVQeJF/3XXXNRtssIHBTN/RRx+t937xxRcFyyl0cdKkSaZt27Y6K4wZYZQPm0/sjkUqPwL4oDn77LP1YwUz8yQiQARqDwEqt7XXZpSYCBCBhAjAdAAK4o033mimTJkSefdDDz2k1+CMFiSEgjrnnHM0GYrv5MmTg1nML3/5S7Ns2TIza9asvGtxExBuCjJipnnatGk5UwTsjAWFmlReBPCRsuKKK5prrrmmvAWROxEgAmVDgMpt2aAlYyJABKoJgZNOOkltZ08++WSzePHiPNFg64rZ3VVXXVVnbPMyeBKQD3axiKWLmVts0oC/Cy64QHN9/fXXntzJDjHLPHz4cDNnzhyzzz77mLXWWktnjZ3inYwbcydBYOzYsQYmCbfeeqtZZ511ktzKvESACFQRAlRuq6gxKAoRIALlQwDK57Bhw3QjhbBZOTiPrb322qr4fvnllwUFgYNX//79zR/+8Acze/ZsdSKz1hpEZwDhOC1BToQwmzhxovn88881Ti/4/fa3vzU33HBDWra8rwgC+GDBznbHH3+8Ofjgg4vk5mUiQASqGQEqt9XcOpSNCBCBTBFo0aKFufLKK81VV11lZsyYkccbjmegRx99NO9au3btzLnnnqtmAs8//7xGScC2rM2aNdNZW9zgoink3ZwgATOGr7/+ut6x0korqe0tNqKA0jtu3LgEnJg1CQKubfkBkQQ15iUC1YkAldvqbBdKRQSIQJkQgE0ltuWFeQJCenlpwIABplWrVqrEQpHEDC7inWIjiPnz52v6CiusoLaviKwAO144IEGphQ3ubbfd5mWX+hgziDNnzjQwlViwYIG57rrrdDYY0RlI2SMAe2qEeoNJCEKvkYgAEahtBJaT5a7062e1XXdKTwSIQIMiAOesHXbYQU0LgnFMEX4Ls7sIBQXFFpEQOnbsaK644gqz1VZbKWJQaBFBATO8UHKhEMEJDY5rzuRhxx131HBhzg7XQd23b1+15wxLR7n/+c9/1ObzmWeeMe+9957aACNSApRx/GEGl5QdAh9//LHZfvvt1b753nvvzY4xOREBIlApBEZTua0U9CyXCBCBiiIARRI7UEGZdEprRQVi4RVBAPGDYaKCfgDnQBIRIAI1jwCV25pvQlaACBCBVAjAJGGXXXbRyAgwKeCMaCoYa/omREXAphmILcwwazXdlBSeCHgRGE2bWy8cPCYCRKBhEEAs0zvvvFNjyiKKAqmxEHjrrbfMhRdeaC6++GIqto3V9KxtAyBAs4QGaGRWkQgQgWgEsF0uHMFeeeUV07x58+iMvFI3CGCjjd13310jX0ydOtUgKgWJCBCBukGAZgl105SsCBEgAqkQQEQChPlClASG2koFYc3dhA8aREaYPn06tzWuudajwESgKAI0SygKETMQASJQ1whg8waYJ4wfP96MGDGiruvKyhm1r73++uvN4MGDqdiyQxCBOkWAZgl12rCsFhEgAskQOOOMM8wDDzxgXn31VbPhhhsmu5m5awKBDz74wLRv315tbLHNLokIEIG6RIBmCXXZrKwUESACiRFYtGiR2W677XSDB87gJoav6m9AdAxsgoG4xP/617/MWmutVfUyU0AiQARSIUCzhFSw8SYiQATqDoE11lhD7TBHjhxpsN0tqb4Q6NOnjyq1o0aNomJbX03L2hCBPARolpAHCROIABFoZASOO+44M3HiRDNr1iwG9a+TjjB27Fhz8MEHm7/+9a/m+OOPr5NasRpEgAhEIECzhAhgmEwEiECDIoDtd9u2bavKULH4t999951ZYYUVGhSp2qg2tjCGne3hhx9uirVnbdSIUhIBIlAEAZolFAGIl4kAEWgwBNZff331pL/jjjvMhAkTCtYe27Z+9dVXBfPwYnkQ+Pzzz4syXrx4sSq1m266qbnpppuK5mcGIkAE6gMB7lBWH+3IWhABIpAhAkceeaQ59NBDTY8ePQoqr4is8Oabb2ZYMlnFReAf//hH0ayIgIGdyP72t7+Z1VZbrWh+ZiACRKA+EKByWx/tyFoQASKQMQII8r9w4UJz2WWXRXJ+4403zOuvvx55nRfKgwBCer3wwgsFmd98883mrrvuMvfcc4/ZcsstC+blRSJABOoLASq39dWerA0RIAIZIbDxxhubgQMHmhtvvNFMmTIllCsUWyi4pKZFYMyYMQahvaLo2WefNeeff77p37+/Oeigg6KyMZ0IEIE6RYDKbZ02LKtFBIhA6QicdNJJpnPnzubkk0822KY3SC+//LJ57bXXgsk8LzMCjzzyiIEzXxi9++67amd74IEHGoT/IhEBItB4CFC5bbw2Z42JABGIicByyy2nHvbz5s0zAwYM8N2FmcN33nnHQMElNR0CcOB78sknQ5VbXEPIr1/84hdm+PDhBu1HIgJEoPEQoHLbeG3OGhMBIpAAgRYtWpgrr7zSXH/99eaTTz7J3TlnzhxdGn/77bfN999/n0vnQXkRGD9+vFm6dGmecmut1Rl22OP+/e9/N9iUg0QEiEBjIrBiY1abtSYCRIAIxEfgj3/8o4HydMQRR5hJkyZpbFtnjgBF6/333zctW7aMz5A5UyPgdo8LmiX86U9/Mg899JCGb9t8881T8+eNRIAI1D4CnLmt/TZkDYgAEcgAAcREjaLll1/e7LfffmbatGlm0KBBmg3OZG4DBzqVRSGXbTpMQVwIMK9D2YgRI8zKK69s7rvvPtOxY8dsCyU3IkAEag4BKrc112QUmAgQgXIgANtZbM160UUX6fa7y5Yt8xXTpk0b069fP3PppZdqbFsot7DpXGmllRgOzIdU+U6ef/5588UXX2gBbuZ28uTJ5sQTTzSwi/7d735XvsLJmQgQgZpBgMptzTQVBSUCRKCcCOy8887m9ttv12D/BxxwgGnWrJl63Q8dOtTArhbUu3dv07p1a93c4T//+U8uHBVj3ZazZX7ijSgJmKEFQbnFJhrYVveQQw4x11xzzU8ZeUQEiEBDI7Cc2JHZhkaAlScCRIAIBBCYNWuWzgb+85//zF2BBz7CS6277rrm2muv1VlbN3zuvvvuBrFVSeVFYLPNNjNz587VQvAx8uGHH6qt8xNPPGFWXXVVX+HYgAO20O+9957O6u64444G95CIABGoewRGU7mt+zZmBYkAEUiDACIgYJcyzNZ+8803ygImCLD1dEqt47v++uv7Iim4dP5mhwA+OLbddlsfwzXXXNNcffXVukUyFFnEuMV2u//973/N119/bVZffXVzwgknmF69epktttjCdy9PiAARqFsEqNzWbdOyYkSACGSCAGb+evTooV74YBhUbF0hmClca6213Cl/M0YASuzll19ugrbQcPbDRwfSXUg2zK6fc8455vTTTzcbbLBBxpKQHREgAlWOwGja3FZ5C1E8IkAEKosA4tw+/vjjuinA2muvnbP5DEpFu9sgItme/+1vf8vZOHs5Q6GFYouPDrTVbbfdpjO3cPyjYutFisdEoHEQoHLbOG3NmhIBIlACAt27dzfYuOG4445TLpgxdIRjhgNzaGT/O3/+fDNjxoy8WXPM2IJgTwvlF+3Ts2dPdQrMXgpyJAJEoFYQ+Gl0rhWJKScRIAJEoEIIYLkbERUeffRRs9FGG5kVV/xhHxwoWVRuy9coY8aMMd6PCeCNMGydO3c2zz33nHnxxRfNYYcd5stTPmnImQgQgWpHgMpttbcQ5SMCRKDqEOjatavGtj3ttNNUyVqyZImGpao6QetEIOxKBvMDfEwgFNhJJ52kHxP4yNhtt93qpJasBhEgAlkh0JDREhDo+8EHH8wKQ/IhAkSACBABIkAEiAARyBiBBx54wBx55JFJuY7+YU0t6W11kH/XXXc15557bh3UhFUgAkSg0gjAoWns2LHm0EMP1ZncSstTT+XDjhbhvTp16hTpzFdP9WVdiAAR+AGBbt26pYaiYZXbTTfdNM3XQGqgeSMRIAL1jcAxxxxT3xVk7YgAESACTYhAKcotbW6bsKFYFBEgAkSACBABIkAEiEB5EaByW158yZ0IEAEiQASIABEgAkSgCRGgctuEYLMoIkAEiAARIAJEgAgQgfIiQOW2vPiSOxEgAkSACBABIkAEiEATIkDltgnBZlFEgAjUPgLz5s3TiAjYRMD7h1isXurXr5/vOvKWskXv9ddfn+MHh1gSESACRIAIhCNA5TYcF6YSASJABEIRgGJprTUjR47U671799ZzhAHz0pVXXqnpHTt21F3NcM8222zjzRJ5/NVXX5mtttrKHHjggbk8559/vvL75S9/mUtzB2H53bVCv2nvK8ST14gAESAClUaAym2lW4DlEwEi0JAI/OxnPzO77757aN2hCGNHLvzFoUL5sywnjizMQwSIABGoNAING+e20sCzfCJABIhAFAJrrrmmefvtt6Mu56Unze8YpL3P3c9fIkAEiEA1IsCZ22psFcpEBIgAESACRIAIEAEikAoBKrepYONNRIAIEIF0CDjHsEWLFpnnn38+5yS24oo/LKTBMc3rqLZ48eKCBUXlL7Wcjz/+2Jx11lmmZcuWuu1ts2bNzG9/+1vz73//2yfPkiVLzKWXXqr2xKuvvrpZb731zEEHHWTGjBljvvvuO19enhABIkAEmgIBKrdNgTLLIAJEgAj8iIBzDFtjjTXMbrvtpk5isJn99ttvNQcc03B+yCGHxMIsKn8p5cyfP9/svPPOZtSoUeaWW24xn332mXnqqaf0t0OHDmbq1Kk52c4880wzePBgc/PNN5tPP/3UvPbaa6roQv5nn302l48HRIAIEIGmQoDKbVMhzXKIABEgAjWCQJ8+fcx7771nbrjhBrP//vsbOKW1bdvW3H///ap4//GPf8zVZNKkSXpt3333Nauttpr5+c9/bgYOHGhat26dy8MDIkAEiEBTIkDltinRZllEgAjUDQIrrLCC1qXY0juuu7y1UnmYOiy//PK+UGSQfaONNlJF9qWXXjKI9wvq0qWLmTJliunRo4eZNm1azhThjTfeMJ06ddI8/EcEiAARaEoEqNw2JdosiwgQgbpBALOZoC+++KJgnT7//HOz1lprFcxTTRdhQ7tw4UINQ7b22mv77H9hCzx9+nQV980339TfIUOGmOHDh5s5c+aYffbZR+sKhfehhx6qpmpRFiJABBoIASq3DdTYrCoRIALZIeCW3WfNmhXJFIriW2+9pRsyBDNBUWwKSlrOKqusYtZZZx0DB7dly5blbIJhB+z922uvvVR88D/22GPNxIkTDRR5zPoiH5zPYNZAIgJEgAg0NQJUbpsacZZHBIhAXSCwxRZbqOMUluLdLGawYnDIQpSBbbfdNnjJILLA0qVLc+lbb721GTZsWO48q4M05UAxhYMbojkE6dprrzWbbbZZzgEOirDbVnillVYysL11ERzGjRsXvJ3nRIAIEIGyI0DltuwQswAiQATqFYFBgwapbWrXrl3N3//+d40mABvbDz74QKMMIJIAZi9hvxqk9u3bm9mzZ5u5c+dq9AEs6++xxx7BbCWfpylnwIABBsr7SSedZB577DE1U0DEhKFDh5orrrjCIMyYC10GAU899VQzc+ZMg5nqBQsWmOuuu05nb/fee++S5ScDIkAEiEBiBGT5qOHoiCOOsPgjEQEiQARKRUCcq2z37t2txIO1sqRvV155Zbvpppva3/3ud1ZmPiPZy2ynFWXWSkgw27x5cyu2q5pXbFWtDOS+v2OOOcZKBAJfGvL07dvXRuV3BSctx90nYb1sr1697Oabb25lRtbKDLT9zW9+YydMmOCy6K/EvbU9e/a0bdq0sTJLbCXOrd11113t7bffbmX7YF9enhABIkAE4iKAMe6BBx6Im92bb9RyOEusEdf4DfLS0RqMHj26xmtC8YkAESACRIAIEAEiUH8IwJ5flFtz5JFHJq3c6Py1sqQsmJ8IEAEiQASIABEgAkSACFQJAlRuq6QhKAYRIAJEgAgQASJABIhA6QhQuS0dQ3IgAkSACBABIkAEiAARqBIEqNxWSUNQDCJABIgAESACRIAIEIHSEaByWzqG5EAEiAARIAJEgAgQASJQJQhQua2ShqAYRIAIEAEiQASIABEgAqUjQOW2dAzJgQgQASJABIgAESACRKBKEKByWyUNQTGIABEgAkSACBABIkAESkdgxdJZ1CaHefPmGez7TiICRIAIEAEiQASIABGoHwQaVrmdNm2a6datW/20JGtCBIgAESACRIAIEAEiYBpWuT3iiCMMt9/lE0AEiAARIAJEgAgQgepDANvvpiXa3KZFjvcRASJABIgAESACRIAIVB0CVG6rrkkoEBEgAkSACBABIkAEiEBaBKjcpkWO9xEBIkAEiAARIAJEgAhUHQJUbquuSSgQESACRIAIEAEiQASIQFoEqNymRY73EQEiQASIABEgAkSACFQdAlRuq65JyivQ9ddfb+CBiL9NN920vIUFuEeV/fDDD+dkglyLFy8O3MnTOAhE4Rvn3mrLc//99+f6xKqrrlpt4pn33nvPHHzwweaLL75Q2S666CLzwAMPZC7nv//9b9OjRw+z9dZbm5/97Gf617p1a/Ob3/zGXHPNNWbGjBnGWpt5uY3IEPi6sdH94pmKojj5McY6Xu63X79+OZbfffedue2228yvf/1rs/baa5uVVlrJ/OIXvzD777+/+fOf/2zefffdXN5GOKinMawR2quq6ygDY8ORhAGz+MuCdtllF3vAAQdkwapJefzyl7+0m2yySZOW6QqLKvuQQw7BW9p+8803Lit/UyAQhu+XX35pt9xyy5rrq/vss49dZZVVUqBQvltEobQbbLCBvfnmm3OFvPXWW7ZVq1ZWFJdcWikHovTYCy+80K6wwgr2zDPPtCjz66+/tv/73//siy++aE866SR9VvC8/POf/yylKN7rQQA4A1OMRXEoTv533nlHee622255LH//+9/b5Zdf3l577bV27ty5OvahL1188cVWlGG7/vrr593TCAn1NIalaa9aHa/T1LXQPXgWZdKgUJaoa6MaNs6tgEYiAg2DgIwA5vvvv9e/hqn0jxXFDNsOO+xgnnvuuZKrjpnagw46yBx++OFGlM4cvy222MI89NBDpl27dma77bYzRx55ZO5amoNLLrnEXHfddebWW281p556ao7FaqutZnbeeWf9a9asmRGlKHet3g+ybMdqwEo+SszIkSPNH/7wByMfMjmR0Jeuuuoq8/nnn5dlNSBXUI0dNNIYlmVd6+25idttaZYQFynmIwI1jMCaa65p3n77bfPoo4/WcC0qLzoUzg8//NBceumlecLIbJPB5jDnnXee+fbbb/Oux0147bXX1ORgxx139Cm2wfthClGNJhtBOXkejsCsWbP0AkxOwqjUD6QwnrWc1khjWCPVtVx9ksptuZAlXyJABOoKAcym3HHHHUZMkdQuMqxyhx12mJk3b54ZN25c2OVYacOGDdMZ9t/97ncF86+zzjpGTHjMTjvtVDAfL1YnAj//+c9VsAkTJoQK2LFjR/PJJ5+EXmMiESAChRGgclsYn7JeDTpSwUmlW7duBl9tYmtljj32WCM2dupUgKVQpG+88ca6jCU2OT7ZMFMEh5Z9993XbLTRRgbLl1gevemmm2ItRd977715jg+YoQJ9/PHH5qyzzjItW7Y0K6+8ssFy6G9/+1sDZ5dyEMoFDnh5A4cDDzxQZx29ZS1ZskRnz7bZZhuz+uqrm/XWW0+Xi8eMGWPgpJGE4vKKi3FW7Rp0rsAyptigaj9Anffaay/z/PPPF61qUB7nsBdMh/NKMdxR2Ouvv24OPfRQdYCBHL/61a/M2LFjTefOnXN96JRTTikqlzeDl+caa6xh9thjj0gzgrjt4PBbtGiR4uQcelZc8SdrrLi8IOt//vMf89FHHxnM0EYRzB9Ajz/+eFSWounPPPOM5ilUTiEmcZ7XtG2fhvcbb7yhZhp4ll0bQGmLi32cdgQecWQrhFtTX0Mfx1iNvtK1a1fz1FNPxRqrw+TkGPaDk3RTjWGuT6I/w2kw7tj86aefml69ehmYnuBduu6662rbT548OdeswWcz7XjtZCw0/sXtNznhaulAZiMajqrNocw5UonCaP/1r3/Zr776yg4fPlydEGTQU+cGOC7AyFw8azX93HPP9bXbP/7xD02/+uqr7WeffWZloLeDBw9WZ4Xzzz/flxcnQYN9edFYeeisKMd6v7vhgw8+sC1atLAyy2BlNkpleOWVV6zMKlhZErVTpkxxWWP/Bst2Nzoc8Au+wGHSpEl2rbXWsmJn6LLpryhPVryL7RNPPKGONqIQW9RTnj0rA4Uvb7GTuLySYuzqU0q7QnbgJQqf7dChQw4XOBFtv/32VgZIKy9FXxWL4Rt02HNyenGX2SQrH0h5uL/55ptWPjrUGRHYo0+iP4hia+WjJ5XzVxjPmTNnWokIYOWDKo9n0nYAdmHOPAAtCa977rkn94z5APecLFy4UPOI4uJJtVY+RKx8gNmpU6f60sNO5ANWebzwwgthlwumJX1ek7R9Wt4YK/BMykvWTps2TZ3kMD4lwR6VLtSOSWWLAjGOg5j3Xpcf406xv7A++Oyzz9rmzZvn7t1www3tMcccY0eMGKF4ecsqdMwx7Adn5KYew5KMzfPnz1enU7xL0fcxVsiHn8X7Ac6Dt99+u6+J3bNZyngNhoWem7j9xidYE57gmUrrUIYwMg1HaZVbeC4XG8DcdXTguOQ6MZRHL7Vt21bLe/rpp73J+oCInZYvDQ9Lp06dfGk46d69u5XwMvogeS96FSB4YO+333727LPPtlByvXT88cerDPfdd5832eJBhRe72AX60uOceMv25nc4oC5eOvroo1UGvBAdwTNdwue409yvhElKrNzG5ZUUY1efUtoVFQNe6Fd4kXoJCiDScd1LxfCNGiyDuOM5AX8v7rJUrmkPPvigt0i7YMECK7O4eYqoL1PESRTP//73v8ovGC0haTsUGtyT8BJ7W637kCFDImryQzJeVIhM4SUoeDJLE+tjUGbztJwo5db1BzfWoJ85Svq8uj4ap+3T8hY7byee7zcJ9rixUDsmlc0niOfEKateTD2X8w7j5C8ULQEMZWbO3n333TqJIatz2vZoW0RKEIezvDLDEjiG/aDcxunHUeNNmjHMPYtxxuYTTjhB2zbYpmh/Cf+mkwmYpHHkns1SxmvwKvTcxO03Tqam/sVzkFa5pVmCoBeXsIwmjev7g/2dhALzpSGPW9KPyxv5grZziHcYli4hvIzMVOg19w9L9zI74k5zv/LwmWXLlhnnvJC78OMBlgxRBwlHY2688UYjCrwvC5ZIcA38vYTlNFG+zUsvvaQ2ht5rpR7DG9xLqC/IW+cuXboYmd3VGKAyG5QzRUB9RMnX/HH/xeWVFuNS2tXVQQYo9fh35/iF2Qn6CJbL5WPDeynVcRB3mVFSPl7cx48fr2nyMeQrA6YqMBFJQ1E8UTfEdA1S2nYI8sF5El5ueRCxSAsRzB7kheTLgiVnWVExMvvuSw87cf09yt4S5kAYY7AUGqS0z2uctk/LG2YrYZQE+7D7vWlpZfPyqNSxfLyZ4447zqAO6COyWmWOOuoogyVsmZzQWMbFZOMY9gNCcfpx1HiTdgyLOzYjmgoI+oKX0P4wN8OYkcScKU5dveWEHcftN2H3VnsaldsqaiFZfvdJA6USyibsGr2ENIR18pIscagNKhQe2PE427YLLrhAs0mMTG92PYY9L2wnYTP02GOPGdjdegn2OOCLshBg3PF0v9OnT9fssqzsva3kY5TlJeAA8tZZZs+MmG6YOXPm6MAA7PCgugHEe3+x47i80mCMsktpVyc77I/DSJYxNVlmHcIuJ0oL4g6bMJDDHf0Btt7w0Ed4mSCh3yWlYjxd/bx807aDl4c7TsLLRSbAx2IhwkcwbN7T0p577qm3uucrLp9Sntc4bZ92LMDLP4ySYB92v0srpd6OR7X84sNo77331hBhvXv31o92WSUpKh7HsB8gitOPsx7D4ozNro9iDIHvTJCcc2GSSbFidQ2WEXYet9+E3VvtaVRuq72FYsoHh7P+/furs9ns2bNVIcHszqBBg5QDjoOEgXTixInmkUce0VlAxFv0zgbhixIPLvLhhQ4eYX9wbGpqgoINhzvIj3iQmPWAbHB0u+GGGxKJE5dXGowTCVIgM2ZxwtrQKbVhSmABdqkuoT9gYMYMpthD5/FwsuRdKJBQjCdmsoKUtB3QvlGUhBecOUFQyqIIcXDRTi5vVL5C6XgO8UGHXdrC2jzq3nI+r+XgnQR71DmqHcshWxTGWabDGdQpNWF83biKSYhixDGsGEI/XC823qQZw+KMzSgXyijGTijXQYKjKggrollT1HODcuL2m6xlagp+VG6bAuUyl4HoABgo8WAgqgGWV1yHDi6PekWBooIlUMzCIcoAfjGT613ihrKImagwr3wEkN9ss81KiunplSfJMZRueNiDsEyMKBFQcFHvpGGY4vBKi3GSOhXKi0HR++GBvC+//LKaasD0pBRlqlC5wWvw6ga5pT13HTMO+KhKQ1E8sSwPMxMvpWkHrHwsXbo0xwZxRRFuKymvbbfdVnkg1FcUiZ2wXnJ5o/IVSm/Tpo1BDFuYEiGubhRB/iCV83nNkndS7FHPqHbEtSxlA79ChI99N/YUylfsGj5coEzBrCqMxLlYk7ExSDHiGFYMoZ+uR403acewuGMzwgSCgu8nzOrCFAWrPUFzr5+kTn9U6LmJ02/Sl1zZO6ncVhb/TEqHmUKnTp3UznfgwIEaGxFKLWxwsW95HBKvdIPlL3Ee0hcFHjjQgAEDNGyJbPeppguYtcJs2tChQ80VV1xhEG4Eg30lCDs3iVOVgax4SUARwAsDy3pJqRivLDBOKpM3P776ZUtOI972BqFd8OKDPR5MBxDuralIonFo2LVzzjnHID4nZnAlWoI58cQTU886hPF89dVXtX5B84c07dC+fXtVvGV7U8UPpiwIw5SUFz4iMEMOG+cocuHxJNKDLwv6JEJhRSkyvsxyglUYmBT16dPHnHzyyWrbDtMiPNf4qAFm4nCidfDadJfzec2Sd1LsgU9UO+JalrKBX1MSNmuQ6Aj6oYqx7F0JyYdxFeMrNvKAPW4c4hgWByWjzw5CR2Y1hsUdm9FHxYFLy0XoRMzgYkJAHKZ1QgnjeKGZ/Hi1y89V6LlB7mL9Jp9jjaSIMtBwlDZaQhhQ4oxlxUA87FLRNIQFkm7i++vbt6/uFR9MlwfDImxMMP2yyy7TcuDR3rNnTw0rg+gIiNZwgnhnygxQ7h5ENoCnZpCHmC5oiKJgOkLSgGTZRcOEbb755hp5ASGfEKYJ4aKSkCjeeWWjvlE4gHdQJoe1KBFaX5nlUi99hFnaddddNZyK2IgmEcvG5RUX46j6IHxXsD7F2hUVgUeuzLBbUfg0qgU8qhGmCx74sqVsrq5R+Iodcl65aNsoOcEwKKfDHdcQvkZm+DVEm8wKaNQKRPSQDyxtC+RJSl6eLgSZvACsOFrkZBElT9nGbQcng8yyWYTmgtcwwi6JnZm7pJEg4jw37gb5wLDyMWcRySGM4ImNtpKZYt9llB83WoL3RnHYtPJhaSUuprY5Qr/JCo0VZdleeeWVVhR1b3Y9jvO8pm37tLzRn4KUZTuCdxzZgjJ4z9E/gv0+6lx2kdP+FLyOZ9BL6AvBPBjzQDJ7rc8vQhjiPQKPefQtPN/ywWIR1hHh0+IQx7Cf3qMO3yDu5RjD4o7Nrg1lNcqKUq0Rj/CeFsVYx3SEvHSU9XhdaPyL22+cbE39izZMGy1hOQgrDBqK5AWk9R09enRD1ZuVrU0EsDEAlugLLYdXQ80QLQEzi9iMpF4JKxeIEgJP/+CqCGZ0sYSMWTh4u5OIABH4AYF6HcNqpV612g9hZojNqVJsRT2aZgm12uqUmwhUAAHYpWFJLxgxAEupb7/9diqTkApUI3WRWIKUWJpqwgNPY0cwdYDdJ8wIqNg6VPhLBKoPgUYfw6qvRcojEZXb8uBKrkSgbhGA97Ys5RvYsMIO9MUXX9RtexHy7JJLLqnberuKYXYWNs8In4foCCDYoF911VX65/LxlwgQgepEoNHHsOpslWylonKbLZ4Nyw3LB8X+Lr/88ibFp5g8uN7UMiUBwO0NjuVueOFD3n79+iVhkXleRORw4dcQjxWxbQ8++GCz1VZbqZIrdtm5Mmsd/1xFQg5aigMmnEJcDGNEDuGMbQhQTGpoBGp9DItqvGqsV5SsjZpOm9tGbXnWmwgQASJABIgAESACVYoAJkhoc1uljUOxiAARIAJEgAgQASJABJoOAZolNB3WVVGSW07BFxG23W00wlcgPFwRMNstmyNOKykdAthFy+HotqdNx+mnu8rB8yfupR8hGgRMMZy9LTZcQL/KmrBph4Tz09iY6K9w5MPmEIcffri59dZb1YEv6zLJLxwBjhvhuCRJrfbnOkldkuZt9PduUryyyE/ltkQUJbaqhgUqkU2T3S4xFXWjAwSkr0fCpgKw/0SopiBhl7Xf//73BgH2JcameeuttxpSwQ/iEjwvhGEwL+xMEU1Q4tEGL6U+LwfP1MIEbpS4kAabJqAPOXtbbJeLKAlZOdNJnGbdwOHXv/61bhoBxzVsMS2xVXU7bSjVp59+utlyyy0rsjtgAJK6OC3U5zluRDdxIdyCd1Xzcx2UNevzQu/dJBhmLVc986vM1lL1jCjrVlEEoGhBOcBfkBDXGNfPPvts3WoYu1/B45/kR6AQhv6c1X+GNsZMvWx2UbKwUCoPOuggnTk988wzc/xkgwUjgdc1xu12222XJiZjjhcOoCRjpgdbBENxdoTdi7DNNHY7gxxQequFssS5EnUq1Oc5bkS3SCHcou/iFS8CxNCLRnbHVG6zw5KcqgAB2d0ncrnWKbLYBpUUjUAhDKPvqv8r2N4ZMTIvvfTSvMpiJUR2PjTnnXeexrtNuyW17CZkrrnmGt121avYegvE1rVQgKtJufXKV4vHhfo8x43oFi2EW/RdvOJFgBh60cjumGYJ2WFJTlWOgGx3WeUSUrxqRQCzK3fccYeRbVKNbJMaKuZhhx2mu8iNGzcu9HqcRMzWYtXB7aIYdU+HDh10FSKtEh3Fl+n5CHDcyMeEKUSg2hGgclvBFnr44YdzzjhwyoGjSrdu3Qy+5DC7eOyxxxoEm8buT1iGRPrGG2+sS5VffvmlT/Jvv/1WnVqwbIlYpHBAwRLpTTfdFLpE77tZTu69916fLJAHs1Qg2KeeddZZpqXE9pS97U2zZs10dgr2h0noyiuvzJWx++67524dP358Ln2DDTbIpQfxAQ7AZ5111lF8YFeLXbEcBfMvXrxYL7n0Rx55RM+dMxnspR3JvvSmV69eBkvMqCPit3bt2tVMnjzZZTGOj3OgeuONN3QJGm3l0qAAuWP8ltKmuYKLHGC279BDDzXYPWv11Vc3v/rVrzQGa+fOnXOynHLKKankdxg6EbxlrbHGGmaPPfYoeck/Cc+4/dw5cCxatMjAZtK1iVcZjMsLdUes4Y8++sgUslWH+QPo8ccf1980/5555hm9bfvtt499e5x+ie2bQXGf5bjYxME5SbkqZOAfx41k74IAfL5T77NWC2PFkiVLdKUEW3tDXjhV4l04ZswY4/3oiNtfg89K2vHZ9XuMK3DMhvMn/A7wjoace+21l447PvBDToLyuPE2mF7s3edYx21fl7+uf2VGouFIlg8t/rIgmcmxBxxwQEmsDjnkECudzMr2nVZ2PrJiYG6HDx+uaaJgWVyfMWOGFYXWyn72mn7uuef6ypQtQTX96quvtp999pmVl5gdPHiwXX755a0Ys/vy4kRe0naTTTbJpcvgYEW5s6Ic6/3uwgcffGBbtGhhxd7PyoyUyiDRBWzHjh2teMfbKVOmuKyxf0Upsrvttlte/h133NGKopiX7vDBL8oDPhMmTLCipNqdd945Mv8333zju+b4BNPnz59vW7VqpXUEjgsXLrSiuGp7yOBlb7/99lA+wECUXysKlJ02bZqV5WLFHZldWaW0qa/QiJM333zTirKvbfnEE0/k2kcUWysfIXaVVVbJu9PJFkd+L1ZhZc2cOdOKc5WVD5/QsvIKDyQk5Zm0n0f1NYiRhNc999yTe74CVcidot/gORaFP5eGA3nRWXkp26lTp/rSw07k41V5vPDCC2GXC6YVa9ckz3ISbCBUIZyTlFuoglFlcNzwvwuiMAx71jCWV/NYIR/lVj7aLcY22Q3RyoSLvs/wnGHsdZS0v7pnpdTxGe9R9EtZScm9m0TRtfJxamWSxD711FNORP0NvnfdRSePd7zFNZeO32LvvjTt68qv1l+0s0QqSSPeKCxtNRylVW6hvADsOH9QBuOS68BQHr3Utm1bLevpp5/2JqsitvXWW/vS8HB36tTJl4aT7t2725VWWkkVNu9F70Mms8N2v/32s+JoZaHkeun4449XGe677z5vsoVCCMUJL5aklPYlhTp6Ce2ItoAi7yWHZ9RAEUyXcEvKZ+TIkV42Vr6irSxBqxKNQdWR4//oo4+6pLxfl6eUNs1jGpIgy9cq+4MPPui7umDBAiszCKEKp5MtjvxerKLKkt3TtJwwRdonVMhJUp5J+3lUX4MoSXiJva3iPGTIkJBa/JSEjyGJYvBTghzhI0JWAmJ9CDrlVrY09vGIc1KsXZM8y0mwgWyFcE5SbqF6RpVRTLnluPEDqlHPWjWPFZh0kKghed2idevWecptkvefe1ZKHZ/xHsU7CJNPXsJHP9Jx3Uve96433cnjHW9x3aXH6cNp2tcrQzUeA8O0yi3NEgS9uISlD+kAvj/Y4MnMrS8NedySflzeyIcQQ15ytn3BdJlxNTIb4s2qoa/kS9aXhhN5mMyyZcvMrFmz8q4hAUvrqIPM8Jobb7zRwFnFS1gewbVgaC2YPojybV566SW1M/TeU65jmaX1sW7evLmeB7HwZYpxAk93ENrRS6Ks6VKTDDihS81Y/i9GwbZL0qbFeOM6TDpA8nGiv+4fTEewlFeI4sjvvT+qLNRJXjberLGPk/JEP0zTz8MESsLLLRfKh2IYq1wazB7QX7wkszdGVlMM7GSLkesfzoygWP6w61HtmuRZToJNmAzetCTleu/L6pjjxg9IRj1r1TxWdOnSxciMpenRo4eR1bGcKQLeW6LM5rpI2v6axfgsH10akSUnjBzAJBDPMsyZZCLIeynVcZw+XEr7phKqym+icltFDeTiZjqRoFRC2YQNj5eQFgx1JUuiapuEhwr2os7G8IILLtBbZUnHy0KPYc8LW03YDMHzGna3XoK9E/iiLNhzOp7ud/r06ZpdlkO8t5XtGDJ4CbaxoCAW3jzFjl0dsQEB7KWChPBLoLCPFQxqxaiUNi3GG7LD9hqyIxRTkNAPClEc+d39xcracMMNXdbYv2l4punnUQIl4eU2qMCHYiHCBzBsutOSzPLqrTLzk5aFCWtX18/jPstJsCkkaNJyC/FKe43jhjHFnrVqHStkpcSIiZ6ZM2eOTjRgPIXC6yYkXJ9I21+zGJ/hAxJGbkyUmfGwy4nSivXhUts3kTA1kpnKbY00VDExYWTfv39/dTabPXu2KnyYQR40aJDeiuMgYZZp4sSJBo5WUIoRegiG8Y4wc4kHF/nwUg/OWrtzGM8nISjtS5cuzbsFgeqbmlBHDByYmQs66UEWOBGBMFNdbQTZoZBDdgQCD1IWg6rjWawszEwmpTQ8k/ZzfIhFURJecOQE4SUaRYiDi2fC5Y3KVyi9Z8+e+ryJmUmhbObCCy/UFRU4kMQhYJ3kWU6CDcqPwjlpuYXqwnGjEDqFrxV71qp1rEC/gmM13lN4P2AVAM+Y2MqaG264IVfppP01d2MGB3BGhkxBcpg6JTd4PcvzpmzfLOUuJy8qt+VEt4l4w2sUHuFQwBDVAMtM7mUTXCL1igTFCCYOmPWD9yl+MZPrXUbBIILZKPAP0rXXXms222yzxLsk4eUvdpo+dpgZff/9931pTXWCEE4gsb/yFYmv4UmTJulMXHDZ35exgieI6AByS1JOFOCJj5wsKaosLKFjmTANJeGZpp9j1cP7ISW26ro5QlJe2PYWNG/evMhquj7t8kZmLHAB5h2XXXaZEcdS85e//CU0J7AeOnSoRuooZnriZRD3WU6KDcqIwhnX4paLvIWI40YhdIpfi3rWqnmswAeZ+4CDSRCiAUHBxfvNjddp+mtxtOLnwOSCd1IId7788stqOgizwFI+duNLYTS6D/I3xbsgiVyVykvltlLIZ1guzBRgf4RBauDAgQbKBpRa2CZKdIVYJYm3u8FsEUIF4WUExQ40YMAADY910kknqekCZq4wS4eX6xVXXKE7KXnDK8UpDFuXwk72z3/+s844IpwXdg1rii/cMPlQR3FcMOecc46G0MIMLhTDo48+WhV9hFNz5glh91cyTaJjaHgcyC4RJBRP8YA2J554YuazzWFlvfrqq0acFkPNIuLgkoRnmn7evn17bUsE4pdoBbq8ifBlSXnhJYX+CRu6KHKh8dC/vYQdxRAuDjaDcahfv37moosuMqeeeqr+oi9CQYfyfOedd2qYIYQKw3ESivssJ8UGMkThjGtxy0XeQsRxoxA6xa+FPWu1MFbgOYCZDt5JmA3FZiqYKcVzBUrTX4ujFT8HVv4uvvhiHV8QehAfphgTYTaHd0dTUVO2b1PVqaRypJM0HKWNlhAGVCmhwBAaSBrP99e3b1+LUCLBdHlB2GeffTYvXWZ5VCxEDJAlTStOVhodAdEaTpAoAPKSzN0Dr2JEBAjyFtMFDVMUTD/mmGOUtyy7aJiwzTffXHkjxBTCPyEcVxqS5SWLEC/yRauRCCTmrdYZ8jkZevfuHSoT8AG5fO4X4djEDisvHXUIS8d93tBM8kFgRUHUSBSILiEDlkaQkJnbXBXD2gt8vBSWJ22bevkWOpaZPCsz7lbsxzRCAryLEWFDPnj03N0bJltQ/jCsXD8AH29ZLhTb2LFjrcR4zGF/8sknuyJj/SbhGbefu4Jl1kdDc4kdqj4b3mgHSXnJC8zKh5xFdIgwgrcywuuJIuq7jNBgcaMleG9ExARZks0907LSYiU2s5UXppUXfS5rnHZ1meM+y0mxKYQzyo5brpMz7Jfjxg/vimLvgjDsXJr3WUM0lWofK+SDUd9rbdq00bEMIfXwDCA8o9iPu2ppxJw477+wZ6WU8dlFP5CPfH1f4BnFuIgIKbLld04+mXTKjY/unYVyo8bbKDnB0N3vfr2hSOO2b06wKj9AHdNGS1juR7CER+OQvIS0stgznEQE6hUBLFljBh+BykmlI4BVC0QIgWd2cEUEM7rt2rUzI0aMMEcddVTphZEDEWhCBDhWpAMbG7dgpbSQuVI6ztneVavtC/MTUW7VBCshIqNplpAQMWYnAtWEAExRsGtP0Iv/XdnNDeYebumummSuVVmw/CjxJtV8B17cjuDJDVOePn36ULF1oPC36hDgWFF1TZKpQGxfP5xUbv148IwI1BwCCOkGL3vYlSLkmyxn6zbFCHNzySWX1Fx9qllgzM7Cpg6h8xAdAQT786uuukr/qll2ykYEOFbUdx9g+/7UvlRuf8KCRyUggOWDYn+XX355CSU01q3FsMR14IkIGS5Mzp577qkxjg8++GCz1VZbqZIrdtIVAS6u/BURrsRC4XwpdsbGxchE1BCaIpQIKm8vOwLVOlaUveJlKOD666/X9x3MkeDoifEOjqCVJLavH33a3Prx4BkRIAJEgAgQASJABIhAhRHARwNtbivcCCyeCBABIkAEiAARIAJEoPII0Cyh8m3QpBK45RR8EWHbXVJ9IVDp9r3//vtz5iluy9pqQhiRI2C24exlEU8WMwNZE4K6Syg+jZ+M7Xjh9IfNHQ4//HBz6623qrNf1mWSX+MgUOnnvFaQJk610lLZy0nltkRMJeaehgYqkU2T3X7++edrAGwEpSf5EcAWtrBVRainclG5y6h0+8L2FKEYJe5tuSBMzRebLOy0004GmwE4e1lsOY0oB1k53knsTXPBBRcYiR+qmz7A8Qzbhr722mu6FTaU6tNPP91sueWWiXf2S11x3hiJQLmex3LxdRWp9HPu5Kj230I4lbuNqgmbRqqrw53KrUOCvw2PAJQyKCf4Kxc1RRnlkr2p+WI7aNngI5NioVRi/3nMnJ555pk5nltssYWRQOoa6WDUqFG59LQHUJIxW3TLLbfoTkqIL4l937HDHbYOxdaYbhvUtGVkfV+WOGctW7n5let5LBffcuPRSPwbqY2yrGutjBcrNlJnZl2JQCEEZHeZsi8XN0UZherYqNewZSfiQF566aV5EGAVQ3YtNOedd57Gq026nbRjKLt0mWuuucbITnsGM8JhhK1CoQBjRpdUeQTK9TyWi2/lEasfCRqpjRqprq6HcubWIcFfIkAE6hIBzFrccccdRrbKNr/4xS9C63jYYYfpLkPjxo0LvR4ncdiwYTrr73ZAjLqnQ4cOarqRVomO4st0IkAEiAAR+AEBKrcV7AkPP/xwzvkGDl5wdunWrZvBV9b6669vZF95g6DM2G0KS6pI33jjjXVW6Msvv/RJ/u2336pjDJY+Ee8OTizbbbedkX3oYy2z33vvvT5ZIA9mukCyz7w566yzTEuJ77nyyiubZs2a6QwXbBiT0pIlS3T2DMu1sre5OtqgbmPGjDHfffedj12ccrPCMMhn8eLFPlninHz66aemV69eBkvdWIqGw17nzp3NXXfdpdvgRpURTJf9wXW7QfQBtAP+sMUjqFgZxeSMg2kxHt7rmK089NBDDXbvWmONNcwee+xhZE91b5bccdw+6pxAFi1aZJ5//vkcBl5lMC4vFI5YlB999JEpZGeObTRBjz/+uP6m+ffMM8/obdtvv33s25O0fdy2i4tNHJxRkbjlRlW63p75Ys9gsE3dWBJMr+bnPG6bxe1rwbqnfde5PosxEeMrHDdh3493I94ne+21l44ZUX3RpQfliWojvHvxTl5nnXX0nQx/DOz8GCTvOAg5fvWrX2ksbIz/bgw/5ZRTgrflztPWy9sX8W5ed9111exp8uTJOd5Z1dXJWGhcjttvcsKV80BmNRqOZAnS4i8Lktkge8ABB5TE6pBDDrHSxla28LSy+5EV4287fPhwTRP7PIvrM2bMsKLQWtnTXtPPPfdcX5myLaimX3311fazzz6z8kKygwcPtssvv7wVo3pfXpzIi95usskmuXQZpKwoZlaUY73fXfjggw9sixYtrNgMWpnVUhleeeUV27FjRyve8HbKlCkua6xfecCtKEL2iSeesLKblhUFWuVD/eWBzPFIWm4WGKJwx+ebb77JyRLnYP78+bZVq1ZWPiws2kJsPLVu/fv313YZNGhQjk1UGS4d2AILGUTstGnTrCxla3smKSPYvig8KaY5gSMO3nzzTSuDvvYjtCf658yZM604bFn5ELKi4PvuTNpHRVm2u+22m4+HO0nC65577sk9G+7+4O/ChQs1jyjnvkvysrQS6cBOnTrVlx52Ih+eyuOFF14Iu1wwrVjbJ2m7JNhAqEI4Jyk3qoL19MwneQZdmwbHEpdezc953DZL2tdc3Ut516GfYXxDv5VVEH0H4Z0piq6VD0srSp596qmnfN0xbDxEBidPVBvhOt5x4D9hwgQrk0Z255139vEOGwfxjhTF1spEUN446Ls5cJKkXq4v4t2MdsAYJh9MqkeIQm1vv/12H/cs6gqGhcaLuP3GJ1iBE+gFEs2mQI7IS6OwPNZwlFa5hZIBsOP8ocPFJdfpoDx6qW3btlrW008/7U1WJWrrrbf2paFzd+rUyZeGk+7du9uVVlpJO773ovdhl9lhu99++9mzzz7bQsn10vHHH68y3Hfffd5kiwcLyovYF/rSi51AARRP8rxsrVu39im3ScvNAkMI5fgEB7s8gQMJEvZJcQp7ELt06WKTKLePPvpogPsPp0nK8LavY5YUU3df1K8sv2udH3zwQV8W2bFH+0aYcpukjxYaRJP0d7G3VTmHDBnikzN4gheCRDHwJUMBkdmQWB9xTrmV7Y99POKcuH4X1fZJ2i4JNpCtEM5Jyo2qZz0980meQdemwbHEpUe1dZIyyvWcx22zpH3N1b2Udx36GeqN9zAmfbyEj2uk47qXwnDCdSdPVBuhfl6C7gD+mDxyFDUOLliwwMosbmLlNm69XD8ZOXKkE0V/ZRbaivmVKuKYPHKURV3Bq9B4EZ4Scl4AAAo4SURBVLffOJmK/QKLsHdqsfvkOpXbGCAVzJLlzK0snfrKwiwqGhczeF4SD3IryzDepMjjgQMHKo/gDKt72GU5xUKxxAxxGGGWFbO/+CoMUvv27ZX33Llzg5ciz0877TS9RxxudDYsqEy7G5OW6x7cUjF0fIKDnZMr6hfyoq0wY1uMospw6WKCEMoiSRmufb2MkmLqvTfsGH0QdcaMbZDEJCb2oB7VRwsNosHy3HkYryuuuELlFJtYly30Fx+B3tWM0EwFEvGhBzyilJYCt+ZesoXavtTnMAwbyFQI5yz6TK098y+//LK2I9rS/Z1xxhnafEmeQfc8B8cSl16orVFunLGkXM953DaL6tNRfc3VvdRxGvVGvw0jKHbAD6sOjsJwwjUnT1QbeZVD5MeKKXiLqRNOlQqNg3hHBj/y3X1hv0nqVagvikmjynn33XfnismirmBWaLwotd/khP3xAFinVW5pcyvoVQu52JtOHnmZGXhXw4bHS0gLhqsS5VNtWWFnC7sbZ+eDmJsgMQHwstBj2PPCXhK2S/Deht2tl2A/A74oSx6kHE/He/r06ZpdlmW8txU8ltkzIyYXZs6cOWorhTrLzKaGY3I3llJuKRi68pP+OnmxaQFsv0olGTzyWJRahrs/q7YEP9h9o84IDROkDTfcMJikfQnRCpL00TwmPyYk6e9uM4lly5ZFsdN02A/CVj0tySyv3iqzR2lZqN1y8OakbZcEm2BZ3vOk5Xrv9R7X2jOPzTbk3er7+/Of/2wcHo3wnMdpM7Rx2r6WxTgNO9gwcmOPzJyGXU6Uhveel2DXCnLv32LjIN7FSSlOvYr1RYQeBDm/mTgyFKtrHB5x+00cXqXmoXJbKoJVcj+cssS+U53NZs+erQ8fBmhZDlcJcRwkOOhMnDjRPPLII6pwIHwRDPQdyRenGtIjHxSD4IDvzmHEH5egGMNRDuUiuD2M3cFHbLDMDTfcoGzKUW5c+dLkg7wYGOCUAIWvHFRqGVljCn5Q5FFnBAgPkth9B5PUKTJJH0VfiaIk/R1OmCC8iKMIcXDRD13eqHyF0nv27GnwrIiZRqFs5sILLzT4cIUTShxK2nZJsEH5UTgnLTeqLvXyzAOPRnnO47QZ2jtpX4vqI2nS4UyFZzZITql1Sm7wepbnxcZBJ0uSMuPUq1hfhAMtCM7lWVPUeIFy4vabrGUK40flNgyVGktDlAF4laMjI6oBohm4DijLLZG1gXIiy7A684ZoBZiBw0yu2NPm7oHSiRkt8A/StddeazbbbLNEOy3hq9S91GUZWAPbO29ObximrMsNyp71OUJJgWRJOo91u3btjCxn5aUnTSi1jKwxdZsRYGMCLyGyAzzBvZSmj2LFYunSpTk2YmduEG4rKS/MxIHmzZuX4xU8EDthTXJ5g9fjnIt5j7nsssuMOIWav/zlL6G3AJehQ4dqNAxEDIlLcdsuKTYoPwpnXItbLvJGUT0986U+g1EYedNLLaOp2ixNX/PWs9RjfFh7J2PAT0xKjJgjaGSUUj5Uk8gWNQ5i1hQTTUkpbr1cP/G+N1EWZnUnTZqkq1DiS5O0+KL5C40XcZ/1ooVkkUG+fBqO0jqUhQGVpc1t0O4HTl5wYgsSnFyC9kZ777232tjAeQbG7ohE8OSTT1pRPjUdnp5eCrNBgocp7A5lS2ErD5hmh22UhLaym2++udoSymyrlS9LjdognTyxPYzMfFjID5sllAH+l19+ucp45ZVX5kRMWm6UPVESDFF4FJ+cYBEHznMVTkVjx45VeznYIsMGCc6FEvomd2dUGVHp7sYkZYS1b1JMXblRv2+99ZZGEoCdqouWMGvWLHVOlFmTPFuzpH0UjnjoL++//746dMmsqH311VdVnCS8ZAnRQp6oyAtgOGLECO2DsluZr7pJoiW4Gy+66CJ9jnr37q3ey/KysaJYW4m1a9E/YDMP72svFWv7JG2XBBvIUAjnJOV66+M9rqdnPskzGNWmUekOsyRllOs5j9tmSftaVN2TjtOoN2SUMGC5aAbliJYQfCfjmRa9y+fIFjYOwm4bz1ULiTQks6yuaYv+JqmX6ycuWgJstL3REoI+BlHYR6WH1RUVKDRexO03RYH4MQOwTmtzi2n9hqNqUW4RXgiN5/3r27evhjTxpuF4wIAB9tlnn/XlRbrMFGn7QaGVZVHbvHlzfbGiw8ObEi9axwsOL/CsdOfuF578YbIcc8wxyhvKLMKEQcGF8ovwJgj3FFSY43QkiY2rcrZp00Y9SRFmCco0wpZACfFSnHLD5E6DIZQah4f7dfX3ylToGA4i55xzjkazAE5QZI466igrX+96W1QZYXWADGFUrAznyOHqgF/g4SgOpi5vnF8MpjLbb8WGLhcmB8o9XjpOhpNPPllZxe2jrlw4OyI0Fz7k0K/Fnstd0g+4OP3d3XDxxRdbKMeI5BBG8HiGki4zxb7LKD9utATvjYiYAKcO9zzC6QT9XOJOWyi7jpK0fdy2yxJnyBm3XFen4G+9PfPFnsF6eM7jtlncvhbWz9OM065vOaUeH7tQjPF8IUwXJk4kzrbLZqPGwyRt5MZPN565X28IUO84iEkfRARClCNEh8F5XIpbL8cv2BehXAIPmbl1WWzWdS00LsftNznhihwA67TK7XLgLQwaitwOQqNHj26oerOyRKBREYC9rYTWMwjCLrGifTBgkweYjsjsrZGPEd81nhABIlB9CGDTFVHsCpoaVYPUMD2CaSA2rYhDtVKvOHXJIg/MK0W5VTOuhPxG0+Y2IWLMTgSIQO0hIDMaRmJWqrMXPHodIWoHbBT79OlDxdaBwl8iQARiIwDbWlmBVKdr703vyu5m2M1MTDe8yTxuIgSo3DYR0CyGCBCByiKA2Vk4eyHsHaIjgODcddVVV+lfZaVj6USACNQqAgiriWgp4mehYTfFLEm37UXIs0suuaRWq1XTclO5renmqx7hsXxQ7E8cx6pH4JiSFKsTrtdivQpVv57r3LJlS93z3cXZRMQPmiIU6g28RgSqB4Hrr79e3zMwJUKEE4xV/fr1q6iAiFLkQlvuueeeGmf+4IMPNltttZWBkiu+KkXlq8Z6FRW6yjPQ5rbKG4jiEQEiQASIABEgAkSg0RDAxwttbhut1VlfIkAEiAARIAJEgAgQgTwEaJaQBwkTiAARIAJEgAgQASJABGoVASq3tdpylJsIEAEiQASIABEgAkQgDwEqt3mQMIEIEAEiQASIABEgAkSgVhFYsVYFL1XuadOmGbeZQ6m8eD8RIAJEgAgQASJABIhAdSDQkMpthw4dqgN9SkEEiAARIAJEgAgQASKQh8ARRxxhZAvzvPQ4CQ0ZCiwOMMxDBIgAESACRIAIEAEiUHMIcPvdmmsyCkwEiAARIAJEgAgQASIQiQAdyiKh4QUiQASIABEgAkSACBCBWkOAym2ttRjlJQJEgAgQASJABIgAEYhEgMptJDS8QASIABEgAkSACBABIlBrCPx/cLJdvAD4tEIAAAAASUVORK5CYII=;" parent="1" vertex="1">
          <mxGeometry x="680" y="60" width="695" height="696" as="geometry" />
        </mxCell>
        <mxCell id="R9abFY4tA3LT4os4NEYm-5" value="&amp;nbsp;+ act: function&lt;br&gt;&amp;nbsp;+ sizes: list&lt;br&gt;&amp;nbsp;+ device: str&lt;br&gt;&amp;nbsp;+ model: torch.nn.Module" style="rounded=0;whiteSpace=wrap;html=1;fontSize=18;fontFamily=Palatino Linotype;verticalAlign=middle;horizontal=1;align=left;" parent="1" vertex="1">
          <mxGeometry x="60" y="230" width="400" height="110" as="geometry" />
        </mxCell>
        <mxCell id="R9abFY4tA3LT4os4NEYm-6" value="&amp;nbsp;+ forward()&lt;br&gt;&amp;nbsp;+ make_layers()&lt;br&gt;&amp;nbsp;+ net_u()&lt;br&gt;&amp;nbsp;+ net_pde()&lt;br&gt;&amp;nbsp;+ adaptive_sampling()&lt;br&gt;&amp;nbsp;+ compute_jacobian()&lt;br&gt;&amp;nbsp;+ compute_ntk()" style="rounded=0;whiteSpace=wrap;html=1;fontSize=18;fontFamily=Palatino Linotype;verticalAlign=middle;horizontal=1;align=left;" parent="1" vertex="1">
          <mxGeometry x="60" y="340" width="400" height="220" as="geometry" />
        </mxCell>
        <mxCell id="R9abFY4tA3LT4os4NEYm-17" style="edgeStyle=orthogonalEdgeStyle;rounded=0;orthogonalLoop=1;jettySize=auto;html=1;exitX=1;exitY=0.5;exitDx=0;exitDy=0;entryX=0;entryY=0.5;entryDx=0;entryDy=0;" parent="1" source="R9abFY4tA3LT4os4NEYm-7" target="R9abFY4tA3LT4os4NEYm-8" edge="1">
          <mxGeometry relative="1" as="geometry" />
        </mxCell>
        <mxCell id="R9abFY4tA3LT4os4NEYm-7" value="Sampling" style="rounded=0;whiteSpace=wrap;html=1;fontFamily=Palatino Linotype;fontSize=18;" parent="1" vertex="1">
          <mxGeometry x="170" y="940" width="120" height="60" as="geometry" />
        </mxCell>
        <mxCell id="R9abFY4tA3LT4os4NEYm-18" style="edgeStyle=orthogonalEdgeStyle;rounded=0;orthogonalLoop=1;jettySize=auto;html=1;exitX=1;exitY=0.5;exitDx=0;exitDy=0;entryX=0;entryY=0.5;entryDx=0;entryDy=0;" parent="1" source="R9abFY4tA3LT4os4NEYm-8" target="R9abFY4tA3LT4os4NEYm-10" edge="1">
          <mxGeometry relative="1" as="geometry" />
        </mxCell>
        <mxCell id="R9abFY4tA3LT4os4NEYm-20" style="edgeStyle=orthogonalEdgeStyle;rounded=0;orthogonalLoop=1;jettySize=auto;html=1;exitX=0.5;exitY=0;exitDx=0;exitDy=0;entryX=0.5;entryY=1;entryDx=0;entryDy=0;" parent="1" source="R9abFY4tA3LT4os4NEYm-8" target="R9abFY4tA3LT4os4NEYm-11" edge="1">
          <mxGeometry relative="1" as="geometry" />
        </mxCell>
        <mxCell id="R9abFY4tA3LT4os4NEYm-8" value="Forward propogation" style="rounded=0;whiteSpace=wrap;html=1;fontFamily=Palatino Linotype;fontSize=18;" parent="1" vertex="1">
          <mxGeometry x="380" y="940" width="120" height="60" as="geometry" />
        </mxCell>
        <mxCell id="R9abFY4tA3LT4os4NEYm-9" value="PDE residuals" style="rounded=0;whiteSpace=wrap;html=1;fontFamily=Palatino Linotype;fontSize=18;" parent="1" vertex="1">
          <mxGeometry x="460" y="1080" width="120" height="60" as="geometry" />
        </mxCell>
        <mxCell id="R9abFY4tA3LT4os4NEYm-19" style="edgeStyle=orthogonalEdgeStyle;rounded=0;orthogonalLoop=1;jettySize=auto;html=1;exitX=1;exitY=0.5;exitDx=0;exitDy=0;entryX=0;entryY=0.5;entryDx=0;entryDy=0;" parent="1" source="R9abFY4tA3LT4os4NEYm-10" target="R9abFY4tA3LT4os4NEYm-16" edge="1">
          <mxGeometry relative="1" as="geometry" />
        </mxCell>
        <mxCell id="R9abFY4tA3LT4os4NEYm-10" value="Weighting" style="rounded=0;whiteSpace=wrap;html=1;fontFamily=Palatino Linotype;fontSize=18;" parent="1" vertex="1">
          <mxGeometry x="620" y="940" width="120" height="60" as="geometry" />
        </mxCell>
        <mxCell id="R9abFY4tA3LT4os4NEYm-11" value="Visulization" style="rounded=0;whiteSpace=wrap;html=1;fontFamily=Palatino Linotype;fontSize=18;" parent="1" vertex="1">
          <mxGeometry x="380" y="810" width="120" height="60" as="geometry" />
        </mxCell>
        <mxCell id="R9abFY4tA3LT4os4NEYm-12" value="PDE Solution" style="rounded=0;whiteSpace=wrap;html=1;fontFamily=Palatino Linotype;fontSize=18;" parent="1" vertex="1">
          <mxGeometry x="460" y="1010" width="120" height="60" as="geometry" />
        </mxCell>
        <mxCell id="R9abFY4tA3LT4os4NEYm-13" value="Adaptive samplings" style="rounded=0;whiteSpace=wrap;html=1;fontFamily=consolas;fontSize=18;fillColor=#d5e8d4;strokeColor=#82b366;" parent="1" vertex="1">
          <mxGeometry x="170" y="2330" width="150" height="60" as="geometry" />
        </mxCell>
        <mxCell id="R9abFY4tA3LT4os4NEYm-14" value="General&lt;br&gt;samplings" style="rounded=0;whiteSpace=wrap;html=1;fontFamily=consolas;fontSize=18;fillColor=#d5e8d4;strokeColor=#82b366;" parent="1" vertex="1">
          <mxGeometry x="170" y="2180" width="150" height="60" as="geometry" />
        </mxCell>
        <mxCell id="R9abFY4tA3LT4os4NEYm-15" value="IC/BC&lt;div&gt;samplings&lt;/div&gt;" style="rounded=0;whiteSpace=wrap;html=1;fontFamily=consolas;fontSize=18;fillColor=#d5e8d4;strokeColor=#82b366;" parent="1" vertex="1">
          <mxGeometry x="170" y="2255" width="150" height="60" as="geometry" />
        </mxCell>
        <mxCell id="R9abFY4tA3LT4os4NEYm-23" style="edgeStyle=orthogonalEdgeStyle;rounded=0;orthogonalLoop=1;jettySize=auto;html=1;exitX=1;exitY=0.5;exitDx=0;exitDy=0;dashed=1;" parent="1" source="R9abFY4tA3LT4os4NEYm-16" edge="1">
          <mxGeometry relative="1" as="geometry">
            <mxPoint x="1030" y="970.4736842105265" as="targetPoint" />
          </mxGeometry>
        </mxCell>
        <mxCell id="R9abFY4tA3LT4os4NEYm-16" value="Back&lt;br&gt;propogation" style="rounded=0;whiteSpace=wrap;html=1;fontFamily=Palatino Linotype;fontSize=18;" parent="1" vertex="1">
          <mxGeometry x="827" y="940" width="120" height="60" as="geometry" />
        </mxCell>
        <mxCell id="R9abFY4tA3LT4os4NEYm-27" value="Sampling" style="rounded=0;whiteSpace=wrap;html=1;fontFamily=consolas;fontSize=24;fontStyle=0;" parent="1" vertex="1">
          <mxGeometry x="150" y="2110" width="190" height="50" as="geometry" />
        </mxCell>
        <mxCell id="R9abFY4tA3LT4os4NEYm-65" value="" style="edgeStyle=orthogonalEdgeStyle;rounded=0;orthogonalLoop=1;jettySize=auto;html=1;fontFamily=consolas;" parent="1" source="R9abFY4tA3LT4os4NEYm-36" target="R9abFY4tA3LT4os4NEYm-63" edge="1">
          <mxGeometry relative="1" as="geometry" />
        </mxCell>
        <mxCell id="R9abFY4tA3LT4os4NEYm-66" style="edgeStyle=orthogonalEdgeStyle;rounded=0;orthogonalLoop=1;jettySize=auto;html=1;exitX=1;exitY=0.5;exitDx=0;exitDy=0;entryX=0;entryY=0.5;entryDx=0;entryDy=0;fontFamily=consolas;fillColor=#f8cecc;strokeColor=#b85450;strokeWidth=2;" parent="1" source="R9abFY4tA3LT4os4NEYm-36" target="R9abFY4tA3LT4os4NEYm-44" edge="1">
          <mxGeometry relative="1" as="geometry" />
        </mxCell>
        <mxCell id="R9abFY4tA3LT4os4NEYm-36" value="PDE residual" style="rounded=0;whiteSpace=wrap;html=1;fontFamily=consolas;fontSize=18;fillColor=#dae8fc;strokeColor=#6c8ebf;" parent="1" vertex="1">
          <mxGeometry x="600" y="2180" width="130" height="60" as="geometry" />
        </mxCell>
        <mxCell id="R9abFY4tA3LT4os4NEYm-61" style="edgeStyle=orthogonalEdgeStyle;rounded=0;orthogonalLoop=1;jettySize=auto;html=1;exitX=1;exitY=0.5;exitDx=0;exitDy=0;entryX=0;entryY=0.5;entryDx=0;entryDy=0;fontFamily=consolas;" parent="1" source="R9abFY4tA3LT4os4NEYm-37" target="R9abFY4tA3LT4os4NEYm-36" edge="1">
          <mxGeometry relative="1" as="geometry" />
        </mxCell>
        <mxCell id="R9abFY4tA3LT4os4NEYm-64" value="" style="edgeStyle=orthogonalEdgeStyle;rounded=0;orthogonalLoop=1;jettySize=auto;html=1;fontFamily=consolas;" parent="1" source="R9abFY4tA3LT4os4NEYm-37" target="R9abFY4tA3LT4os4NEYm-62" edge="1">
          <mxGeometry relative="1" as="geometry" />
        </mxCell>
        <mxCell id="R9abFY4tA3LT4os4NEYm-37" value="PDE solution" style="rounded=0;whiteSpace=wrap;html=1;fontFamily=consolas;fontSize=18;fillColor=#dae8fc;strokeColor=#6c8ebf;" parent="1" vertex="1">
          <mxGeometry x="450" y="2180" width="130" height="60" as="geometry" />
        </mxCell>
        <mxCell id="R9abFY4tA3LT4os4NEYm-39" value="Forward propagation" style="rounded=0;whiteSpace=wrap;html=1;fontFamily=consolas;fontSize=24;fontStyle=0;" parent="1" vertex="1">
          <mxGeometry x="440" y="2110" width="300" height="50" as="geometry" />
        </mxCell>
        <mxCell id="R9abFY4tA3LT4os4NEYm-41" value="" style="rounded=0;whiteSpace=wrap;html=1;fontFamily=consolas;fontSize=18;fillColor=none;strokeColor=#666666;dashed=1;strokeWidth=2;fontColor=#333333;" parent="1" vertex="1">
          <mxGeometry x="767.5" y="2160" width="190" height="250" as="geometry" />
        </mxCell>
        <mxCell id="R9abFY4tA3LT4os4NEYm-52" style="edgeStyle=orthogonalEdgeStyle;rounded=0;orthogonalLoop=1;jettySize=auto;html=1;exitX=0.5;exitY=1;exitDx=0;exitDy=0;entryX=0.5;entryY=0;entryDx=0;entryDy=0;fontFamily=consolas;" parent="1" source="R9abFY4tA3LT4os4NEYm-42" target="R9abFY4tA3LT4os4NEYm-46" edge="1">
          <mxGeometry relative="1" as="geometry" />
        </mxCell>
        <mxCell id="R9abFY4tA3LT4os4NEYm-42" value="Jacobian matrix" style="rounded=0;whiteSpace=wrap;html=1;fontFamily=consolas;fontSize=18;fillColor=#ffe6cc;strokeColor=#d79b00;" parent="1" vertex="1">
          <mxGeometry x="787.5" y="2240" width="152.5" height="40" as="geometry" />
        </mxCell>
        <mxCell id="R9abFY4tA3LT4os4NEYm-51" style="edgeStyle=orthogonalEdgeStyle;rounded=0;orthogonalLoop=1;jettySize=auto;html=1;exitX=0.5;exitY=1;exitDx=0;exitDy=0;entryX=0.5;entryY=0;entryDx=0;entryDy=0;fontFamily=consolas;" parent="1" source="R9abFY4tA3LT4os4NEYm-44" target="R9abFY4tA3LT4os4NEYm-42" edge="1">
          <mxGeometry relative="1" as="geometry" />
        </mxCell>
        <mxCell id="R9abFY4tA3LT4os4NEYm-44" value="NN gradients" style="rounded=0;whiteSpace=wrap;html=1;fontFamily=consolas;fontSize=18;fillColor=#ffe6cc;strokeColor=#d79b00;" parent="1" vertex="1">
          <mxGeometry x="787.5" y="2180" width="152.5" height="40" as="geometry" />
        </mxCell>
        <mxCell id="R9abFY4tA3LT4os4NEYm-45" value="Weighting" style="rounded=0;whiteSpace=wrap;html=1;fontFamily=consolas;fontSize=24;fontStyle=0;" parent="1" vertex="1">
          <mxGeometry x="767.5" y="2110" width="190" height="50" as="geometry" />
        </mxCell>
        <mxCell id="R9abFY4tA3LT4os4NEYm-53" style="edgeStyle=orthogonalEdgeStyle;rounded=0;orthogonalLoop=1;jettySize=auto;html=1;exitX=0.5;exitY=1;exitDx=0;exitDy=0;entryX=0.5;entryY=0;entryDx=0;entryDy=0;fontFamily=consolas;" parent="1" source="R9abFY4tA3LT4os4NEYm-46" target="R9abFY4tA3LT4os4NEYm-47" edge="1">
          <mxGeometry relative="1" as="geometry" />
        </mxCell>
        <mxCell id="R9abFY4tA3LT4os4NEYm-46" value="NTK matrix" style="rounded=0;whiteSpace=wrap;html=1;fontFamily=consolas;fontSize=18;fillColor=#ffe6cc;strokeColor=#d79b00;" parent="1" vertex="1">
          <mxGeometry x="787.5" y="2300" width="152.5" height="40" as="geometry" />
        </mxCell>
        <mxCell id="R9abFY4tA3LT4os4NEYm-72" style="edgeStyle=orthogonalEdgeStyle;rounded=0;orthogonalLoop=1;jettySize=auto;html=1;exitX=0;exitY=0.5;exitDx=0;exitDy=0;entryX=1;entryY=0.5;entryDx=0;entryDy=0;fontFamily=consolas;fillColor=#f8cecc;strokeColor=#b85450;strokeWidth=2;" parent="1" source="R9abFY4tA3LT4os4NEYm-47" target="R9abFY4tA3LT4os4NEYm-67" edge="1">
          <mxGeometry relative="1" as="geometry" />
        </mxCell>
        <mxCell id="R9abFY4tA3LT4os4NEYm-47" value="Weights" style="rounded=0;whiteSpace=wrap;html=1;fontFamily=consolas;fontSize=18;fillColor=#ffe6cc;strokeColor=#d79b00;" parent="1" vertex="1">
          <mxGeometry x="787.5" y="2360" width="152.5" height="40" as="geometry" />
        </mxCell>
        <mxCell id="R9abFY4tA3LT4os4NEYm-73" style="edgeStyle=orthogonalEdgeStyle;rounded=0;orthogonalLoop=1;jettySize=auto;html=1;exitX=0.5;exitY=1;exitDx=0;exitDy=0;fontFamily=consolas;" parent="1" source="R9abFY4tA3LT4os4NEYm-62" target="R9abFY4tA3LT4os4NEYm-67" edge="1">
          <mxGeometry relative="1" as="geometry" />
        </mxCell>
        <mxCell id="R9abFY4tA3LT4os4NEYm-62" value="IC/&lt;span style=&quot;background-color: initial;&quot;&gt;BC&lt;/span&gt;&lt;div&gt;loss&lt;/div&gt;" style="rounded=0;whiteSpace=wrap;html=1;fontFamily=consolas;fontSize=18;" parent="1" vertex="1">
          <mxGeometry x="450" y="2265" width="130" height="60" as="geometry" />
        </mxCell>
        <mxCell id="R9abFY4tA3LT4os4NEYm-74" style="edgeStyle=orthogonalEdgeStyle;rounded=0;orthogonalLoop=1;jettySize=auto;html=1;exitX=0.5;exitY=1;exitDx=0;exitDy=0;entryX=0.5;entryY=0;entryDx=0;entryDy=0;fontFamily=consolas;" parent="1" source="R9abFY4tA3LT4os4NEYm-63" target="R9abFY4tA3LT4os4NEYm-67" edge="1">
          <mxGeometry relative="1" as="geometry" />
        </mxCell>
        <mxCell id="R9abFY4tA3LT4os4NEYm-63" value="PDE loss" style="rounded=0;whiteSpace=wrap;html=1;fontFamily=consolas;fontSize=18;" parent="1" vertex="1">
          <mxGeometry x="600" y="2265" width="130" height="60" as="geometry" />
        </mxCell>
        <mxCell id="BOxMBp8d-TRPLACpm5DA-45" style="edgeStyle=orthogonalEdgeStyle;rounded=0;orthogonalLoop=1;jettySize=auto;html=1;exitX=0.5;exitY=1;exitDx=0;exitDy=0;entryX=0.5;entryY=1;entryDx=0;entryDy=0;" parent="1" source="R9abFY4tA3LT4os4NEYm-67" target="R9abFY4tA3LT4os4NEYm-79" edge="1">
          <mxGeometry relative="1" as="geometry">
            <Array as="points">
              <mxPoint x="590" y="2450" />
              <mxPoint x="387" y="2450" />
            </Array>
          </mxGeometry>
        </mxCell>
        <mxCell id="R9abFY4tA3LT4os4NEYm-67" value="Weighted loss" style="rounded=0;whiteSpace=wrap;html=1;fontFamily=consolas;fontSize=18;" parent="1" vertex="1">
          <mxGeometry x="450" y="2360" width="280" height="40" as="geometry" />
        </mxCell>
        <mxCell id="R9abFY4tA3LT4os4NEYm-79" value="Neural Network" style="rounded=0;whiteSpace=wrap;html=1;fontFamily=consolas;fontSize=24;fillColor=#f5f5f5;strokeColor=#666666;fontStyle=0;fontColor=#333333;horizontal=0;" parent="1" vertex="1">
          <mxGeometry x="360" y="2110" width="54" height="300" as="geometry" />
        </mxCell>
        <mxCell id="BOxMBp8d-TRPLACpm5DA-11" value="torch.autograd.grad() --&amp;gt; gradients&lt;div&gt;compute_jacobian() --&amp;gt;&lt;/div&gt;&lt;div&gt;&lt;br&gt;&lt;/div&gt;" style="rounded=0;whiteSpace=wrap;html=1;fontSize=18;fontFamily=Lucida Console;align=left;fillColor=#ffe6cc;strokeColor=#d79b00;" parent="1" vertex="1">
          <mxGeometry x="1570" y="1290" width="484" height="190" as="geometry" />
        </mxCell>
        <mxCell id="BOxMBp8d-TRPLACpm5DA-27" style="edgeStyle=orthogonalEdgeStyle;rounded=0;orthogonalLoop=1;jettySize=auto;html=1;exitX=1;exitY=0.5;exitDx=0;exitDy=0;entryX=0;entryY=0.5;entryDx=0;entryDy=0;" parent="1" source="BOxMBp8d-TRPLACpm5DA-13" target="BOxMBp8d-TRPLACpm5DA-23" edge="1">
          <mxGeometry relative="1" as="geometry" />
        </mxCell>
        <mxCell id="BOxMBp8d-TRPLACpm5DA-39" style="edgeStyle=orthogonalEdgeStyle;rounded=0;orthogonalLoop=1;jettySize=auto;html=1;exitX=1;exitY=0.5;exitDx=0;exitDy=0;entryX=0;entryY=0.5;entryDx=0;entryDy=0;" parent="1" source="BOxMBp8d-TRPLACpm5DA-13" target="BOxMBp8d-TRPLACpm5DA-38" edge="1">
          <mxGeometry relative="1" as="geometry" />
        </mxCell>
        <mxCell id="BOxMBp8d-TRPLACpm5DA-13" value="PDE residuals" style="rounded=0;whiteSpace=wrap;html=1;fontSize=24;fontFamily=Palatino Lintotype;align=center;fillColor=#dae8fc;strokeColor=#6c8ebf;horizontal=1;" parent="1" vertex="1">
          <mxGeometry x="1270" y="1820" width="180" height="80" as="geometry" />
        </mxCell>
        <mxCell id="BOxMBp8d-TRPLACpm5DA-28" style="edgeStyle=orthogonalEdgeStyle;rounded=0;orthogonalLoop=1;jettySize=auto;html=1;exitX=1;exitY=0.5;exitDx=0;exitDy=0;entryX=0;entryY=0.5;entryDx=0;entryDy=0;" parent="1" source="BOxMBp8d-TRPLACpm5DA-23" target="BOxMBp8d-TRPLACpm5DA-24" edge="1">
          <mxGeometry relative="1" as="geometry" />
        </mxCell>
        <mxCell id="BOxMBp8d-TRPLACpm5DA-23" value="NN gradients" style="rounded=0;whiteSpace=wrap;html=1;fontSize=24;fontFamily=Palatino Lintotype;align=center;fillColor=#ffe6cc;strokeColor=#d79b00;horizontal=1;" parent="1" vertex="1">
          <mxGeometry x="1510" y="1730" width="180" height="80" as="geometry" />
        </mxCell>
        <mxCell id="BOxMBp8d-TRPLACpm5DA-30" style="edgeStyle=orthogonalEdgeStyle;rounded=0;orthogonalLoop=1;jettySize=auto;html=1;exitX=1;exitY=0.5;exitDx=0;exitDy=0;entryX=0;entryY=0.5;entryDx=0;entryDy=0;" parent="1" source="BOxMBp8d-TRPLACpm5DA-24" target="BOxMBp8d-TRPLACpm5DA-25" edge="1">
          <mxGeometry relative="1" as="geometry" />
        </mxCell>
        <mxCell id="BOxMBp8d-TRPLACpm5DA-24" value="Jacobian matrix" style="rounded=0;whiteSpace=wrap;html=1;fontSize=24;fontFamily=Palatino Lintotype;align=center;fillColor=#ffe6cc;strokeColor=#d79b00;horizontal=1;" parent="1" vertex="1">
          <mxGeometry x="1770" y="1730" width="180" height="80" as="geometry" />
        </mxCell>
        <mxCell id="BOxMBp8d-TRPLACpm5DA-31" style="edgeStyle=orthogonalEdgeStyle;rounded=0;orthogonalLoop=1;jettySize=auto;html=1;exitX=1;exitY=0.5;exitDx=0;exitDy=0;entryX=0;entryY=0.5;entryDx=0;entryDy=0;" parent="1" source="BOxMBp8d-TRPLACpm5DA-25" target="BOxMBp8d-TRPLACpm5DA-26" edge="1">
          <mxGeometry relative="1" as="geometry" />
        </mxCell>
        <mxCell id="BOxMBp8d-TRPLACpm5DA-25" value="NTK matrix" style="rounded=0;whiteSpace=wrap;html=1;fontSize=24;fontFamily=Palatino Lintotype;align=center;fillColor=#ffe6cc;strokeColor=#d79b00;horizontal=1;" parent="1" vertex="1">
          <mxGeometry x="2030" y="1730" width="180" height="80" as="geometry" />
        </mxCell>
        <mxCell id="BOxMBp8d-TRPLACpm5DA-26" value="Weights" style="rounded=0;whiteSpace=wrap;html=1;fontSize=24;fontFamily=Palatino Lintotype;align=center;fillColor=#ffe6cc;strokeColor=#d79b00;horizontal=1;" parent="1" vertex="1">
          <mxGeometry x="2290" y="1730" width="180" height="80" as="geometry" />
        </mxCell>
        <mxCell id="BOxMBp8d-TRPLACpm5DA-32" value="&lt;font style=&quot;font-size: 18px;&quot; face=&quot;Lucida Console&quot;&gt;torch.autograd.grad()&lt;/font&gt;" style="edgeLabel;html=1;align=center;verticalAlign=middle;resizable=0;points=[];" parent="1" vertex="1" connectable="0">
          <mxGeometry x="2010.0040682155563" y="1590.0000000000005" as="geometry" />
        </mxCell>
        <mxCell id="BOxMBp8d-TRPLACpm5DA-33" value="torch.autograd.grad()" style="rounded=0;whiteSpace=wrap;html=1;fontSize=18;fontFamily=Lucida Console;align=center;fillColor=none;horizontal=1;strokeColor=none;" parent="1" vertex="1">
          <mxGeometry x="1350" y="1680" width="270" height="50" as="geometry" />
        </mxCell>
        <mxCell id="BOxMBp8d-TRPLACpm5DA-36" value="PFPINN.compute_jacobian()" style="rounded=0;whiteSpace=wrap;html=1;fontSize=18;fontFamily=Lucida Console;align=center;fillColor=none;horizontal=1;strokeColor=none;" parent="1" vertex="1">
          <mxGeometry x="1600" y="1680" width="270" height="50" as="geometry" />
        </mxCell>
        <mxCell id="BOxMBp8d-TRPLACpm5DA-38" value="NN gradients" style="rounded=0;whiteSpace=wrap;html=1;fontSize=24;fontFamily=Palatino Lintotype;align=center;fillColor=#d5e8d4;strokeColor=#82b366;horizontal=1;" parent="1" vertex="1">
          <mxGeometry x="1680" y="1920" width="180" height="80" as="geometry" />
        </mxCell>
        <mxCell id="atxaqTkENTu17fOvcp-n-1" value="" style="group" vertex="1" connectable="0" parent="1">
          <mxGeometry x="150" y="1400" width="800" height="550" as="geometry" />
        </mxCell>
        <mxCell id="BOxMBp8d-TRPLACpm5DA-63" value="" style="rounded=0;whiteSpace=wrap;html=1;fillColor=none;dashed=1;strokeWidth=2;dashPattern=8 8;" parent="atxaqTkENTu17fOvcp-n-1" vertex="1">
          <mxGeometry y="290" width="800" height="210" as="geometry" />
        </mxCell>
        <mxCell id="BOxMBp8d-TRPLACpm5DA-41" value="&amp;nbsp;+ make_flattend_grid_data()&lt;div&gt;&amp;nbsp;+ make_lhs_sampling_data()&lt;/div&gt;&lt;div&gt;&amp;nbsp;+ make_uniform_grid_data()&lt;/div&gt;" style="rounded=0;whiteSpace=wrap;html=1;fontSize=18;fontFamily=Lucida Console;align=left;fillColor=#ffe6cc;strokeColor=#d79b00;" parent="atxaqTkENTu17fOvcp-n-1" vertex="1">
          <mxGeometry x="482.5" y="50" width="317.5" height="100" as="geometry" />
        </mxCell>
        <mxCell id="BOxMBp8d-TRPLACpm5DA-1" value="&lt;div style=&quot;font-size: 24px;&quot;&gt;&lt;font style=&quot;font-size: 24px;&quot;&gt;model.py&lt;/font&gt;&lt;/div&gt;&lt;font style=&quot;font-size: 24px;&quot;&gt;PFPINN(torch.nn.Module)&lt;/font&gt;" style="rounded=0;whiteSpace=wrap;html=1;fontSize=24;fontFamily=Palatino Linotype;fontStyle=0" parent="atxaqTkENTu17fOvcp-n-1" vertex="1">
          <mxGeometry width="460" height="80" as="geometry" />
        </mxCell>
        <mxCell id="BOxMBp8d-TRPLACpm5DA-2" value="&amp;nbsp;+ make_layers()&lt;div&gt;&amp;nbsp;+ forward()&lt;/div&gt;" style="rounded=0;whiteSpace=wrap;html=1;fontSize=18;fontFamily=Lucida Console;align=left;fillColor=#f5f5f5;fontColor=#333333;strokeColor=#666666;" parent="atxaqTkENTu17fOvcp-n-1" vertex="1">
          <mxGeometry y="80" width="210" height="100" as="geometry" />
        </mxCell>
        <mxCell id="BOxMBp8d-TRPLACpm5DA-3" value="&amp;nbsp;+ net_u()&lt;div&gt;&lt;div&gt;&amp;nbsp;+ net_pde()&lt;/div&gt;&lt;/div&gt;&lt;div&gt;&amp;nbsp;+ auto_grad()&lt;/div&gt;" style="rounded=0;whiteSpace=wrap;html=1;fontSize=18;fontFamily=Lucida Console;align=left;fillColor=#d5e8d4;strokeColor=#82b366;" parent="atxaqTkENTu17fOvcp-n-1" vertex="1">
          <mxGeometry y="180" width="210" height="90" as="geometry" />
        </mxCell>
        <mxCell id="BOxMBp8d-TRPLACpm5DA-4" value="&amp;nbsp;+ adaptive_sampling()" style="rounded=0;whiteSpace=wrap;html=1;fontSize=18;fontFamily=Lucida Console;align=left;fillColor=#ffe6cc;strokeColor=#d79b00;" parent="atxaqTkENTu17fOvcp-n-1" vertex="1">
          <mxGeometry x="210" y="180" width="250" height="90" as="geometry" />
        </mxCell>
        <mxCell id="BOxMBp8d-TRPLACpm5DA-12" value="&amp;nbsp;+ compute_jacobian()&lt;div&gt;&amp;nbsp;+ compute_ntk()&lt;/div&gt;&lt;div&gt;&amp;nbsp;+ compute_weight()&lt;/div&gt;" style="rounded=0;whiteSpace=wrap;html=1;fontSize=18;fontFamily=Lucida Console;align=left;fillColor=#f8cecc;strokeColor=#b85450;" parent="atxaqTkENTu17fOvcp-n-1" vertex="1">
          <mxGeometry x="210" y="80" width="250" height="100" as="geometry" />
        </mxCell>
        <mxCell id="BOxMBp8d-TRPLACpm5DA-40" value="&lt;div style=&quot;font-size: 24px;&quot;&gt;&lt;font&gt;samplings.py&lt;/font&gt;&lt;/div&gt;" style="rounded=0;whiteSpace=wrap;html=1;fontSize=24;fontFamily=Palatino Linotype;fontStyle=0" parent="atxaqTkENTu17fOvcp-n-1" vertex="1">
          <mxGeometry x="482.5" width="317.5" height="50" as="geometry" />
        </mxCell>
        <mxCell id="BOxMBp8d-TRPLACpm5DA-43" value="&amp;nbsp;+ resample()&amp;nbsp; &amp;nbsp;+ ic_sample()&lt;div&gt;&amp;nbsp;+ in_sample()&amp;nbsp;&amp;nbsp;&lt;span style=&quot;background-color: initial;&quot;&gt;+ bc_sample()&lt;/span&gt;&lt;/div&gt;" style="rounded=0;whiteSpace=wrap;html=1;fontSize=18;fontFamily=Lucida Console;align=left;fillColor=#ffe6cc;strokeColor=#d79b00;" parent="atxaqTkENTu17fOvcp-n-1" vertex="1">
          <mxGeometry x="482.5" y="210" width="317.5" height="60" as="geometry" />
        </mxCell>
        <mxCell id="BOxMBp8d-TRPLACpm5DA-44" value="&lt;div style=&quot;font-size: 24px;&quot;&gt;&lt;span style=&quot;background-color: initial;&quot;&gt;GeoTimeSampler&lt;/span&gt;&lt;br&gt;&lt;/div&gt;" style="rounded=0;whiteSpace=wrap;html=1;fontSize=24;fontFamily=Palatino Linotype;fontStyle=0;rotation=0;" parent="atxaqTkENTu17fOvcp-n-1" vertex="1">
          <mxGeometry x="482.5" y="160" width="317.5" height="50" as="geometry" />
        </mxCell>
        <mxCell id="BOxMBp8d-TRPLACpm5DA-57" style="edgeStyle=orthogonalEdgeStyle;rounded=0;orthogonalLoop=1;jettySize=auto;html=1;exitX=1;exitY=0.5;exitDx=0;exitDy=0;entryX=0;entryY=0.5;entryDx=0;entryDy=0;fontFamily=Palatino Linotype;strokeWidth=2;" parent="atxaqTkENTu17fOvcp-n-1" source="BOxMBp8d-TRPLACpm5DA-47" target="BOxMBp8d-TRPLACpm5DA-48" edge="1">
          <mxGeometry relative="1" as="geometry" />
        </mxCell>
        <mxCell id="BOxMBp8d-TRPLACpm5DA-47" value="Sampling" style="rounded=0;whiteSpace=wrap;html=1;fontFamily=Palatino Linotype;fontSize=24;fontStyle=0;fillColor=#ffe6cc;strokeColor=#d79b00;" parent="atxaqTkENTu17fOvcp-n-1" vertex="1">
          <mxGeometry x="180" y="306.25" width="170" height="75" as="geometry" />
        </mxCell>
        <mxCell id="BOxMBp8d-TRPLACpm5DA-54" style="edgeStyle=orthogonalEdgeStyle;rounded=0;orthogonalLoop=1;jettySize=auto;html=1;exitX=0.5;exitY=1;exitDx=0;exitDy=0;entryX=0.5;entryY=0;entryDx=0;entryDy=0;fontFamily=Palatino Linotype;strokeWidth=2;" parent="atxaqTkENTu17fOvcp-n-1" source="BOxMBp8d-TRPLACpm5DA-48" target="BOxMBp8d-TRPLACpm5DA-50" edge="1">
          <mxGeometry relative="1" as="geometry" />
        </mxCell>
        <mxCell id="AgoURu1cKZkCILSuDqB1-2" style="edgeStyle=orthogonalEdgeStyle;rounded=0;orthogonalLoop=1;jettySize=auto;html=1;exitX=1;exitY=0.5;exitDx=0;exitDy=0;entryX=0;entryY=0.5;entryDx=0;entryDy=0;" parent="atxaqTkENTu17fOvcp-n-1" source="BOxMBp8d-TRPLACpm5DA-48" target="AgoURu1cKZkCILSuDqB1-1" edge="1">
          <mxGeometry relative="1" as="geometry" />
        </mxCell>
        <mxCell id="BOxMBp8d-TRPLACpm5DA-48" value="Forward&lt;div&gt;Propagation&lt;/div&gt;" style="rounded=0;whiteSpace=wrap;html=1;fontFamily=Palatino Linotype;fontSize=24;fontStyle=0;fillColor=#d5e8d4;strokeColor=#82b366;" parent="atxaqTkENTu17fOvcp-n-1" vertex="1">
          <mxGeometry x="380" y="306.25" width="170" height="75" as="geometry" />
        </mxCell>
        <mxCell id="AgoURu1cKZkCILSuDqB1-3" style="edgeStyle=orthogonalEdgeStyle;rounded=0;orthogonalLoop=1;jettySize=auto;html=1;exitX=0;exitY=0.5;exitDx=0;exitDy=0;entryX=1;entryY=0.5;entryDx=0;entryDy=0;fillColor=#f8cecc;strokeColor=#b85450;strokeWidth=2;" parent="atxaqTkENTu17fOvcp-n-1" source="BOxMBp8d-TRPLACpm5DA-49" target="BOxMBp8d-TRPLACpm5DA-50" edge="1">
          <mxGeometry relative="1" as="geometry" />
        </mxCell>
        <mxCell id="BOxMBp8d-TRPLACpm5DA-49" value="&lt;div&gt;NTK-based&lt;/div&gt;Weighting" style="rounded=0;whiteSpace=wrap;html=1;fontFamily=Palatino Linotype;fontSize=24;fontStyle=0;fillColor=#f8cecc;strokeColor=#b85450;" parent="atxaqTkENTu17fOvcp-n-1" vertex="1">
          <mxGeometry x="590" y="410" width="170" height="75" as="geometry" />
        </mxCell>
        <mxCell id="BOxMBp8d-TRPLACpm5DA-56" style="edgeStyle=orthogonalEdgeStyle;rounded=0;orthogonalLoop=1;jettySize=auto;html=1;exitX=0;exitY=0.5;exitDx=0;exitDy=0;entryX=1;entryY=0.5;entryDx=0;entryDy=0;fontFamily=Palatino Linotype;strokeWidth=2;" parent="atxaqTkENTu17fOvcp-n-1" source="BOxMBp8d-TRPLACpm5DA-50" target="BOxMBp8d-TRPLACpm5DA-52" edge="1">
          <mxGeometry relative="1" as="geometry" />
        </mxCell>
        <mxCell id="BOxMBp8d-TRPLACpm5DA-50" value="Wighted&lt;div&gt;Loss&lt;/div&gt;" style="rounded=0;whiteSpace=wrap;html=1;fontFamily=Palatino Linotype;fontSize=24;fontStyle=0;fillColor=#d5e8d4;strokeColor=#82b366;" parent="atxaqTkENTu17fOvcp-n-1" vertex="1">
          <mxGeometry x="380" y="410" width="170" height="75" as="geometry" />
        </mxCell>
        <mxCell id="BOxMBp8d-TRPLACpm5DA-55" style="edgeStyle=orthogonalEdgeStyle;rounded=0;orthogonalLoop=1;jettySize=auto;html=1;exitX=0.5;exitY=0;exitDx=0;exitDy=0;entryX=0.5;entryY=1;entryDx=0;entryDy=0;fontFamily=Palatino Linotype;strokeWidth=2;" parent="atxaqTkENTu17fOvcp-n-1" source="BOxMBp8d-TRPLACpm5DA-52" target="BOxMBp8d-TRPLACpm5DA-47" edge="1">
          <mxGeometry relative="1" as="geometry" />
        </mxCell>
        <mxCell id="BOxMBp8d-TRPLACpm5DA-52" value="Backward&lt;div&gt;Propagation&lt;/div&gt;" style="rounded=0;whiteSpace=wrap;html=1;fontFamily=Palatino Linotype;fontSize=24;fontStyle=0;fillColor=#f5f5f5;strokeColor=#666666;fontColor=#333333;" parent="atxaqTkENTu17fOvcp-n-1" vertex="1">
          <mxGeometry x="180" y="410" width="170" height="75" as="geometry" />
        </mxCell>
        <mxCell id="BOxMBp8d-TRPLACpm5DA-58" style="edgeStyle=orthogonalEdgeStyle;rounded=0;orthogonalLoop=1;jettySize=auto;html=1;exitX=1;exitY=0.5;exitDx=0;exitDy=0;entryX=0;entryY=0.5;entryDx=0;entryDy=0;fontFamily=Palatino Linotype;" parent="atxaqTkENTu17fOvcp-n-1" source="BOxMBp8d-TRPLACpm5DA-53" target="BOxMBp8d-TRPLACpm5DA-47" edge="1">
          <mxGeometry relative="1" as="geometry" />
        </mxCell>
        <mxCell id="BOxMBp8d-TRPLACpm5DA-53" value="Setup" style="rounded=0;whiteSpace=wrap;html=1;fontFamily=Palatino Linotype;fontSize=24;fontStyle=0;fillColor=#f5f5f5;strokeColor=#666666;fontColor=#333333;" parent="atxaqTkENTu17fOvcp-n-1" vertex="1">
          <mxGeometry x="12.5" y="306.25" width="120" height="75" as="geometry" />
        </mxCell>
        <mxCell id="BOxMBp8d-TRPLACpm5DA-66" value="&lt;div style=&quot;font-size: 24px;&quot;&gt;main.py: Training process control&lt;/div&gt;" style="rounded=0;whiteSpace=wrap;html=1;fontSize=24;fontFamily=Palatino Linotype;fontStyle=0" parent="atxaqTkENTu17fOvcp-n-1" vertex="1">
          <mxGeometry y="500" width="800" height="50" as="geometry" />
        </mxCell>
        <mxCell id="AgoURu1cKZkCILSuDqB1-1" value="Visualisation" style="rounded=0;whiteSpace=wrap;html=1;fontFamily=Palatino Linotype;fontSize=24;fontStyle=0;fillColor=#f5f5f5;strokeColor=#666666;fontColor=#333333;" parent="atxaqTkENTu17fOvcp-n-1" vertex="1">
          <mxGeometry x="590" y="306.25" width="170" height="75" as="geometry" />
        </mxCell>
      </root>
    </mxGraphModel>
  </diagram>
</mxfile>
